<?xml version="1.0" encoding="utf-8"?>
<!-- Generator: Adobe Illustrator 21.1.0, SVG Export Plug-In . SVG Version: 6.00 Build 0)  -->
<svg version="1.1" id="Layer_1" xmlns="http://www.w3.org/2000/svg" xmlns:xlink="http://www.w3.org/1999/xlink" x="0px" y="0px"
	 viewBox="0 0 50 50" style="enable-background:new 0 0 50 50;" xml:space="preserve">
<style type="text/css">
	.st0{fill:#E42020;}
	.st1{fill:#E00000;}
</style>
<g>
	<g>
		<g>
			<g>
				<g>
					<path class="st0" d="M26.4,14.8c0.2-0.1,0.4-0.4,0.2-0.5L26,14.7L26.4,14.8z"/>
					<path class="st0" d="M26.1,12.8c-0.4,0-1.1,0-1.5,0.6c0.7-0.1,0.5,0.1,1.3-0.2c0.2,0.1,0.1,0.5-0.1,0.6c0.2,0,0.2,0.4,0.6,0.2
						c0.1-0.6-0.1-0.9-0.7-0.9C25.8,12.9,26,12.8,26.1,12.8z"/>
					<path class="st0" d="M15.8,16.6h0.1C15.9,16.6,15.9,16.6,15.8,16.6z"/>
					<path class="st0" d="M6.3,20.7c-0.1-0.1-0.2-0.2-0.3-0.2C6.1,20.6,6.2,20.7,6.3,20.7z"/>
					<path class="st0" d="M6.9,23.7c0-0.1,0-0.1,0-0.2C6.8,23.6,6.8,23.7,6.9,23.7z"/>
					<path class="st0" d="M15.8,16.6c-0.1,0-0.2,0-0.3,0.1C15.7,16.8,15.7,16.7,15.8,16.6z"/>
					<path class="st0" d="M23.5,11.6c0,0,0.1,0,0.1-0.1C23.6,11.5,23.6,11.5,23.5,11.6C23.6,11.5,23.5,11.5,23.5,11.6z"/>
					<path class="st0" d="M18.3,11l0.1-0.1c0-0.1-0.1-0.1-0.2-0.2C18.2,10.8,18.2,10.9,18.3,11z"/>
					<path class="st0" d="M21.5,5.2c-0.1,0.1,0,0.9,0,1.3c0-0.4,0-0.6,0.1-0.7C21.6,5.5,21.6,5.4,21.5,5.2z"/>
					<path class="st0" d="M25,7.9L25,7.9C25.1,7.9,25.1,7.9,25,7.9z"/>
					<path class="st0" d="M16.5,14c-0.1,0-0.2,0-0.2-0.1C16.4,14,16.5,14,16.5,14z"/>
					<path class="st0" d="M21.9,4.8C22,4.8,22,4.8,21.9,4.8C22,4.8,21.9,4.8,21.9,4.8z"/>
					<path class="st0" d="M21.2,9.2L21.2,9.2C21.1,9,21,9,20.9,9L21.2,9.2z"/>
					<path class="st0" d="M7.8,28.1L7.8,28.1C7.7,28,7.7,28,7.8,28.1z"/>
					<path class="st0" d="M28.4,45c-0.2-0.6,0.9-0.3,0.6-1.1C29,44.2,28.1,44.5,28.4,45z"/>
					<path class="st0" d="M23.5,11.4L23.5,11.4L23.5,11.4z"/>
					<path class="st0" d="M29,44L29,44L29,44C29,43.9,29,43.9,29,44z"/>
					<path class="st0" d="M4.4,34.6L4.4,34.6L4.4,34.6z"/>
					<path class="st0" d="M8.3,29.8L8,30C8.1,29.9,8.3,29.8,8.3,29.8z"/>
					<path class="st0" d="M6.4,35.8c0,0,0,0.1,0.2,0.1c0,0,0-0.1,0.1-0.1C6.5,35.8,6.4,35.9,6.4,35.8z"/>
					<path class="st0" d="M12.7,35.5l-0.1-0.1c-0.1,0-0.1,0-0.2,0L12.7,35.5z"/>
					<path class="st0" d="M29.4,17.5c-0.1-0.2-0.1-0.4,0-0.6C29.3,17.3,28.5,17.1,29.4,17.5z"/>
					<path class="st0" d="M23.7,11.3c-0.1,0.1-0.1,0.2-0.2,0.2l0,0C23.6,11.4,23.7,11.3,23.7,11.3z"/>
					<path class="st0" d="M13,31.2L13,31.2L13,31.2z"/>
					<path class="st0" d="M37.5,27.1L37.5,27.1C37.4,27.1,37.4,27.1,37.5,27.1z"/>
					<path class="st0" d="M13.3,31.2c-0.1,0.2-0.1,0.3-0.1,0.4l0.1-0.1C13.3,31.3,13.3,31.2,13.3,31.2z"/>
					<path class="st0" d="M29.4,16.9L29.4,16.9L29.4,16.9z"/>
					<path class="st0" d="M24.2,14.5c0.5,0.7,0.8-0.2,1.2-0.3c0.8,0.6-0.1,0.7-0.1,1.2c0.6,0.3,1.4,0.1,1.7,0.4c0,0.1,0,0.2-0.2,0.3
						c0.8-0.1,1.6,1,2.6,0.6c0,0.1,0,0.1,0,0.2c0-0.4,0.2-0.7,0.3-1c0.3,0.1,0.7-0.2,0.6,0.3c-0.2-0.1-0.3,0.1-0.4,0.2l0.4-0.1
						c0.1,0.8-0.5,0.1-0.7,0.5c0.7,0.1,1.6-0.3,2.1-0.1c0,0.7-1.3,0-0.7,0.7c-0.3-0.1-0.5-0.3-0.7-0.5c0.3,1.2-0.5-0.2-0.2,1
						c1.1,0.5,1.4,0,2.6,0.3c0.3-0.4-0.1-0.6,0.2-0.9c0.4-0.2,0.6-0.2,0.7-0.1c0.1,0.1,0.1,0.3,0.1,0.5c0,0.4-0.1,0.8,0.1,0.3
						c0.2-0.5,0.8-1.5,0.8-1.1c-0.2,0.3-0.4,0.6-0.6,0.9c0.1,0,1-1.4,0.9-0.9c-0.4,0.4-0.5,0.4-0.5,0.5c-0.4,0.7,0.5-0.6,0.8-0.7
						l-0.8,0.9c0.2-0.1,0.5-0.4,0.9-0.6c0.1-0.1,0.2-0.1,0.3-0.2h0.1c0.1,0,0.1,0.1,0.1,0.1c-0.3,0.2-0.6,0.4-1,0.7
						c0.2,0,0,0.3-0.2,0.5c-0.2,0.3-0.5,0.5-0.8,0.5c0.2,0,0.4,0.1,0.6,0.1c0,0-0.3,0-0.4,0c-0.3,0,0.4,0.1,0.6,0.2
						c0,0.1-0.4,0-0.5-0.1c0.1,0,0.1,0.3,0.1,0.6c0,0.3,0,0.7,0,1c0.1,1.3,0.7,2.5,0.9,3.5l-0.3-0.1c0.4,1.1,1.6,0.2,1.8,1.1
						c-0.1,0-0.1,0-0.2,0c0.4,0.4,0.4,0.4,0.6,0.6c0.1,0.1,0.3,0.2,0.5,0.3c0.3,0.2,0.5,0.3-0.1,0.5c0.8-0.1,0.8,0,0.8,0.1
						s0.1,0.1,1.4,0.2c-0.4,0.1-0.9,0.1-1.2,0.1c-0.4,0-0.6,0-1.1,0c-0.2,0,1.7,0.3,1.8,0.4L37.6,27c0.4,0.1,0.9,0.2,1.2,0.3
						L37.2,27l0.2,0.1c0.1,0,0.6,0.1,1,0.2c0.2,0.1-0.4,0-0.9-0.1c-0.4-0.1-0.7-0.2-0.9-0.2c0.2,0.1,0.3,0.2,0.3,0.4
						c-0.3-0.1-0.3-0.2-0.5-0.3c0.6,0.4-0.8-0.4-0.2,0c0.2,0.1,0.4,0.2,0.5,0.3c-0.2-0.1-0.4-0.1-0.5-0.1c0,0-0.1,0-0.1,0.1
						c0,0,0,0,0,0.1l0,0L36,27.6V27c-0.7,0.4-1.4,1.1-1.8,1.8c-0.5,0.7-0.8,1.5-1.1,2.2c0.4-0.4,1,0,0.9,0.4l-0.7-0.1
						c0.3,0.4,0.4-0.3,0.6,0.4c-0.2,0.5-0.8,0.1-0.9-0.3c0,0.2,0,0.5,0,0.7c-0.2,0-0.2-0.2-0.5-0.3c0.3,0.4-0.9,1-0.3,1.5H32
						c-0.3,1.4-0.1,2-0.1,3.1c0.6,0,0.4,0.4,0.9,0.8c-0.2,0.7-0.7,1.5-0.6,2.4c0.3,0.6,0.5,0.2,0.8,0.4c-0.3,0-0.4,0.3-0.5,0.3
						c-0.1,0.1-0.2,0.1-0.4,0c0,0.1,0.1,0.2,0.2,0.4c0.1,0.1,0.2,0.3,0.4,0.7c0.2,0.1,0.3,0.1,0.5,0.3c0.1,0.2-0.2,0.1-0.5-0.1
						l-0.1-0.1c0.4,0.7,0.1,0.8-0.4,0.4c-0.5-0.4-0.8-0.9-0.6-0.2v-0.1c0,0.2,0,0.4-0.1,0.5c-0.2-0.3,0-0.4-0.2-1
						c0,0.5-0.2,0.3-0.3,0.1c-0.1-0.1-0.1-0.1-0.2-0.2c-0.1,0-0.1,0-0.2,0s-0.3-0.1-0.4-0.1c-0.1-0.9-0.8-1.2-1.6-1.4
						c-0.8-0.2-1.8-0.4-2.4-1v0.4c-0.5,0.3-0.4-0.3-0.7-0.4c0,0.3,0.4,0.4,0.1,0.5c-1.3,0-2.6,0-4.1,0.5c-0.4,0.1-0.7,0.3-1.1,0.6
						c-0.2,0.1-0.3,0.2-0.4,0.2h-0.1l0.4,0.5l0.3,0.4c0.3,0.4,0.3,0.6,0.4,0.7c0,0.1,0,0.1,0,0.1l0,0l0,0l0,0l0,0
						c-0.1,0.4,0.6-3.8,0.3-2l0,0l0,0l0,0l-0.1-0.1c-0.4-0.2-0.8-0.3-1.2-0.3c-0.3,0-0.6,0-0.9,0.1c-0.1,0-0.2,0-0.2,0.1H19l0,0l0,0
						l0,0l0.4,2.5l0,0v0.1l0,0c0.1-0.1,0.4-0.4,1-0.7c0.3-0.1,0.6-0.3,1.2-0.5C22.1,41,22,41,22,41v-0.1v-0.1
						c-0.2-0.9-1.9,0.1-1.5-1.2l0.7,0.1c-0.7-0.7-1-1.6-1.3-2.5c-0.1-0.4-0.3-0.9-0.5-1.3l-0.2-0.3c-0.1-0.2-0.2-0.4-0.3-0.5
						c-0.2-0.4-0.4-0.7-0.7-0.9c0.2,0.1,0.4-0.1,0.5,0.2c0.1-0.4-0.3-1-0.8-1.3s-1-0.3-1.1-0.2c-0.4-0.2,0.1-0.4-0.1-0.7
						s-0.8-0.3-1.2-0.2c-0.2,0-0.4,0-0.5,0s-0.2-0.1-0.2-0.2s0.1-0.1,0.2-0.1c-0.3,0.2-1.2-0.3-1.1,0.3c-0.2-0.1-0.3-0.2-0.5-0.2
						s-0.4,0-0.4,0c-0.1,0-0.2,0.1-0.2-0.1c-0.2,0.3-0.3,0.2-0.3,0.2c-0.1,0-0.1,0-0.5,0.4c0.7-0.8,0.5-0.7-0.3-0.2
						c0.4-0.3,0.3-0.3,0.9-0.7c0,0,0,0-0.1,0c-0.1,0.1-0.5,0.3-1.1,0.7c0.8-0.6,0.4-0.3-0.1-0.1s-1,0.4,0.6-0.4
						c-0.3,0.1-0.6,0.2-0.9,0.3c-0.1,0-0.4,0.1-0.4,0.1l0.1,0c-0.2,0.1-0.3,0.1-0.4,0v-0.1c0.8-0.3,0.9-0.2,0.9-0.2
						c0,0.1-0.2,0.2,1.1-0.4c-0.2,0.1-0.4,0.1-0.6,0.2c-0.7,0.2-1.2,0.1-0.5-0.2c0.3-0.1,0.6-0.1,0.8-0.1c-0.2,0,0.1-0.1,0.3-0.2
						c0.1-0.1,0.1-0.1,0.1-0.2v-0.1c0-0.1-0.1-0.1-0.1-0.3l0.1,0.1v0.1l0,0l0,0v-0.1c0-0.1,0-0.2,0.1-0.2c0-0.1,0-0.3-0.2-0.3v0.3
						c-0.4,0.2-0.6-0.2-0.8-0.6S11,29,10.9,29c0.6,0.2,0.7-0.1,0.8-0.4s0.2-0.6,1-0.3c-0.1-0.2-0.3-0.4-0.6-0.3
						c0-0.3,0.2-0.4,0.5-0.1c-0.4-1-0.7-0.5-0.9-1.3c0.2-0.1,0.3,0.1,0.6,0.1c-0.5-0.3-1-0.6-1-1.2c0.1,0,0.2-0.1,0.3,0.1
						c-0.4-1-1.7-1.4-1.6-2.2c1,0,0.2-0.3,1-0.4c-0.1-0.1-0.2-0.2-0.4-0.3c-0.1,0-0.2,0.1-0.3,0.1c-0.1-0.3-0.9-0.7-0.7-0.9
						c0.2,0.1,0.3,0.2,0.5,0.3l-0.4-0.6c-0.1,0.1-0.1,0.2-0.2,0.2c-0.6-0.5-1.2-0.3-1.1-0.8c0,0-0.4-0.6,0.2-0.5l0,0
						c-0.4-0.3-0.9-0.8-0.7-0.9c0.3,0.1,1.2,0.7,1.5,0.8c-0.5-0.3-0.6-0.6-0.8-0.8c-0.2-0.3-0.3-0.5-0.9-1c0.3,0.3,0.9,0.7,1,0.8
						l-0.8-0.6c0.1,0,0.1,0.1,0.2,0.1c0.3,0.2,0.5,0.3,0.8,0.6c0.6,0.2-1.5-1.1-0.4-0.6c0,0,0.1,0.1,0.1,0.2
						c0.4,0.2,0.6,0.1,0.8,0.1s0.5-0.1,0.8,0.1c0.6,0.8-0.3,0.1,0.3,0.8c0.2,0,0.4-0.3,0.7-0.4c0.2-0.1,0.3-0.2,0.6-0.2s0.6,0,0.9,0
						l-0.2-0.1c0.2-1.1,0.8,0.5,1.4,0c-0.1,0.1-0.2,0.6-0.1,0.5c0.3,0.1,1,0,1.6-0.2c0.6-0.3,1.1-0.7,1.5-1.4c0,0.1,0,0.2,0,0.3
						c0.3-0.1,0.6-0.4,0.9-0.7c0.3-0.4,0.4-0.6,0.6-0.8c-0.2-0.3,0-0.5-0.4-0.5c2.1-0.7,0.6-2.9,2.4-3.5c-0.1,0.1,0,0.4,0.1,0.3
						l0.3-1.1c-0.5-0.1-0.3,0-0.7,0c-0.2-0.3-0.2-0.6-0.1-0.9c0,0.6,0.7,0.3,0.9,0.4c-0.1-0.1-0.2-0.2-0.4-0.3
						c0.9,0.1-0.7-0.7,0.1-1l0.1,0.2c0-0.3,0-0.9,0.1-1.1c0.4,0.5,0,0.5,0.3,1c0.1-0.2,0-0.6,0-1s0.1-0.7,0.3-0.5
						c0,0.4-0.1,0.6-0.1,0.9c0.5,0.4,0.4,0.3,0.5,0.2l0,0c0.1,0,0.2,0,0.3,0c0-0.1-0.1-0.1-0.1-0.2c-0.1-1.2,0-1.6,0.1-1.8
						s0.2-0.3,0.4-1.6c-0.2,1.2-0.1,1.4-0.1,1.6c0,0.1,0.1,0.2,0.1,0.8c0.1,0.2,0.2,0.5,0.1,0.9c0.1-0.6,0.1-0.5,0.1-0.4
						c0.1,0.1,0.1,0.1,0.3-0.8c0,0.5,0.2,0,0,1.2c0.2-0.4,0.1-0.8,0.2-1.4c0-0.5,0.2-0.5,0.3-0.4c0.2,0.2,0.2,0.8,0.2,1.1
						c0,0.4,0.1,0.5,0.3,0.1c0.2-0.2,0.6-1.1,0.6-0.7c-0.2,0.4-0.2,0.5-0.3,0.6c-0.1,0.1-0.1,0.1-0.1,0.1c-0.3,0.8-0.3,0.9-0.1,1
						C24,10.5,24,10.7,23.8,11c0.1,0.2,0.5-0.5,0.5,0.1c-0.2,0.1-0.4,0.3-0.6,0.4c0.2,0,0.6,0,0.9,0.2c-0.2,0.2-0.5,0.1-0.7,0.2
						c0.2,0,0.8,0.8,1.4,0.6v-0.4c0.1,0.1-0.3,0.3-0.5,0.3c-0.3-0.1-0.3-0.2-0.3-0.4c0.1-0.1,0.2-0.3,0.3-0.3c0.1,0,0.2,0.1,0.3,0.2
						c0.4-0.4,0.2-0.7-0.1-0.8c-0.3-0.2-0.6-0.2-0.7-0.4c0.1-0.1,0.2-0.2,0.3-0.3c0.1-0.1,0.2-0.2,0.4-0.3c-0.1,0-0.2,0.1-0.2,0.1
						h-0.2c-0.1,0-0.2,0-0.3,0.1c0.1-0.2,0.2-0.4,0.3-0.6c0-0.1,0.1-0.2,0.2-0.3s0.1-0.1,0.2-0.1c0.3-1.1-0.3,0.1,0.1-1
						C25,8,25,7.9,25,7.9h-0.1c0.1-0.2,0.5-1,0.3-0.6c0.2-0.7,0.1-0.7,0.1-0.7s-0.1,0,0.1-0.5l0,0c0-0.2-0.2-0.1-0.2,0.2
						c-0.1,0.1-0.1,0.3-0.2,0.4c-0.1,0.2-0.2,0.4-0.4,0.6c0.5-1.4,0.5-1.8,0.6-2.6L25,5.3c0-0.1-0.2-0.3-0.1-0.5
						c-0.4,0.1,0,0.3-0.3,0.5c-0.1-0.3-0.2-0.4-0.4-0.5c-0.5-0.2-1,0.4-1-0.3c-0.2,0.6,0.4,0.1-0.1,0.8c0-0.5-0.2-0.4-0.3-0.1
						c-0.2,0.3-0.3,0.7-0.4,0.6c0.1-0.8,0.4-0.7,0.1-1c-0.1,0.7-0.2,0.8-0.4,0.8c-0.1,0-0.3-0.1-0.5,0.2c0.1,1-0.5,1.2-0.8,2.2
						c-0.1-0.4-0.9,0.9-1.5,1.5l-0.1-0.1c0.4,0.8,0,1.3-0.2,1.9c-0.4-0.2-0.5-0.4-0.5-0.8L18.2,11c0.2,0.2,0.2,0.4,0.1,0.7L18,11.2
						c-0.3,0.5,0,1.4-0.7,1.9c0.4,0.3,1.6,0.1,1.5,1c-0.3-0.1-0.7-0.3-0.7-0.5c0,0.1,0.1,0.3-0.1,0.4l-0.3-0.5
						c-0.3,0.2,0.3,0.3,0.1,0.6c-0.4-0.2-0.3,0.1-0.6-0.1c0-0.1,0.3-0.1,0.2-0.3c-0.2,0.2-0.6,0.5-0.9,0.5c0.2,0.1,0.5,0.2,0.4,0.5
						c-0.3,0.5-0.5,0-0.9,0.2c0.2,0.3-0.3,0.5,0.3,0.7c-0.1,0.1-0.3,0-0.5,0c0.1,0.2-0.1,0.5-0.1,0.7s0,0.4,0.3,0.5h0.1l0,0l0,0l0,0
						c0,0.5-0.4,0.8-0.8,0.9c-0.5,0.1-0.8-0.1-1.2,0v-0.2c-0.6,0.2-1.3,0.1-1.7,0.5c-0.2,0-0.4-0.4-0.3-0.6
						c-0.2,0.1-0.4,0.1-0.6,0.2c-0.2,0-0.4,0-0.9-0.2c0.5-0.3-0.3-0.3,0.6-0.2c-0.8-0.2-1.2-0.6-1.9-0.1c0.1-0.5-1.1-0.8-1.4-0.7
						l0.9,0.5c-0.4,0-0.8-0.1-1.3-0.2c-0.3-0.5-0.4-0.7-0.5-1c-1-0.5-1.7-0.5-2.1-0.4s-0.6,0.4-1,0.3c0,0.1,0,0.1,0,0.2
						c0,0.1,0,0.1,0,0.2c0,0.1-0.1,0.1-0.4,0.1c0.9,0.9,0.1-0.5,1.2,0.5c0,0.3-0.3,0.4-0.5,0.4c-0.2,0.1-0.5,0.1-0.4,0.2
						c0,0.4,0.4,0.8,0.9,1.3c0.5,0.4,0.9,0.8,1,1.2c0.3,0,1.1,0.3,1.6,1c0.1,0.5-0.9,0.4-1.3-0.1c-0.1-0.2,0-0.2,0.1-0.2
						c-0.2-0.3-0.5-0.6-0.7-0.4l0.3,0.2c-0.2,0.2,0.3,1.3-0.2,1C6,21.8,6,21.5,6,21.1c0,0.9,0.6,1.4,0.8,2.4
						c0.1-0.2,0.3-0.3,0.4-0.2c0.3,1.4,0.7,0.5,1.2,1.3c-0.1,0.6-0.8,0.2-0.3,0.8c-0.1,0.5-0.5,0.3-0.8,0.3c0.7,0.4,0.2,1.2,0.2,1.5
						L7.2,27c0.2,0.1,0.2,0.3,0.2,0.4L7.9,27c0,0.2,0,0.3-0.2,0.4C8,27.5,8.4,27,8.9,27.2c-0.2,0.3,0.4,0.6-0.2,0.8
						c0.1-0.7-0.6,0.2-0.8-0.3C8,27.8,8,27.9,8,28.1c-0.1,0-0.1,0-0.2,0c-0.5,0.6,0.8,0.1,0.8,0.7C8.2,28.7,7.9,28.9,8,29
						c0-0.2,0.6-0.1,0.9,0.2c-0.2,0.2-0.1,0.2-0.1,0.3c0.2,0.1-0.3,0.2-0.4,0.4c0.1-0.1,0.2-0.1,0.4-0.2L9,29.5l0,0
						c0.1,0,0.2,0.1,0.1,0.1c-0.1,0.1-0.2,0.1-0.2,0.2c-0.1,0.2-0.3,0.4-0.4,0.6c-0.5,0,0.1-0.5-0.2-0.3c0.1,0.2,0,0.3-0.1,0.5
						c-0.1,0.1-0.2,0.2-0.3,0.2L7.6,31H7.5H7.4l0,0l0.1,0.1l-0.1,0.1c-0.1,0.1-0.2,0.2-0.3,0.2C7,31.7,6.9,31.8,7,31.8
						C6.5,32,6.1,32,5.8,32.1c0.2,0.1,0,0.2-0.2,0.3s-0.4,0.3-0.3,0.5c0.5-0.3,0.5-0.3,0.7,0c0.1-0.2,0.1-0.5,0.1-0.6
						c0.2,0.1,0.3,0.2,0.4,0.3c0.2-0.2,0-0.4,0.2-0.5c0.3,0,0.2,0,0.8-0.1c-0.6,0.2-0.6,0.3-0.6,0.4c0,0.1,0,0.3-0.4,0.5l-1,0.3
						c-0.4,0.4-0.3,0.6-0.3,0.8s-0.1,0.4-0.4,0.5c0.1,0,0.1-0.1,0.2-0.1s-0.3,0.1-0.4,0H4.5v0.1c0.1,0,0.2,0.4,0.6,0.3
						c0,0.1,0,0.2-0.1,0.3c0.1,0.2,0.4,0.2,0.8,0.1c0.4-0.1,0.9-0.3,1.1-0.2c-0.4,0.2-0.5,0.3-0.8,0.4c-0.2,0.1-0.4,0.2-0.7,0.2
						c0.1,0.1,0.1,0.3,0.4,0c-0.2,0.2,0.2,0.1,0.5,0s0.5-0.1,0.4,0C7.1,35.4,7.7,35,8,35c-0.1,0.1-0.3,0.2-0.3,0.2
						C8,35.1,8.7,35,9,34.5c-0.4,0.7,0.5,0.6,1.5,0.5c1-0.2,1.7-0.2,2.1,0.4c0.4,0,0.6,0,1,0c0.3,0,0.6,0.1,0.9,0.1
						c-0.1,0.1,0,0.2-0.1,0.1c0.2,0.2,0.3,0,0.5-0.3c0.2-0.2,0.5-0.5,0.7-0.1c-0.1,0.7-0.5,0.2-0.5,0.5c-0.3,0.6-0.2,0.6,0,0.6
						s0.4,0.1,0.2,0.4h-0.1c-0.2,0.2,0,0.2,0.2,0.3c0.3,0.2,0.6,0.5,0.6,0.9c0,0-0.1,0-0.2,0.1c0.8,0.3,1.3,1.1,1.7,1.7
						c-0.6,0-0.4-0.2-0.8,0.1c0.2,0.3,0.8-0.4,1.1,0.2c-0.2,0.3-0.3,0.8-0.8,1l-0.2-0.5c-0.6,0.5,0.3,0.7,0.3,1.1l-0.3,0.1
						c0.2,0.4,0.5,0.6,0.8,0.7c0.1,0.1,0.3,0.2,0.4,0.3c0.2,0.2,0.2,0.4,0.6,0.9c0-0.1,0-0.2,0-0.3c0.6,0.2,0.8,0.3,1.1,0.5
						c0.1,0.1,0.4,0.1,0.4,0.1c0.1,0,0.1-0.1,0.2-0.2c0.1,0.2,0.1,0.5,0.2,0.8c0,0,0,0,0.1-0.1s0.2-0.2,0.5-0.4c0.4,0,0.8-0.2,1-0.4
						s0.3-0.4,0.4-0.5c0,0.3,0,0.8-0.8,1.2c-0.2,0.1-0.4,0.1-0.7,0.1c-0.1,0-0.1,0.1-0.2,0.1c-0.1,0.1-0.1,0.1-0.2,0.2h0.1h0.1l0,0
						H21c0.1,0,0.3,0,0.4,0c0.5-0.1,0.9-0.3,1-0.5c0.2-0.2,0.2-0.3,0.2-0.4c-0.1,0.2-0.3,0.6-0.8,0.6c0.5-0.5,0.6-1,0.7-1.2
						c0.1-0.3,0.2-0.5,0.5-0.6c0.4,0.4,0.6,0.4,1,0.4c0.3,0,0.8,0,0.9,0.6c0.4-0.2,0.9-0.1,1.3,0.2s1,0.7,1.6,0.9
						c0-1.3,0.4,0.1,0.8-1c0.3,0.1,0.4,0.1,0.4,0.2c0.1,0.2,0.2,0.3,0.3,0.5l0.5,0.7c0.2,0.6-0.5,0-0.6,0.3c0.5,0.4,0.6,0.6,0.6,0.8
						s0,0.4,0.4,1c-0.1-0.7,0.5-0.1,1.2,0.6c-0.3-0.5-0.6-1-0.9-1.6c0.8,0.4,1,0.8,1.4,1.4c0.3,0.5,0.8,1,1.2,0.7l-0.3,0.5
						c0.3-0.1,0.8,0,1-0.1c0.2,0,0.9-0.3,1-0.9c0.2,0.1,0.5,0.3,0.2,0.5c0.4-0.1,0.8-0.5,1.1-0.8c0.3-0.4,0.4-0.8,0.4-1.2
						c0.1-0.8,0-1.7,0.4-2.2l0.3,0.4c-0.1-0.5-0.6-1-0.3-1.3c0.1,0.1,0.3,0.3,0.3,0.1c-0.1-0.3-0.6-1.3-0.5-1.8l0.4,0.5
						c0.1-1-0.1-2.1-0.4-2.3c-0.3-0.4-0.6-0.8-0.7-1.3c0.9,0,1.2-0.9,1.3-1.3h0.1c0.2-1.3-0.6-2.2-0.7-3.4c0.5-0.2,0.8-0.7,1.1-1.1
						c0.3-0.4,0.6-0.8,0.9-0.7c-0.2-0.1-0.4-0.5-0.4-0.7h0.1l0,0l0,0l0,0l0,0c0.1-0.1,0.2-0.2,0.3-0.3c0.2-0.2,0.4-0.2,0.7,0.1h-0.2
						c1,0.5,2.2,0,3.6,0c-0.4-0.3-0.9-0.6-1.3-0.9c2.2,0.4,4.7,0.4,6.6,0.3c-1.3-1.3-1.7-1.5-0.2-1.5c-0.3-0.1-0.4-0.2-0.5-0.2
						l-0.1-0.1c-0.1-0.1-0.3-0.2-0.5-0.3l0.9,0.1c-0.6-0.9-0.9-1.2-2-2.1l0.8,0.2c-0.4-0.5-3.1-0.5-3.7-0.8c0.4-0.1,0.8-0.2,1.1-0.3
						C43.4,25,43,24.5,42.2,24c-0.7-0.5-1.9-0.9-3-1.1c0.1-0.1,0.3-0.2,0.7-0.1c-0.2-0.1-0.5-0.3-0.7-0.6c-0.1-0.1-0.2-0.3-0.3-0.3
						c-0.1-0.1-0.3-0.2-0.8,0.2c0.3-0.2,0.2-0.4,0.1-0.4c-0.1,0-0.5-0.1-0.6-0.2c0.2,0,0.4,0,0.6-0.1c-0.6,0-0.9-0.1-1.1-0.4
						c0,0,0-0.1-0.1-0.1c0.1-0.1,0.5,0,0.3,0.1c0.2-0.1,0.1-0.2-0.1-0.3c-0.1-0.1-0.2-0.2,0.1-0.6l0.2,0.4c0.3-0.7,0.2-0.8-0.1-1.2
						c-0.1-0.4,0.6-1.2,1.1-1.4c-0.3-0.1-0.6-0.3-0.3-0.7c0.2-0.1,0.3,0,0.3,0.1c0.4-0.6,0.4-1,0.3-1.3c0-0.3-0.1-0.5,0.4-1.1
						c0.2-0.1,0.3-0.2,0.4-0.3c-0.3,0.9-0.6,1.7-0.6,1.6c0.6-0.2,0.9-1.1,1.5-0.7c-0.1-0.3-0.3-0.6-0.4-0.9C40,14.3,40,14,40.2,13.5
						c0.1-0.1,0.1-0.2,0.2-0.2l0,0c0.1-0.2,0.1-0.3,0.1-0.4c0.2-0.3,0.3-0.5,0.4-0.8c0.9-0.8-0.5-0.5-0.7-0.5c-0.6,0.6-0.9,0.5-1,1
						c0,0,0.1-0.1,0.4-0.1c0.1,0,0.2,0,0.2-0.1c0,0-0.1,0-0.1,0.1c0.1,0,0.3,0,0.5,0h0.1v0.1c0,0.1-0.1,0.2-0.1,0.3
						c-0.1,0-0.1,0-0.2,0c-0.1,0,0-0.1-0.2,0s-0.4,0-0.4-0.1c-0.6,0.4-1.1,0.8-1.4,1c0.4-0.7,0-1.1,0.3-1.6
						c-0.6,0.3-1.3,0.4-2.1,0.7s-1.7,0.9-2.2,1.7c-0.4,0.3-0.3-0.2-0.5-0.3c0.2-0.2,0.5-0.3,0.7-0.5c-0.2,0.2-0.5,0.3-0.8,0.4
						c-0.3,0.1-0.5,0.2-0.8,0.3s-0.5,0.2-0.6,0.6c-0.5-0.4,0.3-0.7-0.4-0.6l0.1-0.2c-0.6-0.7-1.1-0.3-1.9-0.2
						c-0.7,0.2-1.6,0.1-1.8-1c0,0.1,0,0.2,0,0.3c-0.5-0.8-1.2-1.4-1.8-2.3c-0.6-0.8-1-1.8-0.7-2.9c0.1-0.6-0.4-0.5-0.8-0.8l0.6-0.2
						C25,7,24.8,6.9,24.6,6.7C24.9,6,25.7,5.5,26,4.9l1.2-2.2l-3.5,0.9c-0.4,0.1-0.7,0.3-0.8,0.9l0.4,0.2c-0.4,0.2-0.9,1.2-1.2,0.8
						c0,0.1,0.2,0.4-0.1,0.4l-0.3-0.2c-0.1,0.4-0.2,0.8-0.2,1.2c-0.3,0.3-0.6,0.1-0.8,0c-0.3-0.1-0.6-0.2-0.9,0.5
						C19.7,8,20.2,9.1,20.4,9c0.1-0.2,0.3-0.4,0.6-0.3c0,0.1,0,0.3,0,0.4c0.9,0.4,1.7,0.7,2.6,0.3c-0.1-0.2-0.2-0.4-0.3-0.7l0.5,0.1
						c-0.1,0.1-0.1,0.2-0.1,0.4c0.5,0,0.2-0.3,0-0.6c0.2,0.1,0.4,0.1,0.5,0.1c-0.2-0.3-0.3-0.6-0.5-0.9C24,8,24.2,8.4,24.5,8.3
						c-0.2-0.4-0.8-0.3-0.8-0.8c0.5,0.1,0.7,0.4,0.6-0.1c0.2,0.1,0.3,0.3,0.3,0.4c-0.1-0.4,0.3-0.5,0.1-1c0.4,0.2,0.5-0.3,0.8-0.2
						l-3.3-1.9c-0.1,0.1-0.2,0.1-0.4,0.1c0.2,0.1,0.7,0.7,0.7,1.1c-1.1-0.6,0,1.3-1.1,1.2c1,0.4,0.6,1.8,1.4,2.5
						c-0.1,0-0.3-0.1-0.2-0.2c0,0.5-0.2,0.7-0.2,1.1c0.8-0.2,1.2,0.5,1.8,0.6c-0.4,0.9-1,0-1.6,0.5c0.6-0.3,1,0.7,1.4,0.3
						c-0.2,0.6,0,0.5-0.5,1c0.9-0.4,0.4,0.3,1.1,0.3c0,0.8-0.6,0.7,0.1,1.1C24.9,14.9,24.2,14.5,24.2,14.5z M36.1,17L36.1,17
						C36.1,17,36.1,16.9,36.1,17C36.1,16.9,36.1,17,36.1,17z M35.9,17.6c0.1-0.1,0.1-0.2,0.1-0.3c0.3-0.2,0.6-0.4,0.5-0.3
						C36.4,17.1,36.1,17.4,35.9,17.6z M41.5,11.7c0.1,0,0.2,0,0.2,0c0.1,0,0.1,0,0,0.1s-0.1,0.2-0.2,0.3V12l0,0h-0.1
						c-0.1,0-0.2,0-0.3,0.1c0,0-0.1,0-0.1,0.1C41.2,11.9,41.3,11.8,41.5,11.7z"/>
					<path class="st0" d="M40.2,12.5L40.2,12.5l-0.1,0.1c0.1-0.1,0.2-0.1,0.3-0.2C40.3,12.5,40.2,12.5,40.2,12.5z"/>
					<path class="st0" d="M16,16.6L16,16.6L16,16.6L16,16.6z"/>
					<polygon class="st0" points="37.3,27 37.6,27 37.4,27 					"/>
					<path class="st0" d="M20.8,11.7h0.1C20.9,11.8,20.8,11.7,20.8,11.7z"/>
					<path class="st0" d="M21.7,10.2c0.1,0,0.1,0,0.2,0.1C21.8,10.2,21.8,10.2,21.7,10.2z"/>
					<path class="st0" d="M22.4,9.5c0-0.2,0-0.4,0-0.5l0,0V9.5z"/>
					<path class="st0" d="M12.5,30.5L12.5,30.5C12.6,30.6,12.6,30.6,12.5,30.5z"/>
					<path class="st0" d="M8.6,20.5c0.2,0.1,0.3,0.3,0.5,0.4C9,20.8,9,20.7,8.6,20.5z"/>
					<path class="st0" d="M13,31.2L13,31.2L13,31.2L13,31.2z"/>
					<path class="st0" d="M9.2,21.2c0.1-0.1,0-0.2-0.1-0.3C9,21,9,21.1,9.2,21.2z"/>
					<path class="st0" d="M24.1,12.7v0.1h0.1L24.1,12.7z"/>
					<path class="st0" d="M24.2,12.8l0.1,0.1C24.3,12.8,24.3,12.8,24.2,12.8z"/>
					<path class="st0" d="M24.6,13l-0.3-0.2C24.4,12.9,24.4,13.1,24.6,13z"/>
					<path class="st0" d="M23.6,10.8L23.5,11C23.5,11,23.5,11,23.6,10.8z"/>
					<path class="st0" d="M23.7,10.5c-0.1,0.2-0.4,0.9-0.3,0.8l0.1-0.2c-0.1,0.2,0-0.1,0.1-0.3C23.7,10.5,23.8,10.3,23.7,10.5z"/>
					<path class="st0" d="M23.9,4.2c0.1,0,0.3,0.1,0.4,0.1c0.1,0.1,0.3,0.1,0.4,0.2c-0.1-0.3-0.2-0.6,0.2-0.5
						c-0.7-0.8-0.2,0-0.5,0.1C24.3,4.2,24.2,4.2,23.9,4.2z"/>
					<path class="st0" d="M22.1,5c0.2-0.4,0-0.4,0-0.6C21.9,4.8,21.9,5,22.1,5z"/>
					<path class="st0" d="M11.8,17l0.1-0.5C11.4,16.6,11.9,16.7,11.8,17z"/>
					<path class="st0" d="M9.8,19.5l0.5,0.4c-0.1-0.2-0.2-0.3-0.3-0.5C9.9,19.4,9.9,19.5,9.8,19.5z"/>
					<path class="st0" d="M2.7,14.8l0.1-0.1L2.7,14.8c0,0.2,0.1,0.3,0.3,0.6C2.8,15.1,2.7,15,2.7,14.8L2.7,14.8z"/>
					<path class="st0" d="M11.4,35.9c0-0.2,0.1-0.4,0.1-0.6C11.1,35.4,10.6,36.1,11.4,35.9z"/>
					<path class="st0" d="M18,43.4c0,0.2,0.1,0.6,0.6,1c0.3,0.2,0.6,0.3,1,0.2c0.3,0,0.7-0.2,0.6-0.2l0,0H20c-0.1,0-0.3,0-0.5,0
						c-0.3,0-0.6-0.2-0.8-0.3C18.3,43.8,18.2,43.5,18,43.4z"/>
					<path class="st0" d="M44.8,30.6c-0.1,0.1-0.3,0.1-0.4,0.2l1.2-0.2H44.8z"/>
				</g>
			</g>
		</g>
	</g>
</g>
<path class="st1" d="M44,27c-0.2,1.1-4.5-0.2-7,2c-4.4,3.9,0.1,15.3-2,16c-1,0.3-1.9-2.2-6-4c-1.4-0.6-2.5-1.1-4-1
	c-2.8,0.2-3.7,2.4-5,2c-2-0.6-0.4-5.7-3-8c-3.4-3.1-11.7,0.9-12,0c-0.2-0.7,4.8-1.6,6-5c1.7-4.6-5.3-10.7-4-12c0.8-0.9,3.7,2,7,1
	c0.6-0.2,2-0.7,4.8-5C22.2,7.7,23,3.8,24,4c1.2,0.2-0.1,5,3,8.3c0.1,0.1,2.6,2.7,6,2.7c3.3,0,5.4-2.5,6-2c0.8,0.7-3.9,4.6-3,8
	C37,24.8,44.2,25.7,44,27z"/>
</svg>
