<?xml version="1.0" encoding="utf-8"?>
<!-- Generator: Adobe Illustrator 21.1.0, SVG Export Plug-In . SVG Version: 6.00 Build 0)  -->
<svg version="1.1" id="Layer_1" xmlns="http://www.w3.org/2000/svg" xmlns:xlink="http://www.w3.org/1999/xlink" x="0px" y="0px"
	 viewBox="0 0 50 50" style="enable-background:new 0 0 50 50;" xml:space="preserve">
<style type="text/css">
	.st0{fill:#E42020;}
	.st1{fill:#E00000;}
</style>
<g>
	<g>
		<g>
			<g>
				<g>
					<path class="st0" d="M23.6,9.2c-0.2-0.1-0.8-0.2-0.7,0l0.9,0.4L23.6,9.2z"/>
					<path class="st0" d="M21.5,10.1c0.4,0.4,1.1,0.9,2,1c-0.8-0.5-0.4-0.5-1.5-1c-0.1-0.2,0.4-0.3,0.7-0.1
						c-0.2-0.1,0.3-0.3-0.3-0.5c-0.8,0.1-0.9,0.4-0.4,0.9C21.9,10.3,21.6,10.2,21.5,10.1z"/>
					<path class="st0" d="M6.1,16.3l0.1-0.1C6.1,16.2,6.1,16.3,6.1,16.3z"/>
					<path class="st0" d="M8.3,28.9c0-0.1-0.1-0.1-0.2-0.1C8.1,28.9,8.2,28.9,8.3,28.9z"/>
					<path class="st0" d="M7.2,30.8c0,0,0-0.1,0.1-0.1C7.2,30.7,7.1,30.7,7.2,30.8z"/>
					<path class="st0" d="M6.1,16.3c-0.1,0.1-0.2,0.2-0.3,0.3C6.1,16.7,6,16.5,6.1,16.3z"/>
					<path class="st0" d="M22.5,13.8c0-0.1,0-0.2-0.1-0.3c0,0.1,0,0.2,0,0.2C22.5,13.8,22.5,13.8,22.5,13.8z"/>
					<path class="st0" d="M9.2,11.1l0.1,0c0-0.1,0-0.2-0.1-0.4L9.2,11.1z"/>
					<path class="st0" d="M14.5,12.6c-0.1-0.1-0.3,0.7-0.4,1.1c0.1-0.3,0.2-0.5,0.4-0.5C14.4,13,14.4,12.8,14.5,12.6z"/>
					<path class="st0" d="M19.1,12.8l0-0.1C19.1,12.7,19.1,12.8,19.1,12.8z"/>
					<path class="st0" d="M6.1,12.9c-0.1-0.1-0.2-0.1-0.2-0.2C5.9,12.8,6,12.8,6.1,12.9z"/>
					<path class="st0" d="M13.1,18.9c0-0.1,0-0.1,0-0.1C13.1,18.8,13.1,18.8,13.1,18.9z"/>
					<path class="st0" d="M9.3,13.6L9.3,13.6c0.1-0.2,0.2-0.3,0.2-0.5L9.3,13.6z"/>
					<path class="st0" d="M5.8,34.8C5.8,34.8,5.8,34.8,5.8,34.8C5.8,34.7,5.8,34.7,5.8,34.8z"/>
					<path class="st0" d="M36.2,35.2c-0.4-0.1-0.6-0.2-0.8-0.3c-0.2-0.1-0.4-0.3-0.9-0.3c0.2,0,0.4,0.2,0.8,0.4
						C35.6,35.1,36,35.2,36.2,35.2z"/>
					<path class="st0" d="M22.4,13.9c0,0.1-0.1,0.1-0.1,0.2C22.3,14,22.4,14,22.4,13.9z"/>
					<path class="st0" d="M34.5,34.6L34.5,34.6L34.5,34.6C34.4,34.6,34.5,34.6,34.5,34.6z"/>
					<path class="st0" d="M12.3,42.5c0.1-0.1,0.1-0.3,0.2-0.4C12.4,42.2,12.3,42.2,12.3,42.5z"/>
					<path class="st0" d="M8.4,38c0,0.1,0,0.2,0,0.3C8.4,38.2,8.4,38.1,8.4,38z"/>
					<path class="st0" d="M19,43.3c0.1,0,0.2,0.1,0.3,0c0,0,0-0.1-0.1-0.1C19.2,43.4,19.1,43.4,19,43.3z"/>
					<polygon class="st0" points="22.8,41.3 22.7,41.2 22.6,41.3 					"/>
					<path class="st0" d="M24.9,11.4c-0.3,0-0.5-0.1-0.8-0.1C24.7,11.5,24.7,12.1,24.9,11.4z"/>
					<path class="st0" d="M22.1,13.6c0.2,0.1,0.2,0.2,0.2,0.3c0-0.1,0-0.1,0-0.2C22.3,13.7,22.2,13.6,22.1,13.6z"/>
					<path class="st0" d="M17.2,36.9c0.1,0,0.2,0,0.3,0C17.4,36.9,17.3,36.9,17.2,36.9z"/>
					<path class="st0" d="M34.6,16.2L34.6,16C34.5,16,34.6,16.1,34.6,16.2z"/>
					<path class="st0" d="M18.2,36.5c0.2,0.2,0.3,0.3,0.5,0.4c0-0.1,0-0.1-0.1-0.2C18.4,36.6,18.3,36.5,18.2,36.5z"/>
					<path class="st0" d="M24.1,11.3L24.1,11.3L24.1,11.3z"/>
					<path class="st0" d="M23.6,16.3c0.6-0.9-0.6-1-1-1.6c0-0.1,0.1-0.2,0.1-0.3c0,0,0.1-0.1,0.1-0.1c0.1,0,0.2,0,0.4,0.1
						c0.3,0.1,0.6,0.4,0.9,0.4c0-0.6-0.7-1.4-0.5-1.6c0.2,0.1,0.3,0,0.4,0.2c-0.6-0.8,0.6-1.3-0.2-2.3c0.1,0,0.2,0,0.3,0
						c-0.5-0.1-1.1-0.4-1.4-0.5c0.1-0.2-0.5-0.7,0.2-0.5c-0.1,0.1,0.2,0.3,0.4,0.4l-0.2-0.4c1.1,0.2,0.2,0.5,0.9,0.8
						c-0.1-0.6-0.7-1.5-0.3-1.8c1,0.3,0,1,1,0.8l-0.6,0.5c1.7,0.1-0.3,0.3,1.5,0.6c0.3-0.4,0.3-0.6,0.2-0.9c0-0.1,0-0.3,0-0.4
						c0-0.1,0-0.2,0.1-0.2c0,0,0-0.1,0.1-0.1l0-0.1l0,0l0,0l0,0l0,0l0,0l0,0c1.3-0.4-11.2,3.8-5.9,2l0,0c0.4-0.4,0.4-0.7,0.8-1.1
						c0.6-0.2,0.3,0.4,0,0.9c-0.3,0.5-0.7,0.9,0,0.7c0.6-0.4,1.6-1.2,1.4-0.4l-1,0.6c0.3,0.5,1.5-0.8,1.3,0.2
						c-0.4,0.2-0.6-0.2-0.7,0c-0.4,0.9,0.7-0.2,0.9,0.1l-0.8,0.7c0.6,0.5,1.7,0.8,2.6,1.5c-0.3,0.2-0.6,0.2-0.7,0.6
						c0.7,0.4,1.2,0.9,1.8,1.5c0.3,0.3,0.7,0.7,1,1c0.4,0.4,0.8,0.7,1.2,1c0.3-0.2,0.6-0.4,0.9-0.7c0.1,0,0.2,0.5,0,0.6
						c0.7,0.5,0.1-0.5,0.5-0.8c0.4,0,0.5,0.6,0.2,0.8c0.7-0.3,1.6-0.7,2.4-1.1c0.7-0.3,1.4-0.6,2.1-0.5l-0.1,0.4
						c1.1-0.2,0-2.1,0.9-1.7l0,0.2c0.7-0.2,1.1-0.6,1.5-0.8c0.2-0.1,0.3-0.1,0.4,0c0,0,0.1,0.2,0,0c0,0,0-0.2,0-0.2c0,0,0,0,0,0l0,0
						l0,0l0.1-0.7l0-0.2c0-0.2,0.1-0.4,0.1-0.5c0.1-0.3,0.2-0.4,0.2-0.5c0-0.1,0.1-0.2,0.1-0.1c0,0-0.1,0.1-0.3,0.1
						c-0.1,0.1-0.3,0.1-0.6,0.2c-0.2,0-0.4,0.1-0.6,0.1c-0.2,0-0.2,0-0.2,0c0,0,0,0,0,0l-0.1,0c-0.1,0-0.1,0-0.1,0.1
						c-0.1,0-0.2,0.1-0.3,0.1c-0.2,0-0.3,0.1-0.4,0.1C35,14,34.7,14,34.4,14.2c-0.1,0.1,1.1,0.4,1.2,0.8l-0.9-0.2
						c0.3,0.2,0.6,0.4,0.9,0.6c-0.4,0-0.8,0-1.1,0.1l0.2,0.4c0.1-0.2,0.5-0.3,0.7-0.2c0.2,0.3-0.1,0.7-0.4,1
						c-0.3,0.3-0.7,0.6-0.9,0.6c0.2,0.7,0.6,1.4,0.9,2c-0.4,0-0.6-0.3-0.8-0.5c1.1,0.9-0.9,0.4,0.1,1.2c0.2-0.2,0.5-0.1,0.7-0.1
						c-0.4,0.6,0,1.7,0.5,2.2l-0.6,0.2c0.1,0.3,0.3,0.6,0.5,0.9c0.1,0.1,0.2,0.3,0.3,0.4l0.2,0.2c0,0,0.1,0,0.1,0.1
						c0.1,0.1,0.2,0.1,0.2,0.1c0.1,0,0.1,0,0.2,0.1c0.3-0.2,1.3-0.6,1.5-0.6c-0.3,0.1-0.6,0.3-1,0.4c0.7-0.2,0.3-0.2,1.2-0.4
						c0,0.2-1.1,0.4-1.5,0.5c0.1,0,0.3,0,0.5,0c-0.3,0.1-0.5,0.1-0.9,0.2c0.3-0.1,0.1,0-0.1,0.1c-0.2,0.1-0.4,0.1,0.3,0l-0.4,0
						c0,0,0.6,0.1,0.6,0.2c1.2,0.2,1,0.2,1.9,0.5c-0.6,0.1-1.6-0.2-1.7-0.1c0.3,0.3,0.7,0.4,1.1,0.7c-0.8-0.4-0.9-0.3-1.3-0.7
						c0,0.1-0.1,0.2-0.1,0.3c0,0.1,0,0.3-0.1,0.7c0.2,0.2,0.4,0.3,0.5,0.5c0,0.1-0.5,0-0.7-0.4l0-0.1c-0.3,0.9-1.2,0.9-2.1,1
						c-0.9,0.1-1.8,0.4-1.7,1.4l0-0.1c-0.1,0.5-0.1,1-0.2,1.4c-0.5,0.3-0.2-0.6-0.8-0.6c0,0.5,0,0.8-0.2,1c-0.1,0.2-0.3,0.4-0.6,0.7
						c-0.5,0.5-1,1.1-0.8,1.9c-0.3,0-0.6,0.2-0.8,0.3c-0.3,0.3-0.5,0.7-0.6,1.2c0,0.2,0,0.5,0,0.8c0,0.3,0.1,0.4,0.1,0.5
						c0.1,0.5,0.2,0.9-0.5,1.1l0.5,0c0.5,0.2-0.3,0.2-0.5,0.3c0.4,0,0.5-0.1,0.8,0c0.2,0.8-0.2,1.7-0.7,2.3l-0.1,0.1
						c0,0,0,0-0.1,0.1c0,0,0,0,0,0l0.6,0.2c0.7,0.3,1.1,0.4,1.4,0.6c0.3,0.1,0.5,0.2,0.6,0.3c0.3,0.2,0.3,0.3,0.3,0.3s0,0,0-0.2
						c0-0.2,0.2-0.5,0.4-0.8c0.3-0.4,0.6-0.9,1.5-1.8l0.4-0.5c0,0,0,0,0,0c0,0,0,0,0-0.1c0,0-0.1-0.1-0.1-0.1
						c-0.1-0.2-0.3-0.4-0.4-0.5c-0.9-0.9-2.2,1.7-2.6-0.1c0.3-0.2,0.6-0.4,0.9-0.6c-1.3-0.1-2.2-0.6-3-1c-0.2-0.1-0.4-0.2-0.6-0.3
						L27,35.1l-0.5-0.2c-0.7-0.2-1.3-0.3-2-0.2c0.2-0.2,0.2-0.5,0.4-0.4c-0.2-0.4-0.8-0.5-1.2-0.4c-0.4,0.1-0.8,0.5-0.7,0.8
						c-0.4,0-0.2-0.5-0.5-0.8c-0.3-0.2-0.6,0.1-0.9,0.4c-0.2,0.3-0.4,0.6-0.7,0.3c-0.1-0.1,0.1-0.3,0.1-0.4
						c-0.2,0.4-1.5,0.8-0.8,1.4c-0.5,0.1-0.8,0.5-1.1,0.9c-0.2,0.2-0.2,0.3-0.3,0.3c-0.1,0-0.1,0-0.3,0c0.4,0.9-0.7-0.1-0.1,1.1
						c-0.6-1.2-0.9-0.8-1-0.1c-0.1-0.4-0.3-0.4-0.4-0.9c0,0,0,0-0.1,0l0,0l0,0l0,0l0.1,0.5l0,0l0,0l0,0l0,0l0,0l0,0
						c0-0.1,0-0.2-0.1-0.2c0,0.3,0.1,0.5,0.1,0.7c-0.1-0.4-0.1-0.5-0.1-0.5c0,0,0,0.1,0,0.4c-0.1,0.5-0.2,1-0.4,1.3
						c-0.1,0.1-0.1,0.3-0.2,0.3l-0.1,0.1l0,0l0,0l0,0l0,0l0,0l0,0l0,0c0.8-0.7-1.7,1.5,1.7-1.5l0,0l0,0c0.1,0.1,0.3,0.2,0.1,0
						c-0.1-0.1-0.2-0.2-0.3-0.4c-0.4-0.4-0.7-0.7-1.2-1c-0.5-0.3-1-0.4-1.5-0.5c0.4-0.6,0.8-0.5,1.2-0.3c0.4,0.2,0.8,0.5,1.2-0.1
						c-0.8-0.4-1.7-0.4-2.4-0.2c-0.4,0.1-0.7,0.1-1.1,0.2c-0.2,0-0.4,0-0.5,0c-0.1,0-0.5-0.1-0.4-0.1c0-0.1,0.1-0.2,0.1-0.4
						c0-0.1,0-0.2,0.1-0.2c0.1-0.1,0.2-0.1,0.3-0.2c-0.1,0-0.3,0-0.3,0.1l0,0.1l0,0l0,0l-0.3,0.9l0,0l0,0c0-0.1,0-0.1,0.1-0.2
						c0.1-0.1,0.2-0.3,0.3-0.5c0.1-0.1,0.1-0.1,0.1-0.1c0,0,0,0-0.1,0c-0.1,0-0.2,0-0.4,0c0.1-0.1,0.2-0.1,0.4-0.1
						c-0.1,0,0.1-0.2-0.4,0.1c0.1,0,0.1,0,0.2,0c-0.4,0.2-0.8,0.4-1.3,0.4c-0.4,0-0.8-0.1-1.1-0.1c1.8-0.2,0.3-0.7,2.6-0.7
						c-0.1,0-0.4-0.1-0.8,0c0.1-0.1,0.3-0.2,0.8-0.1c-0.4-0.3-1-0.2-1-0.6c0.3,0,0.4,0.1,0.8,0.2c-0.6-0.2-1.1-0.5-0.8-1
						c0.2,0,0.4,0,0.4,0.1c0-0.8-1.4-1.6-0.8-2.6c1.3,0.4,0.4-0.3,1.6-0.4L13.1,30l-0.5,0.2c0-0.5-0.8-0.9-0.5-1.3l0.5,0.3
						c-0.1-0.3-0.2-0.6-0.3-0.9l-0.4,0.5c-0.6-0.4-1.4,0.1-1.1-0.5c0.1,0.1,0-0.5,0.6-0.8l0,0c-0.4-0.2-0.8-0.4-0.6-0.8
						c0.3-0.1,1.2-0.1,1.5-0.2c-1-0.1-0.4-1.1-1.5-1.2c0.2,0,0.8-0.1,0.9-0.1l-0.8,0c0.2-0.3,0.3-0.3,0.8-0.4c0-0.7-1.3,0.5-0.9-0.4
						c0.1,0,0.2,0,0.3,0.1c0.1-0.9-0.9-1.3-0.7-2.1c1-0.6,0.5,0.5,1.3,0c-0.3-0.5-0.8-0.9-1.2-1.2c-0.2-0.2-0.4-0.4-0.6-0.6
						c-0.1-0.1-0.2-0.3-0.2-0.5l-0.1,0.1c-0.8,0.1-0.7-0.1-0.4-0.3c0.3-0.2,0.6-0.4,0.2-0.5c0.1,0.1,1,0.1,0.8,0.1
						c0.2-0.3-0.4-0.6-1-1.3C9.1,18.2,9,18.1,8.9,18l0.5,0.3c0.4-0.1,0.2-0.5,0.4-0.6c-0.5-0.4-0.4-0.5-1.1-0.9c1.4,0.5,1.1,0,1-0.7
						c-0.1-0.4-0.1-0.8,0-0.9c0.2-0.2,0.5,0,1,0.6c-0.1,0,0.1,0.5,0.1,0.5c0.1-0.2,0.2-0.4,0.3-0.5c-0.5-0.9-0.3-0.6-0.8-1.3
						c-0.2-0.5-0.1-0.9,0.1-0.8c-0.1,0.5,0.6,1.5,0.9,2c-0.1-0.3-0.2-0.6-0.3-0.8c0.9,1.7-0.5-1.7,0.4-0.4l0.1,0.4
						c0.1-0.1,0.2-0.6,0.5-0.4c0.2,1-0.2,0.3,0,1.1c0.1,0,0.2-0.3,0.3-0.6c0.1-0.2,0.3-0.3,0.4,0.2c-0.1,0.2-0.3,0.1-0.4,0.3
						c0.4,1.2,0.3,0.9,0.5,1.1l0,0c0.1,0.2,0.2,0.4,0.3,0.6l-0.1-0.3c0.2-1,0.5-1,0.7-1c0.2,0.1,0.5,0.2,1-0.3
						c-1,1.1-0.3,0.7-0.5,1.6c0.2,0.3,0.5,0.7,0.4,0.9c0.3-0.3,0.5-0.2,0.7,0c0.2,0.1,0.5,0.2,0.8-0.3c0,0.3,0.5,0,0.4,0.7
						c0.6-0.3-0.2-0.5-0.2-0.9c0.3-0.4,0.7-0.4,1.1-0.3c0.7,0.1,1.7,0.2,1.9-0.9c0.6-1.1,0-2,0.1-2.8c0.5,0.1,0.7,0.8,0.7,0.8
						c0.6-0.1,0.8-0.4,0.7-1c0.2,0.2,0.4,0.2,0.8,0.3c0.1-0.4-0.8-0.7-0.2-0.9c0.3,0.2,0.7,0.5,0.9,0.9c0-0.5-0.4-1.1-0.5-1.6
						c0.5,0.1,0.6,0.5,0.9,0.8c0-0.6,0-1.3-0.7-1.7l-0.4,0.2c0-0.2,0.7,0.1,0.8,0.3c0.5,0.6-0.5,0.4-0.7,0.3l-0.1-0.3
						c-0.9-0.2-0.9,0.1-0.7,0.5c0.1,0.4,0.4,0.9,0.2,1.1c-0.3-0.3-0.6-0.5-1-0.8c0.2,0.3,0.4,0.6,0.6,1c-0.3-0.1-1-0.4-1-0.7
						c-0.7-0.1,0.2,0.5-0.5,0.4c-0.1,0-0.1-0.1-0.2-0.1c0,0.2,0.1,0.3,0.1,0.5c-0.2-0.2-0.7-0.5-0.4-0.6c-0.4,0-0.4,0.2-0.4,0.5
						c0,0.3,0,0.5-0.3,0.2l0-0.1c-0.1,0.4-0.1,0.6,0.1,0.9c0.2,0.3,0.4,0.6,0.3,1.2c-0.5-0.6-0.9-1.2-1.3-1.9l0.3,0.9
						c-0.1,0-0.3,0-0.3-0.4c-0.1,0.7,0.2,0.4,0.2,1c-0.1-0.1-0.2-0.1-0.2-0.2c-0.4-0.2-1,0.5-1.1-0.7c-0.1,0.7,0.4,0.5,0,1
						c-0.1-0.8-0.2-0.7-0.3-0.6c-0.2,0.2-0.4,0.4-0.5,0c0.3-0.8,0.4-0.3,0.3-1.1c-0.4,1.3-0.4-0.4-1-0.4c-0.2,1.1-1,0.1-1.6,0.2
						c0-0.4-1.3-1.2-2-1.8l0-0.2c0.2,1.2-0.4,0.8-0.7,0.9c-0.3-0.7-0.3-0.9-0.2-1.2c-0.1,0-0.3,0-0.4,0c0,0.3,0,0.5-0.2,0.6L8.9,11
						c-0.6,0.1-0.7,1.1-1.6,1.2c0.2,0.3,0.7,0.6,1,1c0.3,0.3,0.7,1,0.8,1.5c-0.2-0.2-0.5-0.6-0.7-0.9C8.1,13.7,8,13.5,8,13.3
						c0,0.1,0.1,0.4-0.1,0.4c-0.1-0.3-0.2-0.5-0.2-0.8c-0.4,0,0.2,0.6,0.1,0.7c-0.4-0.5-0.4-0.2-0.7-0.5c0-0.1,0.3,0,0.2-0.3
						c-0.3,0.2-0.7,0.2-1.1,0c0.3,0.2,0.6,0.6,0.5,0.8c-0.2,0.6-0.6-0.3-1-0.2c0.3,0.4-0.2,0.5,0.5,1.1c0,0.2-0.4,0-0.6-0.1
						c0.2,0.5-0.2,1.6,0.8,1.7l0.1,0c0,0,0,0,0,0.1l0,0l0,0c0.3,0.5,0.3,0.8,0.3,1.2c-0.1,0.6-0.5,1.2-0.1,1.9l-0.3,0
						c0.5,0.6,0.6,1.4,1.3,1.7c0.1,0.2-0.4,0.5-0.7,0.6c0.4,0.4,0.7,0.3,0.4,1c-0.6-0.2-0.4,0.3-0.5-0.3c-0.1,0.6-0.5,0.8,0.5,1.1
						c-0.8,0.1-0.8,0.7-0.5,0.8l0.4-0.5c0.2,0.2,0.2,0.4,0.2,0.7l-1,0.2c-0.4,0.6,0.2,0.8,0.6,1.1c0.5,0.3,0.9,0.6-0.1,1.1
						c0.7,0.1,0.4-0.6,1.2-0.5c0,0.5-1.4,1.1-1.4,1.2c-0.5,0.6,1.5,0.3,1.2,1c0.3-0.1,1.3-0.3,1.7,0.2c-0.1,0.5-1.5,0.6-1.8,0.4
						c0-0.1,0.1-0.2,0.2-0.2c-0.1-0.1-0.3-0.3-0.7-0.1l0.4,0c-0.3,0.2-0.3,0.8-0.9,0.7c0.3,0.3,0.6,0.1,0.8-0.1
						c-0.5,0.5,0,0.8-0.4,1.4c0.2-0.1,0.6-0.1,0.6-0.1c-0.5,0.8,0.7,0.4,0.8,1c-0.6,0.3-1.3-0.2-0.9,0.4c-0.4,0.3-0.9,0-1.2-0.2
						c0.6,0.6-0.6,1-0.7,1.4l-0.3-0.4c0.2,0.2,0.1,0.4,0.1,0.6l0.7-0.2c-0.1,0.2-0.2,0.4-0.4,0.4c0.5,0.3,1.2-0.1,1.8,0.4
						c-0.4,0.3,0.4,0.9-0.5,1c0.3-1-1,0.1-1.1-0.7c0.1,0.2,0.1,0.4,0,0.7c-0.1,0-0.2,0-0.3-0.1c-0.4,0.6-0.1,0.7,0.3,0.8
						c0.4,0.1,0.9,0.2,1,0.7c-0.6-0.1-0.9,0.5-0.7,0.7c-0.1-0.6,0.8-0.4,1.3-0.2c-0.1,0.9,0.6,0.7,0.7,1c0-0.2,0-0.3,0-0.5
						c0.5-0.1,0.6,0.2,1,0.5c-0.3,0.3-0.5-0.2-0.5,0c0.5,0,0.5,0.3,0.5,0.8c0,0.4,0.2,1,0.7,1c0.2,0.6-0.5,0.9-0.3,1.3
						c1.4,0,1.5,1.4,1.7,0.8c0.2-0.7,0.1-0.5,0.5-1.2l-0.3,0.2c-0.1,0,0,0.1-0.2,0.1c-0.2,0-0.3,0-0.5,0c0.3-0.1,0.5-0.2,0.7-0.3
						c0.1-0.2,0.2-0.3,0.3-0.5c0,0-0.1,0-0.1,0l-0.1,0.1c0,0-0.1,0-0.2,0c-0.2,0-0.5,0-0.7-0.1c0.8-0.3,0.6-0.2,0.6-0.8
						c0.1,0.3,0.2,0.4,0.3,0.5c0.1,0,0.2-0.1,0.3-0.1c0.2-0.2,0.5-0.4,0.5-0.1l-0.8,1.7c-0.1,0.4,0.1,0.2,0.4,0
						c0.3-0.2,0.7-0.3,0.5,0.1c0.1-0.1,0.1-0.2,0.2-0.4c0.5-0.4,0.2,0.1,0.3,0.2c0,0,0,0,0.1,0c-0.5,0.4-0.6,0.6-0.9,0.8
						c0.1-0.2,0.3,0.2,0.8,0.5c0.4,0.3,1,0.5,1.3,0c0.1,0.4,0.3,0.7,0.5,1.1c0.7,0.4,1.2,0,1.6-0.4c0.4-0.4,0.6-0.9,1.1-0.8
						c-0.3,0.7,0.3,1.1-0.5,1.6c0.4,0,0.8,0.1,0.7-0.4c0.1,0.2,0.4-0.1,0.6-0.3c0.2-0.2,0.4-0.4,0.6-0.2c0-0.3-0.1-0.9,0.2-0.9
						c0.1,0.1,0.1,0.3,0.1,0.3c-0.1-0.3,0.3-0.5-0.2-1.1c0.7,0.7,1.3,0.4,1.8,0c0.2-0.2,0.5-0.4,0.7-0.5c0.3-0.1,0.6-0.1,0.8,0.2
						c0.1-0.3,0.3-0.8,0.5-1c0,0.2,0.1,0.3,0,0.3c0.2,0.2,0.2-0.3,0.1-0.8c0-0.5,0-1,0.3-0.6c0.4,1.1-0.2,0.6,0,1
						c0.2,1.1,0.3,1,0.4,0.8c0.1-0.2,0.3-0.4,0.4,0.3l-0.1,0.1c0,0.7,0.5-0.6,0.9-0.3c0,0-0.1,0.2-0.1,0.3c0.7-0.8,1.5-0.8,2.2-0.8
						c-0.5,0.6-0.4,0.2-0.7,1c0.3,0,0.5-1.2,1-1.1c-0.1,0.4,0.1,0.9-0.4,1.7L27,41.8c-0.4,1,0.4,0.2,0.5,0.5l-0.3,0.4
						c0.3,0.1,0.6-0.1,0.9-0.2c0.2-0.1,0.3-0.1,0.4-0.1c0.1,0,0.2,0,0.4,0.2l0.2-0.3c0.6-0.2,0.6,0,0.6,0.2c0,0.2,0,0.6,0.6,0.4
						c-0.1,0.4-0.1,0.8,0,1.2c0.3,0,0.8,0,1.3-0.3c0.5-0.2,0.9-0.7,1.1-1.1c0.3-0.8,0-1.3,0.1-1.6c0.4,0.3,0.6,0.6,0.6,1.2
						c0,0.3-0.1,0.7-0.4,1.2c-0.3,0.5-0.9,0.8-1.4,1c0.4-0.1,0.9-0.3,1.4-0.6c0.5-0.4,0.8-0.8,0.9-1.1c0.3-0.7,0.1-1-0.1-1.2
						c0.1,0.1,0.3,0.5,0,0.7c-0.2-0.6-0.5-0.9-0.7-1.2c-0.1-0.3-0.2-0.6-0.1-0.9c1.1,0.4,1.4,0,1.5-0.5c0.2-0.5,0.3-1.1,1.2-1.2
						c-0.3-0.7-0.2-1.3,0-1.9c0.1-0.3,0.2-0.6,0.3-0.9c0.1-0.2,0.1-0.2,0.1-0.3c-1.8-0.2,0-0.1-1.8-0.5c0,0,0-0.1,0-0.1
						c0-0.1,0-0.2,0.1-0.2c0.4-0.1,0.8,0,1.2,0c0.5,0.2,0.3,0.3,0.7,0.5c0.2-0.1,0.7,0.3,1.1,0.6c-0.5-0.4-0.8-0.5-0.4-0.6
						c-0.3-0.1-0.6-0.1-0.8-0.3c-0.2-0.2-0.1-0.3,0-0.4c0.1,0,0.3,0,0.5,0.1c0.4,0.1,0.8,0.3,0.6-0.3l0.3,0.5c0-0.5,0.8-0.9,0.1-2.2
						c0.2,0.1,0.6,0.4,0.6,0.6c0.4-0.2,0.5-0.8,0.7-1.3c0.1-0.3,0.2-0.5,0.4-0.7c0.1-0.1,0.1-0.1,0.3-0.2c0.2-0.1,0.3-0.1,0.6-0.1
						l0.2,0.4c0.2-0.3-0.1-0.9,0.6-0.8c0.1,0.2,0.2,0.4,0.4,0.3c0.1-0.2,0.2-1,0.9-1c0,0.2,0,0.3,0.1,0.5c1.1-0.2,1.5-0.8,1.5-1.4
						c0-0.6-0.2-1.1,0-1.5c0.7,0.3,1.3,0.3,1.8,0.1c0.5-0.2,0.8-0.5,1-0.8l0.2,0.1c0.3-0.9,0.1-1.8-0.5-2.4
						c-0.5-0.6-1.3-1.1-2.1-1.6c0.6-0.5,0.1-1.4-0.7-2.2c-0.4-0.4-0.9-0.9-1.1-1.3l-0.1-0.2l0-0.1c0,0,0-0.1,0-0.2
						c0-0.1,0-0.2,0.1-0.3c-0.2,0.2-0.9,0.5-1.1,0.5c0.2-0.2-1,0,0.1-0.5l0,0.1c1-0.6,0.7-0.6,0.7-0.7l-1.6,0.3
						c1.1-0.5,0.9-0.5,0.7-1C41,16.9,40.9,16.2,42,16c-0.3-0.4-0.3-0.8-0.6-1.3l0.8,0.1c0.2-0.6,0.3-1.1,0.2-1.7c0-0.2,0-0.3,0-0.5
						c0-0.1-0.1-0.4-0.2-0.7c-0.1-0.4-0.3-0.9-0.8-1.5c-0.5-0.7-1.3-1.2-1.9-1.4C40,9,40.5,9,41,9.2c-0.9-0.7-1.6-0.7-2-0.7
						c-0.5,0.1-0.7,0.4-0.9,0.7c-0.5,0.6-0.8,1.2-1.2,1.2c-0.1-0.4-0.2-0.8-0.4-1.2c-1.9,0.2-3.7,0.2-3.9,1.6
						c-0.1-0.2-0.3-0.5-0.1-0.6c-0.2,0.1-0.7,0.2-0.9,0.3c-0.1,0.1-0.2,0.2-0.1,0.4c0.1,0.2,0.2,0.4,0.4,0.8
						c-0.3-0.5-0.3-0.5-0.3-0.3c0,0.2,0,0.6-0.1,0.9l-0.2-0.8c0,0.3,0,0.5,0.1,0.7c0,0.6,0,0.8-0.3,1c-0.1-0.1-0.1-0.7,0-0.5
						c-0.2-0.4-0.2,0.8-0.5,0.3c0.1-0.2,0.1-0.3,0.2-0.5c-0.2-0.1-0.2,0.2-0.5,0.8c-0.3,0.3-0.5-0.4-0.2-1.1
						c-0.2,0.4-0.6,0.9-0.7,0.6c0.1-0.3,0.3-0.4,0.3-0.4c0-0.7-1.3,0.3-1-0.6c0.2-0.2,0.3-0.3,0.3-0.4c0.3,0.3,0.6,0.6,0.5,0.6
						c0.4-0.6,0.3-0.9,1.1-1.6c-0.5,0.4-1.7,1-1.7,0.4c0-0.1,0.1-0.1,0.2-0.2l0.1,0c0-0.1-0.1-0.1-0.2-0.1c0-0.2,0-0.3,0-0.4
						c0.5-0.4,0-0.6-0.2-0.8c-0.7,0.5-0.7,0.2-1.1,0.9c0-0.1,0.1,0,0.2,0.1c0,0,0.1,0,0.1,0c0,0,0,0-0.1,0c0.1,0.1,0.2,0.2,0.4,0.4
						c-0.4,0.1-0.8,0.2-0.6-0.3c-0.5,0.2-1,0.5-1.3,0.6c0.7-1,0.8-1.9,1.3-2.4C26.8,8.1,26,7,24.5,7.7c-0.3,0,0.1-0.5,0.2-0.8
						c0.2,0,0.3,0.1,0.6,0c-0.6-0.1-1.3-0.9-2-0.2L21,7.5c0,0,0.1,0.1,0.1,0.1c-0.6,0.3-0.9-0.6-0.9,0.1l-0.3-0.2
						c-1.1,0.3-0.6,1-0.2,1.8c0.4,0.8,0.6,1.6-0.8,1.8c0.2,0,0.3,0,0.4,0c-0.2,0.1-0.4,0.3-0.5,0.5c-0.1,0.2-0.3,0.4-0.3,0.5
						c-0.1,0.3-0.2,0.6-0.4,0.9c-0.1,0.3-0.3,0.7-0.6,0.7c-0.3,0.1-0.7-0.1-1-0.5c-0.3-0.4-0.3,0.4-0.5,0.9c0-0.3,0-0.6-0.1-0.9
						c-0.1,0.3-0.3,0.7-0.4,1c-0.4,0.3-0.7-0.3-0.9-0.8c-0.3-0.5-0.5-1-1.1-0.4l0,0.6c-0.3-0.2-1.1,0.1-0.9-0.6
						c-0.1,0.1-0.3,0.6-0.3,0.2l0.1-0.5l-1,0.6c-0.5-0.5,0.6-1.8-0.3-2.1c-0.4,0.1-1.3,1-1.3,1.4c0.1,0.1,0.3,0.4,0.1,0.8l-0.4,0.1
						c-0.5,1.3-1.2,2.6-0.6,3.8l0.8-0.7l0,0.7l-0.5-0.1c0.1,0.7,0.4,0.2,0.7-0.1c0,0.4,0,0.6,0.1,0.8l0.9-1.1
						c-0.1,0.5-0.5,1-0.2,1.4c0.4-0.5,0-1.3,0.6-1.5c0.1,0.7-0.1,1.2,0.4,0.7c0,0.4-0.2,0.6-0.3,0.7c0.4-0.3,0.8,0,1.1-0.7
						c0.1,0.8,1,0,0.7,1.3c0.2-0.3,0.7-0.9,1-0.9c-0.4,0.7-0.1,0.8,0.2,0.9c0.1,0,0.1,0,0.2,0.1c0.1,0,0.2,0.1,0.3,0.2
						c0.2,0.2,0.3,0.4,0.2,0.8c0.4-0.7,0.9-0.7,1.5-0.8c0.6,0,1.2-0.1,1.6-0.5c0,0.1-0.1,0.4-0.2,0.3c0.6,0,0.9,0.4,1.4,0.5
						c-0.3-1.1,0.4-1.7,0.3-2.6c0.5,0.3,0.7,0.6,0.7,1c0.1,0.4,0,0.8,0.4,1.2c-0.2-0.4-0.1-0.8,0-1.2c0.1-0.4,0.1-0.7-0.2-0.9
						c0.8,0.2,0.5,0,1.3,0.5c-0.9-1.2,0.2-0.6-0.2-1.6c1-0.2,1.2,0.7,1.3-0.3c0.3-0.1,0.5,0.2,0.5,0.4
						C23.7,16.1,23.6,16.3,23.6,16.3z M25.1,14.4C25.1,14.4,25.1,14.4,25.1,14.4c-0.1-0.1-0.2-0.1-0.3-0.2
						C24.9,14.2,25,14.3,25.1,14.4z M26.1,15.2c-0.1-0.1-0.2-0.3-0.4-0.4c0.2-0.2,0.4-0.4,0.5-0.3C26,14.6,26.1,14.9,26.1,15.2z
						 M28.8,9.7c0.2,0,0.1,0.2,0,0.3c-0.1,0-0.1-0.1-0.2-0.1c0,0-0.1,0-0.1,0.1C28.6,9.8,28.7,9.7,28.8,9.7z"/>
					<path class="st0" d="M27.8,10.1C27.8,10.1,27.7,10.1,27.8,10.1c-0.1,0.1-0.2,0.1-0.2,0.2C27.7,10.3,27.8,10.2,27.8,10.1
						L27.8,10.1z"/>
					<path class="st0" d="M6.2,16.2L6.2,16.2C6.2,16.2,6.3,16.2,6.2,16.2C6.3,16.2,6.3,16.2,6.2,16.2z"/>
					<polygon class="st0" points="34.5,14.8 34.7,14.8 34.5,14.7 					"/>
					<path class="st0" d="M11.5,15.6c0,0.1,0.1,0.2,0.1,0.3C11.6,15.8,11.5,15.7,11.5,15.6z"/>
					<path class="st0" d="M13,16.4l0.2,0.4C13.1,16.6,13,16.5,13,16.4z"/>
					<path class="st0" d="M14.3,17.3c0.1-0.1,0.1-0.2,0.1-0.3l0,0L14.3,17.3z"/>
					<path class="st0" d="M13.3,35.3C13.3,35.3,13.3,35.3,13.3,35.3C13.5,35.2,13.4,35.2,13.3,35.3z"/>
					<path class="st0" d="M11.4,27.6c0.2,0.1,0.3,0.2,0.4,0.3C11.8,27.7,11.8,27.5,11.4,27.6z"/>
					<path class="st0" d="M17.2,36.9C17.2,36.9,17.2,36.9,17.2,36.9C17.2,36.9,17.2,36.9,17.2,36.9L17.2,36.9z"/>
					<path class="st0" d="M11.8,28.3c0.2-0.2,0.1-0.3,0-0.5C11.7,28,11.7,28.2,11.8,28.3z"/>
					<path class="st0" d="M23.5,11.9L23.5,11.9c0-0.1,0-0.1-0.1-0.1L23.5,11.9z"/>
					<path class="st0" d="M23.4,11.7l-0.1-0.1C23.4,11.6,23.4,11.7,23.4,11.7z"/>
					<path class="st0" d="M23.3,11.3l0.1,0.3C23.4,11.5,23.5,11.4,23.3,11.3z"/>
					<path class="st0" d="M21.7,14.6l0.2,0.2C21.9,14.8,21.8,14.7,21.7,14.6z"/>
					<path class="st0" d="M21,15.5c0.2-0.1,1-0.1,1-0.5l-0.2-0.2C22.2,15.2,20.8,15,21,15.5z"/>
					<path class="st0" d="M16.4,13.8c0.1,0.1,0.3,0.1,0.5,0.2l0.1,0l-0.1-0.2c-0.1-0.2-0.2-0.5-0.2-0.6c0,0,0,0,0-0.1
						c0,0-0.1-0.1-0.1-0.1C16.1,12.4,16.9,13.9,16.4,13.8z"/>
					<path class="st0" d="M15.1,13.2c0.3-0.1,0.1-0.5,0.2-0.6C15.1,12.8,15,12.9,15.1,13.2z"/>
					<path class="st0" d="M6.6,21.8L5.8,22C6.1,22.3,6.1,22,6.6,21.8z"/>
					<polygon class="st0" points="11.2,23.3 11.6,22.8 10.9,22.9 					"/>
					<polygon class="st0" points="6.4,26.2 6.2,26.1 6.6,26.4 					"/>
					<path class="st0" d="M22.8,42.3l-0.6-0.7C22,41.9,22.6,42.8,22.8,42.3z"/>
					<path class="st0" d="M28.5,42.8c-0.1,0.2-0.1,0.5,0,0.7c0.1,0.2,0.3,0.3,0.7,0.3C28.6,43.3,28.7,42.8,28.5,42.8z"/>
					<path class="st0" d="M41.7,17.9c0.1,0,0.2,0,0.3,0C41.9,17.9,41.8,17.9,41.7,17.9C41.7,17.9,41.7,17.9,41.7,17.9z"/>
				</g>
			</g>
		</g>
	</g>
</g>
<path class="st1" d="M43,25.8c-0.4,2.3-5.2,1.4-8.2,4.9c-3.6,4.2-1.1,10.6-3.3,11.3c-1.7,0.6-3-3.8-6.5-4c-3.6-0.2-5.6,4.2-8.2,3.2
	c-1.3-0.5-1-1.9-3.3-3.2c-1.7-1.1-2.7-0.7-3.3-1.6c-0.7-1.2,0.6-2.6,0.8-4.9c0.2-2.5-0.7-3.9-1.6-6.5c-0.4-1-3.2-9.5-0.8-11.3
	c2.1-1.6,6.2,3.3,9.8,1.6c3.4-1.5,3.1-7.2,4.9-7.3c1.9-0.1,2.1,6.2,5.7,7.3c3.5,1.1,7.5-3.7,9-2.4c0.9,0.7-0.5,2.3,0,4.9
	C38.9,22.3,43.4,23.5,43,25.8z"/>
</svg>
