<?xml version="1.0" encoding="utf-8"?>
<!-- Generator: Adobe Illustrator 21.1.0, SVG Export Plug-In . SVG Version: 6.00 Build 0)  -->
<svg version="1.1" id="Layer_1" xmlns="http://www.w3.org/2000/svg" xmlns:xlink="http://www.w3.org/1999/xlink" x="0px" y="0px"
	 viewBox="0 0 200 200" style="enable-background:new 0 0 200 200;" xml:space="preserve">
<style type="text/css">
	.st0{fill:#E4E4E4;}
	.st1{fill:#E0E0E0;}
	.st2{fill:#FA4646;}
	.st3{fill:#F92B2B;}
	.st4{opacity:0.1;}
	.st5{fill:#5E5E5E;}
</style>
<g>
	<g>
		<g>
			<g>
				<g>
					<path class="st0" d="M147.5,104.7c-0.1-0.1-0.3-0.1-0.3,0.1l0.3,0.2L147.5,104.7z"/>
					<path class="st0" d="M146.5,105.8c0.1,0.3,0.3,0.6,0.6,0.6c-0.2-0.3-0.1-0.3-0.4-0.7c0-0.2,0.2-0.3,0.3-0.2
						c-0.1-0.1,0.2-0.3,0-0.4c-0.3,0.2-0.4,0.5-0.3,0.9C146.6,105.9,146.5,105.8,146.5,105.8z"/>
					<path class="st0" d="M140.3,124.3l0.1-0.1C140.3,124.2,140.3,124.3,140.3,124.3z"/>
					<path class="st0" d="M133.3,132.6c0.1,0,0.1-0.1,0.1-0.1C133.3,132.6,133.2,132.6,133.3,132.6z"/>
					<path class="st0" d="M131.1,133.5c0,0,0.1-0.1,0.1-0.1C131.2,133.5,131.1,133.5,131.1,133.5z"/>
					<path class="st0" d="M140.3,124.3l-0.2,0.3C140.2,124.7,140.2,124.5,140.3,124.3z"/>
					<path class="st0" d="M146.5,108.6c0-0.1,0-0.1,0-0.2C146.4,108.5,146.4,108.5,146.5,108.6L146.5,108.6z"/>
					<path class="st0" d="M141.6,119.2L141.6,119.2c0-0.1,0-0.2-0.1-0.2L141.6,119.2z"/>
					<path class="st0" d="M142.7,115.2c0,0.1,0.2,0.2,0.3,0.3c-0.1-0.1-0.1-0.2-0.1-0.2C142.9,115.2,142.8,115.2,142.7,115.2z"/>
					<path class="st0" d="M145.1,109.2l0-0.1C145.1,109.1,145.1,109.1,145.1,109.2z"/>
					<path class="st0" d="M140.7,121.9c0,0-0.1,0-0.1,0C140.6,122,140.7,121.9,140.7,121.9z"/>
					<path class="st0" d="M53.7,112.2C53.7,112.2,53.7,112.2,53.7,112.2C53.7,112.1,53.7,112.1,53.7,112.2z"/>
					<path class="st0" d="M54,107.2L54,107.2c0.1,0.1,0.1,0.1,0.2,0L54,107.2z"/>
					<path class="st0" d="M128.5,136.8L128.5,136.8C128.5,136.7,128.5,136.8,128.5,136.8z"/>
					<path class="st0" d="M97.5,145.2c0.4,0.3-0.6,0.3-0.1,0.6C97.4,145.6,98,145.3,97.5,145.2z"/>
					<path class="st0" d="M146.4,108.7c0,0.1,0,0.1,0,0.2C146.4,108.8,146.4,108.7,146.4,108.7z"/>
					<path class="st0" d="M97.4,145.7L97.4,145.7L97.4,145.7C97.4,145.8,97.4,145.8,97.4,145.7z"/>
					<path class="st0" d="M122.6,141c0,0,0.1,0.1,0.1,0.1C122.7,141.1,122.7,141.1,122.6,141z"/>
					<path class="st0" d="M128,138.9l-0.1,0.1C127.9,138.9,127.9,138.9,128,138.9z"/>
					<path class="st0" d="M119.5,142.3c-0.1,0-0.1,0-0.2,0c0,0,0,0,0,0C119.3,142.3,119.4,142.3,119.5,142.3z"/>
					<path class="st0" d="M116.1,143.2C116.1,143.2,116.2,143.3,116.1,143.2c0.1,0,0.1,0,0.2,0L116.1,143.2z"/>
					<path class="st0" d="M57.4,122.4c0-0.1,0.1-0.2,0.2-0.3C57.4,122.2,57.1,121.8,57.4,122.4z"/>
					<path class="st0" d="M146.3,108.6c0.1,0,0.1,0.1,0.1,0.1l0-0.1C146.4,108.6,146.3,108.6,146.3,108.6z"/>
					<path class="st0" d="M119.9,144.5l-0.6,0.1C119.5,144.6,119.7,144.6,119.9,144.5z"/>
					<path class="st0" d="M74.1,141.6l-0.1,0C74,141.6,74.1,141.6,74.1,141.6z"/>
					<path class="st0" d="M117.8,145.1c-0.1-0.1-0.2-0.1-0.4-0.1c0,0,0,0.1,0,0.1L117.8,145.1z"/>
					<path class="st0" d="M57.6,122.1L57.6,122.1L57.6,122.1z"/>
					<path class="st0" d="M55.5,118.9c0.2,0.5,0.4,0.1,0.7,0.1c0.3,0.6-0.1,0.4-0.2,0.7c0.2,0.3,0.7,0.5,0.8,0.8c0,0,0,0.1-0.1,0.1
						c0.4,0.3,0.5,1.2,1.1,1.5c0,0,0,0.1-0.1,0.1c0.1-0.1,0.3-0.2,0.4-0.3c0.1,0.2,0.4,0.3,0.2,0.5c-0.1-0.1-0.2-0.1-0.2-0.1
						l0.2,0.2c-0.2,0.4-0.3-0.3-0.5-0.2c0.3,0.4,0.8,0.8,0.9,1.2c-0.3,0.2-0.5-0.7-0.5-0.2l-0.1-0.6c-0.3,0.6-0.1-0.3-0.5,0.3
						c0.2,0.7,0.5,0.7,0.8,1.5c0.3,0.1,0.2-0.2,0.5-0.1c0.8,0.8-0.3,1.2,0.5,1.7c0.3,0.1,0.7-0.1,0.8,0.5l-0.4,0
						c0.3,0.7,0.7,0.1,0.9,0.9c-0.2,0-0.4-0.4-0.4-0.3c0,0.6,0.4,0.2,0.6,0.5l-0.2,0.2c0.5,0.6,1.1,1.3,1.7,1.9
						c-0.1,0-0.3,0-0.3,0.2c0.8,0.8,1.3,2,1.9,2.9l0.5,0.1c0.1,0.1,0,0.2-0.1,0.2c0.2,0.4,0.2-0.1,0.4,0c0.2,0.2,0.1,0.4-0.1,0.3
						c0.6,0.4,1.8,1.2,2.1,2l-0.2,0c0.3,0.5,0.9,0.1,1.1,0.7l-0.1,0c0.9,1,2.1,1.8,2.7,2.7c0.4-0.2,0.9,1,1.3,0.5
						c0.4,0.7,0.2,0.6,1,1.4c0.2,0.2,0.6-0.1,0.9,0.1l-0.2,0.3l0.6,0l0,0.5c0.1,0,0.2,0.1,0.3,0.1c-0.1-0.1-0.2-0.3-0.1-0.3
						c0.5,0.1,1,0.8,0.9,0.9l1.2,0.3c-0.1,0.1-0.3,0-0.5,0c0.7,0,0,0.3,0.6,0.4c0-0.1,0.1-0.1,0.2-0.2c0.2,0.3,0.8,0.6,1.3,0.7
						l-0.2,0.2c0.8,0.4,1.8,0.7,2.8,1c-0.3-0.2-0.1-0.5,0.2-0.5l0,0.3c0.2-0.1-0.3-0.2,0.2-0.3c0.3,0.1,0.1,0.4-0.1,0.5l0.5,0
						c0,0.1-0.1,0.1-0.2,0.2c0.2-0.1,0.7,0.5,1,0.3l0,0.1c1,0.3,1.5,0.3,2.3,0.4c0.1-0.3,0.4-0.1,0.7-0.3c0.6,0.2,1.2,0.6,1.9,0.7
						c0.5,0,0.2-0.2,0.4-0.3c0,0.3,0.7,0.4,0.3,0.5c0.9,0.1,1.1,0.2,2.2,0.1c-0.1-0.1-0.2-0.2-0.1-0.3c0.2,0,0.4,0.2,0.4,0.3l-0.1,0
						c1.3-0.2,2.7,1.2,3.7,0.8l-0.1,0l1-0.1c0.5,0.1-0.3,0.2,0,0.4c1.1-0.3,1.7,0.2,2.7,0c0.7,0.8,2.5,0.1,3.5,0.5l-0.1-0.2
						c0.2-0.2,0.3,0.1,0.5,0.1c0-0.1-0.3-0.2-0.1-0.3c2.1-0.3,4.3,0,6.5-0.1c0.8-0.1,0.3-1,1.3-0.7l-0.2,0.4
						c1.5-0.6,3.2-0.6,4.6-1.2c-0.1,0.1-0.1,0.2-0.2,0.2c0.4,0.2,1.2-0.3,1.1-0.4c0.2,0,0.1,0.2,0.3,0.2c0.4,0.1,0.7-0.5,0.9-0.3
						c0,0-0.1,0.1-0.1,0.1c0.2-0.2,1-0.2,0.7-0.4c0.6,0,1-0.4,1.5-0.3c0.2-0.4,1-0.1,1-0.6c0.1,0.4,1.1,0.1,1.4-0.2
						c-0.1,0.2,0.3,0.1,0.3,0.3c0.4-0.1,0.7-0.3,0.6-0.5c0.9,0.3,1.3-0.8,1.9-0.3c1.1-0.6,2.1-1,3.2-1.5c0.1,0.5-1.2,0.4-1,0.9
						c1-0.5,1.5-1,2.5-1.5c0.3-0.1-0.1,0.3-0.1,0.4c0.5-0.3,1-0.7,1.4-1c0.5-0.4,0.8-0.8,1-1.3c0,0,0,0.1,0,0.3
						c0.1-0.2,0.3-0.4,0.1-0.5c0,0.1,0,0.1-0.1,0.2c-0.4,0.1-0.1-1-0.2-1.1c0.4,0.6,0.6-0.8,1,0c0-0.1,0-0.3-0.1-0.3
						c0.1-0.1,0.2-0.2,0.3,0.1c0.2-0.7-0.1-0.5,0.2-1.1c0.1,0,0.1,0.2,0.2,0.3c0-0.3-0.1-0.7,0.2-1.1c0,0.1,0.1,0,0.1,0.2
						c0.3-0.7,0.3-1.5,1-1.9c0.1,0.5,0.3-0.1,0.6,0.2c0.1-0.1,0.2-0.2,0.3-0.3l-0.2-0.1c0.3-0.2,0.5-0.6,0.9-0.7
						c-0.1,0.1-0.1,0.2-0.2,0.3c0.2-0.1,0.4-0.3,0.7-0.4l-0.5,0.1c0.3-0.4-0.2-0.4,0.3-0.5c-0.1,0.1,0.4-0.2,0.7,0l0,0
						c0.2-0.2,0.3-0.4,0.7-0.4c0.1,0.1,0.1,0.4,0.2,0.5c0.1-0.4,1-0.5,1.1-0.9c0,0.1,0,0.3,0.1,0.3l0-0.3c0.2,0,0.3,0,0.3,0.1
						c0.6-0.3-0.4-0.3,0.3-0.5c0,0.1,0,0.1-0.1,0.2c0.7-0.4,1.1-1.1,1.6-1.6c0.4,0-0.3,0.6,0.1,0.6c0.7-0.9,0.8-2.1,1.2-3l-0.1,0.2
						c-0.4-0.3,0.5-0.6,0.4-1.1c0,0.1,0.2,0.2,0.2,0.2c0.3-0.6,0.3-1.3,0.4-2.3l0.1,0.2c0.2-0.3,0.4-0.9,0.5-1.3
						c-0.1-0.2,0-0.4-0.2-0.3c1.1-1,0.3-2.4,1.3-3.3c0,0.1,0,0.3,0.1,0.2l0.2-1c-0.2,0-0.2,0.1-0.4,0.2c-0.1-0.2-0.1-0.4,0-0.7
						c0,0.5,0.4,0.1,0.5,0c-0.1,0-0.1-0.1-0.2-0.1c0.5-0.4-0.4-0.2,0-0.8l0.1,0.1c0-0.3-0.1-0.5,0-0.8c0.3,0,0,0.3,0.2,0.4
						c0.1-0.4-0.3-0.9,0.1-1.1c0,0.2,0,0.4,0,0.6c0.4-0.3,0.3-0.3,0.5-0.6l0,0l0.3-0.6l-0.1,0.1c-0.5-0.7,0.2-1-0.1-1.7
						c0.2,0.7,0.2,0.2,0.5,0.3c0.1-0.1,0.3-0.3,0.4-0.3c-0.1-0.4,0.3-0.4,0.1-1c0.1,0,0.1-0.3,0.3-0.2c0-0.4-0.2,0-0.3,0
						c-0.1-0.7,0.8-1.3,0.6-2.3c0-0.8-0.2-1-0.2-1.7c0.2-0.2,0.3,0.3,0.3,0.3c0.3-0.3,0.3-0.6,0.3-1c0.1,0.1,0.2,0,0.3,0
						c0.1-0.3-0.3-0.3,0-0.6c0.1,0.1,0.2,0.2,0.3,0.4c0-0.4-0.1-0.7,0-1.1c0.2,0,0.2,0.3,0.3,0.4c0-0.4,0.2-1-0.1-1.2l-0.2,0.2
						c0-0.1,0.2,0,0.3,0.1c0.1,0.4-0.2,0.4-0.3,0.4l0-0.3c-0.6,0.1-0.2,1-0.4,1.5l-0.3-0.3l0.2,0.6c-0.1,0.1-0.4,0.1-0.4-0.2
						c-0.3,0.3,0,0.4-0.3,0.6c0,0-0.1,0-0.1,0l0,0.4c-0.1-0.1-0.3,0-0.2-0.2c-0.4,0.5,0,1.1-0.4,1.2l0-0.1c-0.1,0.9,0.3,0.2,0.4,0.9
						l-0.9,0.2l0.3,0.2c0,0.1-0.1,0.3-0.2,0.2c0.1,0.4,0.1,0,0.3,0.2c-0.4,0.3-0.2,1.2-0.7,1.2c0.2,0.2,0.3-0.4,0.3,0.1
						c-0.5,0-0.1,0.5-0.4,0.9c-0.2-0.2,0-0.5-0.3-0.2c0.4,0.4-0.3,0.7-0.3,1.1c0.3,0.1-0.1,0.8-0.1,1.3c-0.1-0.1-0.5,1-0.8,1.4
						l-0.1,0c0.3,0.2,0.1,0.7,0.1,1.1c-0.2-0.1-0.3-0.2-0.3-0.4l-0.1,0.4c0.1,0.1,0.1,0.2,0.1,0.5l-0.2-0.2c-0.1,0.5,0,1.1-0.3,1.6
						c0.2,0.1,0.8-0.3,0.8,0.4c-0.1,0-0.4-0.1-0.4-0.2c0,0.1,0,0.2,0,0.3l-0.1-0.3c-0.2,0.3,0.1,0.2,0.1,0.4c-0.2-0.1-0.2,0.1-0.3,0
						c0-0.1,0.1-0.2,0.1-0.3c-0.1,0.2-0.3,0.5-0.5,0.6c0.1,0,0.3,0.1,0.2,0.3c-0.1,0.5-0.3,0.1-0.5,0.3c0.1,0.2-0.1,0.4,0.1,0.5
						c0,0.1-0.2,0.1-0.3,0.2c0,0.3-0.3,1.2,0.1,1l0-0.1c0,0,0,0,0,0l0,0l0,0c0,0.9-0.7,1.6-0.8,2.5l-0.1,0c0,0.5-0.3,1.1-0.2,1.5
						c-0.1,0.1-0.3,0.2-0.4,0.1c-0.1,0.4,0,0.5-0.4,0.9c0-0.4-0.2,0,0.1-0.4c-0.3,0.4-0.5,0.4-0.5,0.9c-0.1-0.3-0.4,0.1-0.5,0.3
						l0.3-0.1c-0.1,0.2-0.3,0.4-0.4,0.5l-0.2-0.3c-0.4,0.2-0.6,0.5-0.8,0.8c-0.2,0.3-0.5,0.6-1,0.4c-0.1,0.3,0.5-0.1,0.5,0.3
						c-0.4,0.2-1-0.1-1.2,0c-0.6,0.1-0.4,0.7-1,0.8c0.1,0.1,0.3,0.3-0.1,0.6c-0.4,0.2-0.8-0.2-0.5-0.4c0.1-0.1,0.2,0,0.2,0
						c0.1-0.1,0.3-0.2,0.1-0.3l0,0.1c-0.3,0-0.9,0.3-0.8,0.1c-0.3,0.3-0.1,0.2,0.2,0.2c-0.7,0.1-0.9,0.5-1.6,0.8
						c0.1,0,0.3,0,0.2,0.1c-0.9,0.6-0.2,0.5-0.6,1c-0.4,0.2-0.3-0.4-0.6,0.3c-0.3,0.3-0.3-0.1-0.3-0.3c-0.2,0.7-0.8,1-1,1.2l0.1-0.3
						c0,0.2-0.1,0.3-0.2,0.5l0.3-0.1c-0.1,0.1-0.2,0.3-0.3,0.2c0.1,0.2,0.4,0,0.4,0.5c-0.2,0.2-0.2,0.7-0.5,0.6
						c0.4-0.6-0.3-0.1-0.1-0.6c0,0.1-0.1,0.3-0.2,0.4c0,0,0-0.1,0-0.1c-0.6,0.5,0.2,0.4-0.1,1c-0.1-0.2-0.4,0-0.4,0.1
						c0.1-0.2,0.3,0,0.3,0.3c-0.3,0.3-0.2,0.4-0.3,0.6c0.1,0,0.1-0.1,0.2-0.2c0.1,0.2,0,0.3-0.2,0.6c-0.1-0.1,0.1-0.3,0-0.2
						c0,0.5-0.7,0.3-0.9,0.7c-0.2,0-0.2-0.3-0.4-0.2c-0.3,0.4-0.5,0-0.9,0.4c0.2,0.2,0.2,0.1,0,0.5c0.3-0.2,0.5-0.3,0.7-0.5
						c-0.1,0.2-0.2,0.4-0.3,0.6c0.2-0.1,0.4-0.4,0.6-0.4c-0.1,0.3-0.1,0.2,0.1,0.3c-0.5-0.1-0.6,0.5-1.1,0.5l-0.2-0.6
						c-0.7,0-1,0.7-1.9,0.8l0.3,0c-0.1,0.3-0.5,0.2-0.8,0.4c0-0.2-0.2-0.2-0.4-0.3c0.1,0.1-0.6,0.2-0.6,0.6l-0.5-0.1
						c-0.7,0.1-0.7,0.8-1.4,0.9c0.1-0.3-0.2-0.3,0.2-0.6c-0.2,0.1-0.4,0.1-0.4,0.2c-0.2-0.1-0.6,0.4-0.8,0.3c-0.1,0.1,0,0.3-0.3,0.4
						c0,0,0-0.1,0-0.1c0,0.1-0.4,0.2-0.1,0.4c-0.9-0.4-1.9,0.6-2.7,0.2c-0.5,0.2-1.1,0.4-1.5,0.5c0-0.1,0-0.1,0.1-0.1
						c-0.7,0-0.3,0.6-1,0.6c-0.4-0.2,0.3-0.3,0.1-0.3c-0.2-0.6-0.8,0.3-1.4,0l0.1-0.1c-0.4-0.1-0.8,0.4-1.4,0.5c0,0,0-0.1,0-0.1
						c-0.3,0.4-1.1,0.7-1.7,0.9c0.1-0.3,0.2-0.2,0.1-0.4c-0.3,0.1,0.1,0.4-0.4,0.6c-0.2-0.1-0.6-0.2-0.7-0.4l0.5-0.1
						c-0.3-0.3-0.6,0.1-0.9,0.1l0-0.2c-0.7,0.2-0.7,0.5-1.5,0.6l0.1,0.1c-0.4,0.4-0.4-0.2-0.8,0.2l-0.2-0.4c-0.3,0.1-1,0.5-1.5,0.6
						c0.3-0.3,0.9-0.5,1.2-0.7c-0.3,0-1,0.1-1.1,0.3c0.1,0,0.3-0.2,0.4-0.1c-0.3,0.3-0.8,0.5-1.4,0.6c0.1-0.8-1.5-0.1-2-0.7
						c-1,0.3-2-0.1-3.2-0.1c0.4,0.6-0.3,0-0.3,0.6c-0.3,0-0.4,0-0.4,0l-0.8-0.4c-0.2-0.2,0.3-0.1,0.3-0.3c-0.6-0.1-0.2-0.3-0.6-0.5
						c0.1,0.2-0.2,0.3-0.6,0.2l0.5,0.3c-0.9,0.2-0.7-0.6-1.5-0.4l0.3-0.2c-0.4,0.1-1.6-0.2-2.1,0.2c-0.1-0.1-0.1-0.3,0.1-0.3
						c-1-0.2-2.4,0.1-3.2-0.3l0.1-0.1c-0.2,0-0.4,0.2-0.6,0c0-0.1,0.1-0.1,0-0.2c-0.1,0-0.6,0.2-0.8,0l0.3-0.1c-1-0.4-1.6,0.1-2.5,0
						c0.1-0.4-0.7-0.7-1-0.9l0-0.1c-1.1-0.3-2-0.1-3.1-0.2c-0.5-0.6-2.1-0.9-3-1.6c0.1,0.1-0.2,0.3-0.3,0.3c-0.2-0.2-0.8,0-0.6-0.3
						l0.1,0c0-0.4-0.5-0.5-0.9-0.7l-0.3,0.4c-0.3-0.6-0.9-0.9-1.5-1.1c-0.6-0.2-1.1-0.5-1.2-0.9c-0.3,0-0.6-0.2-0.8-0.2l0.2-0.2
						c-0.6-0.4-0.8-0.7-1.6-1.2l0.3-0.1c-0.4-0.3-1,0.3-1.4,0l0.2-0.4c-0.7-0.5-1.1-1.4-2-1.7c0.1,0,0.2-0.1,0.3,0
						c-0.1-0.1-0.4-0.5-0.6-0.7c-0.2-0.2-0.5-0.4-0.6-0.1c0.3-0.3-0.6-0.7-1-0.9l0.3-0.1c-0.5,0-0.6,0-1.1-0.3
						c-0.1-0.1,0.1-0.2,0.2-0.1c-0.2-0.4-0.4-0.1-0.6-0.6l0.3,0c-0.3-0.4-0.3-0.3-0.6-0.3c-0.3-0.2-0.5-0.7-0.3-0.9
						c-0.2,0-0.5,0-0.6-0.3c0.1-0.1,0.2,0,0.2,0c-0.3-0.7-0.9-0.7-1-1.3c0.1-0.1,0.1-0.1,0.1-0.2c0.3,0.5,0.6,0.9,0.6,0.9
						c0.2-0.2,0-0.6,0.5-0.5c-0.4-0.2-1.1-0.5-1.3-0.9c0,0,0-0.1,0-0.1l0.1,0c0-0.1-0.1-0.2-0.2-0.2c-0.1-0.1-0.1-0.2-0.2-0.4
						c0.1-0.2-0.2-0.5-0.3-0.7c-0.2,0.2-0.4-0.1-0.4,0.3c0,0,0.1,0,0.1,0.2c0,0,0.1,0.1,0.1,0.1l0,0c0.1,0.1,0.2,0.3,0.3,0.5
						c-0.2-0.1-0.4-0.2-0.4-0.5c-0.2,0-0.4,0-0.6,0c0.2-0.5,0-1.2,0.1-1.4c-0.6-0.5-1-1.5-1.7-1.6c-0.2-0.2,0-0.3,0-0.4
						c0.1,0.1,0.2,0.2,0.3,0.2c-0.3-0.3-0.7-1.1-1-1c-0.1-0.6,0.4,0.1,0.1-0.5l0.1,0c-0.1-1.6-1.9-1.7-1.8-3.5c0,0.1,0,0.2,0,0.2
						c-0.2-0.9-0.6-1.7-1-2.6c-0.4-0.9-0.7-1.7-0.7-2.7c0-0.5-0.3-0.5-0.5-0.8l0.3-0.2l-0.5-0.4c-0.5-0.7,0.4-1.5-0.3-2.3l-0.2,0.2
						c0-0.3-0.4-1-0.1-1c0,0-0.2-0.1-0.2-0.2l0.2,0l-0.4-0.8c0-0.7,0.6,0,0.5-1c-0.1-0.3-0.6-0.9-0.7-0.8c0,0.1,0,0.4-0.2,0.4
						l-0.1-0.3c-0.5,0-1-0.2-1.2,0.7l0.4,0.5l-0.2,0.2l-0.1-0.5c-0.2,0.3,0.1,0.4,0.2,0.6c-0.1,0.1-0.2,0.2-0.2,0.3l0.5,0.5
						c-0.2,0.1-0.4-0.2-0.4,0.2c0.3,0.2,0.4-0.3,0.6,0.1c-0.2,0.3-0.3,0.3-0.1,0.5c-0.1,0.1-0.2,0-0.3-0.1c0.2,0.2,0.2,0.7,0.5,0.8
						c-0.2,0.3,0.3,0.9-0.1,1c0.1,0.1,0.5,0.4,0.5,0.7c-0.6-0.3,0.2,1-0.3,1c0.6,0.2,0.6,1.2,1,1.7c0,0-0.1-0.1-0.1-0.1
						c0.1,0.4,0,0.5-0.1,0.7c0.4-0.1,0.7,0.4,1,0.6c-0.2,0.5-0.5-0.1-0.8,0.1c0.3-0.1,0.6,0.6,0.8,0.4c-0.1,0.4,0,0.3-0.3,0.6
						c0.5-0.1,0.2,0.3,0.6,0.4c-0.1,0.5-0.4,0.3-0.1,0.7C55.8,119.3,55.5,118.9,55.5,118.9z M62.1,129.7L62.1,129.7
						c-0.1-0.1-0.1-0.2-0.2-0.2C62,129.6,62,129.6,62.1,129.7z M62.7,130.6c-0.1-0.1-0.2-0.2-0.3-0.4c0.1-0.1,0.2-0.1,0.2,0
						C62.6,130.2,62.7,130.4,62.7,130.6z M63.1,127.7c0.1,0.1,0.1,0.2,0.1,0.2c0-0.1-0.1-0.1-0.2-0.2l0,0
						C63,127.7,63,127.7,63.1,127.7z"/>
					<path class="st0" d="M62.6,127.6C62.6,127.6,62.6,127.6,62.6,127.6C62.6,127.6,62.6,127.7,62.6,127.6L62.6,127.6L62.6,127.6z"
						/>
					<path class="st0" d="M140.4,124.2L140.4,124.2C140.4,124.2,140.4,124.2,140.4,124.2C140.4,124.2,140.4,124.2,140.4,124.2z"/>
					<polygon class="st0" points="73,141.1 73.1,141 73,141 					"/>
					<path class="st0" d="M143,119C143,119,143,119,143,119C143.1,118.9,143,119,143,119z"/>
					<path class="st0" d="M143.8,116.6l0.2-0.3C143.9,116.5,143.8,116.6,143.8,116.6z"/>
					<path class="st0" d="M144.5,114.9c0,0-0.1-0.1-0.1-0.1l0,0L144.5,114.9z"/>
					<path class="st0" d="M129.6,139.9C129.6,139.9,129.5,139.9,129.6,139.9C129.4,140.1,129.5,140,129.6,139.9z"/>
					<path class="st0" d="M134.7,133.2c-0.1,0.1-0.1,0.2-0.2,0.2C134.6,133.4,134.7,133.4,134.7,133.2z"/>
					<polygon class="st0" points="120,144.5 120,144.5 119.9,144.5 					"/>
					<path class="st0" d="M134.1,133.6c0.2,0,0.3-0.1,0.4-0.2C134.3,133.5,134.2,133.5,134.1,133.6z"/>
					<path class="st0" d="M147,107L147,107c0-0.1,0-0.1,0-0.1L147,107z"/>
					<path class="st0" d="M147,106.9l0-0.1C147,106.8,147,106.9,147,106.9z"/>
					<path class="st0" d="M147,106.6l0,0.2C147,106.7,147,106.6,147,106.6z"/>
					<path class="st0" d="M146.1,109.4L146.1,109.4C146.2,109.4,146.2,109.4,146.1,109.4z"/>
					<path class="st0" d="M145.9,110.1c0.1-0.2,0.3-0.4,0.4-0.6l-0.1,0C146.3,109.6,145.8,109.9,145.9,110.1z"/>
					<path class="st0" d="M143.8,112.8l0.3-0.6c-0.1,0.1-0.3,0.2-0.3-0.1C143.3,112.8,144.1,112,143.8,112.8z"/>
					<path class="st0" d="M143.1,114.7c0.1-0.3-0.2,0-0.2-0.1C142.9,114.8,142.9,114.9,143.1,114.7z"/>
					<path class="st0" d="M138.8,128.3l-0.2-0.1C138.5,128.4,138.7,128.2,138.8,128.3z"/>
					<path class="st0" d="M138.4,131.4l0.3-0.1l-0.1-0.3C138.5,131.1,138.5,131.2,138.4,131.4z"/>
					<path class="st0" d="M136,130.9L136,130.9c0,0-0.1,0.1-0.2,0.2C135.9,131,136,130.9,136,130.9z"/>
					<path class="st0" d="M116.6,142.8l0.2,0.3C117,143,116.9,142.7,116.6,142.8z"/>
					<path class="st0" d="M106.6,145.2c-0.1-0.1-0.4-0.2-0.6,0C106.2,145.2,106.5,145.3,106.6,145.2z"/>
					<polygon class="st0" points="76.7,140.2 76.9,140.2 76.5,140.1 					"/>
				</g>
			</g>
		</g>
	</g>
</g>
<path class="st1" d="M144,92.5c6.7,9.1,0.3,34.4-13,46.1c-9,7.9-19,7.6-31,7.3c-12.1-0.3-22.8-0.6-32-9.7
	c-11.8-11.6-18.2-34.8-12-43.6c5.8-8.2,17.5,2.8,46,2.4C128.2,94.6,138.4,85,144,92.5z"/>
<g>
	<g>
		<g>
			<g>
				<g>
					<path class="st2" d="M62.4,115.4c0.2,0,0.2-0.2-0.1-0.4l-0.4,0.1L62.4,115.4z"/>
					<path class="st2" d="M60.9,113.4c-0.4-0.1-1-0.3-1,0.2c0.5,0,0.5,0.2,1.1,0.2c0.3,0.2,0.4,0.5,0.3,0.5c0.2,0,0.4,0.4,0.7,0.4
						c-0.2-0.5-0.6-0.9-1.2-1.1C60.7,113.4,60.9,113.4,60.9,113.4z"/>
					<path class="st2" d="M65.4,91.2l-0.2-0.1C65.2,91.1,65.3,91.1,65.4,91.2z"/>
					<path class="st2" d="M86.2,95.5c-0.2,0-0.2,0-0.2,0.1C86.1,95.6,86.2,95.6,86.2,95.5z"/>
					<path class="st2" d="M89.8,96.1c-0.1,0-0.1,0-0.2,0C89.7,96.1,89.7,96.2,89.8,96.1z"/>
					<path class="st2" d="M65.4,91.2l0.5,0.3C65.9,91.3,65.6,91.3,65.4,91.2z"/>
					<path class="st2" d="M57,110.6c0.1,0.1,0.2,0.1,0.3,0.2C57.2,110.7,57.1,110.7,57,110.6C57,110.6,57,110.6,57,110.6z"/>
					<path class="st2" d="M57.2,92.6l-0.1,0.1c0,0.1,0,0.1,0,0.2L57.2,92.6z"/>
					<path class="st2" d="M54.2,98.4c0-0.1-0.2-0.2-0.3-0.3c0.1,0.1,0.1,0.2,0.1,0.4C54,98.4,54.1,98.4,54.2,98.4z"/>
					<path class="st2" d="M56.8,108.6l0.2,0.1C56.9,108.7,56.9,108.7,56.8,108.6z"/>
					<path class="st2" d="M61.4,90.9C61.4,90.9,61.4,91,61.4,90.9C61.4,91,61.4,90.9,61.4,90.9z"/>
					<path class="st2" d="M52.4,101.6C52.4,101.6,52.4,101.6,52.4,101.6C52.4,101.5,52.4,101.5,52.4,101.6z"/>
					<path class="st2" d="M57.3,94.1l0,0.1c0,0,0.1,0.1,0.1,0.1L57.3,94.1z"/>
					<path class="st2" d="M96.5,96.6C96.5,96.6,96.5,96.6,96.5,96.6C96.3,96.6,96.4,96.6,96.5,96.6z"/>
					<path class="st2" d="M145.3,105.3c0.3-0.6,0.3,1.1,0.6,0.1C145.8,105.5,145.5,104.5,145.3,105.3z"/>
					<path class="st2" d="M56.9,110.4l-0.2-0.2C56.7,110.3,56.8,110.4,56.9,110.4z"/>
					<path class="st2" d="M145.9,105.4L145.9,105.4l0-0.1C145.9,105.4,145.9,105.4,145.9,105.4z"/>
					<path class="st2" d="M111.8,94.9c0,0-0.1-0.1-0.2-0.1C111.6,94.8,111.7,94.8,111.8,94.9z"/>
					<path class="st2" d="M100.4,95.8l0.3,0C100.6,95.8,100.5,95.8,100.4,95.8z"/>
					<path class="st2" d="M117.6,93.7c0.2,0,0.2,0,0.4,0c0,0,0,0-0.1,0C117.9,93.7,117.8,93.8,117.6,93.7z"/>
					<path class="st2" d="M123.7,93c0,0-0.1,0-0.1,0c-0.1,0-0.1,0-0.2,0L123.7,93z"/>
					<path class="st2" d="M66,115.5c-0.1-0.1-0.2-0.2-0.2-0.3C65.9,115.3,65,115.1,66,115.5z"/>
					<path class="st2" d="M57.1,110.5c-0.1,0-0.1,0-0.2-0.1C56.9,110.5,57,110.5,57.1,110.5C57,110.6,57.1,110.6,57.1,110.5z"/>
					<path class="st2" d="M117.5,91.5l1-0.1C118.2,91.4,117.9,91.5,117.5,91.5z"/>
					<path class="st2" d="M110.3,118.3l-0.2,0C110.2,118.4,110.2,118.3,110.3,118.3z"/>
					<path class="st2" d="M121.4,91c0.2,0.1,0.4,0.1,0.6,0.1c0,0,0.1-0.1,0.1-0.1L121.4,91z"/>
					<path class="st2" d="M65.9,115.1L65.9,115.1L65.9,115.1z"/>
					<path class="st2" d="M59.6,112.3c0.8,0.7,0.6,0,0.9,0c1,0.6,0.3,0.5,0.5,0.9c0.7,0.4,1.3,0.4,1.8,0.6c0,0.1,0.1,0.1-0.1,0.2
						c0.8,0.1,2.1,1,3.1,1c0.1,0.1,0.1,0.1,0.1,0.1c-0.1-0.2,0-0.4,0-0.5c0.4,0.1,0.8,0,0.9,0.3c-0.2-0.1-0.3,0-0.4,0l0.5,0
						c0.3,0.5-0.6-0.1-0.7,0.2c0.9,0.2,1.9,0.2,2.5,0.4c0.1,0.4-1.5-0.3-0.8,0.2c-0.3-0.1-0.6-0.3-1-0.4c0.6,0.8-0.6-0.2-0.1,0.5
						c1.3,0.5,1.5,0.3,2.9,0.6c0.3-0.1,0-0.3,0.3-0.4c1.9,0,1.4,1.1,2.8,0.9c0.4-0.2,0.6-0.6,1.5-0.2l-0.4,0.3
						c1.3,0.2,0.8-0.5,2.1-0.1c-0.3,0.1-1,0-0.8,0.1c0.8,0.4,0.6-0.2,1.3-0.1l0.1,0.4c1.4,0.1,2.9,0,4.4,0c-0.1,0.1-0.4,0.2,0,0.3
						c1.9,0,4.1,0.3,5.9,0.6l0.7-0.3c0.2,0,0.3,0.1,0.1,0.2c0.7,0.1,0-0.2,0.4-0.3c0.4,0,0.5,0.2,0.3,0.3c1.3-0.2,3.6-0.4,5,0
						l-0.3,0.1c1,0.2,1.2-0.6,2.2-0.3l-0.2,0c2.3,0.2,4.8-0.1,6.5,0.4c0.3-0.4,2.2,0.2,2.4-0.4c1.3,0.3,0.9,0.4,2.8,0.5
						c0.5,0,0.7-0.4,1.3-0.5l0,0.3l0.8-0.3l0.4,0.4l0.6-0.1c-0.2,0-0.5-0.1-0.5-0.2c0.9-0.2,2.2,0.1,2.2,0.3
						c0.7-0.1,1.4-0.2,2.1-0.4c0,0.1-0.4,0.2-0.7,0.3c1.1-0.4,0.2,0.3,1.2,0c-0.1-0.1,0.1-0.2,0.1-0.3c0.5,0.2,1.7,0.1,2.5,0
						l-0.1,0.2c1.6-0.1,3.3-0.3,5-0.5c-0.6,0-0.5-0.4,0-0.5l0.2,0.3c0.3-0.2-0.5-0.1,0.1-0.4c0.6,0,0.5,0.3,0.1,0.5l0.8-0.2
						c0.1,0.1-0.1,0.2-0.2,0.3c0.3-0.2,1.4,0.2,1.8-0.2l0.1,0.1c1.7-0.2,2.5-0.4,3.9-0.6c0-0.3,0.6-0.3,0.9-0.6c1,0,2.2,0,3.5-0.2
						c0.9-0.3,0.2-0.3,0.6-0.5c0.1,0.2,1.3,0.1,0.7,0.3c1.5-0.3,1.9-0.3,3.8-0.9c-0.2,0-0.5,0-0.4-0.2c0.3-0.1,0.8-0.1,0.8,0l-0.1,0
						c1-0.5,2.3-0.6,3.5-1.1c1.2-0.4,2.4-1.1,2.9-2l-0.1,0.1c0.4-0.5,0.7-1.1,1-1.7c0.5-0.8-0.1,0.6,0.4,0.1
						c0.4-1.1,0.6-1.9,0.8-2.6c0.2-0.8,0.4-1.5,0.3-2.3c0.4-0.6,0.4-1.8,0.3-3c-0.1-1.2-0.5-2.4-0.4-3.3l-0.1,0.1
						c-0.3-0.4,0-0.6-0.1-0.9c-0.1,0.1,0,0.5-0.2,0.3c-0.6-1.8-1.3-3.6-2.2-5.4c-0.5-0.9-1-1.7-1.6-2.6c-0.3-0.4-0.8-0.9-1.3-1.2
						c-0.5-0.4-1.2-0.7-1.8-0.8c-0.9-0.2-1.1,0.1-1.4,0.3c-0.3,0.2-0.6,0.3-1.4,0.2c0.1-0.1,0.3-0.3,0.5-0.4
						c-2.7,0.7-5.5,0.7-8.1,1.3c0.1-0.1,0.1-0.2,0.4-0.2c-0.6-0.2-2.1,0.2-2,0.4c-0.4,0-0.1-0.2-0.4-0.2c-0.6-0.1-1.4,0.5-1.7,0.3
						c-0.1,0,0.1-0.1,0.2-0.1c-0.3,0.2-1.7,0.2-1.3,0.4c-1,0-1.9,0.4-2.7,0.3c-0.5,0.4-1.7,0.1-1.8,0.5c0-0.5-1.8-0.1-2.4,0.1
						c0.2-0.2-0.6-0.1-0.3-0.3c-0.7,0.1-1.4,0.3-1.2,0.5c-1.4-0.4-2.6,0.8-3.4,0.2c-2.1,0.5-4,0.9-5.9,1.3c0-0.5,2.1-0.3,1.9-0.8
						c-1.8,0.4-2.8,0.9-4.5,1.1c-0.5,0,0.2-0.2,0.4-0.3c-1.8,0.4-3.5,0.3-5,0.7c0,0,0.2-0.1,0.3-0.1c-0.3,0-0.7,0-0.7,0.2l0.3-0.1
						c0.5,0.3-1.2,0.7-1.3,0.8c0.5-0.6-1.6-0.1-0.8-0.9c-0.2,0-0.5,0.2-0.4,0.3c-0.3,0-0.4-0.1-0.1-0.3c-1.1,0.2-0.7,0.3-1.7,0.4
						c0-0.1,0.2-0.1,0.3-0.3c-0.5,0.2-1,0.4-1.9,0.3c0.1-0.1,0-0.1,0.2-0.1c-1.5,0-2.5,0.5-4.2,0.2c0.5-0.4-0.5-0.2-0.6-0.6
						l-0.9,0.1l0.3,0.2c-0.8,0-1.5,0.2-2.1,0l0.6-0.1l-1.4-0.1l0.8,0.2c-0.8,0.1,0,0.5-1,0.3c0.2,0-0.8-0.1-1.1-0.3l0,0
						c-0.4,0.1-0.8,0.2-1.4,0c-0.1-0.1,0.2-0.4,0.1-0.5c-0.4,0.3-1.8-0.2-2.3,0.1c0.2-0.1,0.2-0.2,0.2-0.3l-0.3,0.2
						c-0.3-0.1-0.4-0.2-0.3-0.3c-1.1-0.2,0.3,0.5-1,0.1c0.1,0,0.1,0,0.3-0.1c-1.2-0.3-2.5-0.3-3.6-0.6c-0.3-0.4,1,0.1,0.7-0.3
						c-1.7-0.3-3.5-0.3-5.1-0.8l0.3,0.1c-0.4,0.5-1.1-0.6-2-0.5c0.2,0,0.3-0.2,0.3-0.2c-1.1-0.4-2.2-0.5-3.9-0.8l0.2-0.1
						c-0.6-0.3-1.7-0.6-2.4-0.8c-0.2,0.1-0.7,0-0.4,0.2c-1.1-0.6-2.3-0.5-3.3-0.2c-1.1,0.3-2,0.8-3,1.1c0.2-0.2,0.5-0.4,0.3-0.3
						c-0.5,0.4-1,0.7-1.4,1.2c0.3,0.1,0.3-0.1,0.7-0.2c-0.1,0.3-0.4,0.6-0.7,0.9c0.4-0.6-0.3-0.3-0.6-0.1c0.1,0,0.1,0.1,0.1,0.2
						c-0.9,0.4,0.2,0.4-0.7,1.2L55,93.6c-0.2,0.4-0.3,0.9-0.5,1.3c-0.3,0.1,0.1-0.5-0.1-0.6c-0.3,0.6-0.2,1.4-0.6,1.9
						c0-0.3,0.2-0.7,0.2-1c-0.6,0.5-0.5,0.6-0.7,1.1l0,0c-0.2,0.4-0.3,0.7-0.5,1.1c0-0.1,0.1-0.2,0.2-0.3c0.5,1-0.3,1.8,0.2,3
						c-0.4-1.1-0.2-0.2-0.5-0.3c-0.1,0.3-0.2,0.8-0.3,0.6c0.3,0.6-0.2,1,0.3,1.8c-0.1,0.1,0.1,0.6-0.2,0.5c0.3,0.7,0.1-0.2,0.3-0.2
						c0.3,0.5,0.4,1.2,0.5,1.9c0.2,0.7,0.4,1.5,1,2.1c0.8,1.1,1.3,1.1,2.1,2.1c0.1,0.2-0.1,0.2-0.2,0.1c-0.1-0.1-0.3-0.2-0.3-0.2
						c0.3,0.6,0.6,1,1.1,1.5c-0.1,0-0.1,0.1-0.1,0.3c0.4,0.4,0.5,0,0.8,0.6c-0.2,0-0.4,0-0.6-0.1c0.5,0.4,1,0.7,1.5,1.1
						c0,0.2-0.5-0.1-0.7-0.2c0.6,0.5,1.4,1.2,1.8,1.1l-0.3-0.4c0.2,0.2-0.1,0.3-0.2,0.2c-0.6-0.3-0.6-0.7-0.5-0.8l0.4,0.3
						c0.1-0.7-1.3-1.2-1.9-1.9l0.6,0c-0.3-0.1-0.6-0.3-0.9-0.5c0-0.2,0.1-0.5,0.4-0.2c-0.3-0.6-0.5-0.3-0.6-0.9c0-0.1,0-0.1,0.1,0
						c-0.2-0.1-0.3-0.3-0.5-0.4c0.1,0,0.2-0.3,0.3,0.1c-0.4-1-1.3-1.3-1.2-1.8l0.1,0.1c-0.9-1.3-0.4,0-1.2-0.9
						c0.1-0.3,0.2-0.7,0.4-1l-0.3,0c0-0.2-0.1-0.5,0-0.4c-0.4-0.5-0.1,0.1-0.4-0.1c0-0.8-0.7-2-0.2-2.3c-0.3-0.2-0.1,0.8-0.4,0
						c0.5-0.3-0.2-0.9,0-1.7c0.3,0.2,0.1,0.9,0.4,0.2c-0.2-0.2-0.2-0.5-0.1-0.9c0.1-0.3,0.3-0.7,0.3-1c-0.4-0.1,0.1-1.3,0.3-2.2
						c0.1,0.1,0.2-0.4,0.5-0.9c0.3-0.5,0.7-1.1,1-1.4l0,0.1c-0.1-0.2,0-0.4,0.2-0.7c0.2-0.3,0.5-0.6,0.7-0.8
						c0.1,0.2,0.1,0.3-0.1,0.6c0.1-0.2,0.3-0.3,0.4-0.4c0-0.2,0.1-0.4,0.4-0.6c0,0.1,0,0.2,0,0.3c0.6-0.5,1.2-1.2,2.2-1.3
						c0-0.3-1.1-0.4,0.1-0.9c0.1,0.1,0.2,0.3-0.1,0.5c0.1,0,0.3-0.2,0.5-0.2l-0.4,0.3c0.5,0,0.2-0.2,0.6-0.3c0,0.2,0.3,0.1,0.3,0.3
						c-0.1,0-0.3,0-0.5,0.1c0.4-0.1,1,0,1.1,0.2c0-0.1,0-0.3,0.3-0.3c0.8,0,0.3,0.2,0.7,0.4c0.2-0.1,0.7,0.1,0.8-0.2
						c0.2,0,0.3,0.2,0.3,0.3c0.4-0.1,2,0.4,1.6,0L65,91c0,0,0,0,0.1,0l0,0l0,0c1.5,0.1,2.9,1,4.4,1.3l0,0.1c0.9,0.1,1.9,0.4,2.6,0.4
						c0.3,0.1,0.6,0.3,0.4,0.4c0.7,0.1,0.8,0,1.7,0.4c-0.7,0,0.2,0.2-0.7,0c0.8,0.3,1,0.5,2,0.4c-0.4,0.2,0.6,0.5,1,0.5l-0.6-0.3
						c0.5,0.1,0.9,0.1,1.3,0.2l-0.3,0.3c1.7,0.7,3.3-0.1,4.6,0.7c0.5-0.2-1-0.3-0.5-0.5c0.8,0.2,1.6,0.7,1.9,0.8
						c1.1,0.3,1.1-0.4,2.3-0.1c-0.1-0.1-0.3-0.5,0.6-0.5c0.8,0.1,1,0.6,0.4,0.6c-0.2,0-0.3-0.1-0.3-0.1c-0.3,0-0.6,0-0.3,0.2
						l0.1-0.1c0.4,0.2,1.5,0.2,1.3,0.4c0.6-0.1,0.3-0.2-0.2-0.3c1.1,0.3,1.7,0.1,2.8,0.3c-0.2-0.1-0.3-0.2-0.2-0.2
						c1.6,0.2,0.7-0.2,1.8-0.2c0.6,0.2-0.2,0.4,0.9,0.3c0.7,0.1,0.1,0.3-0.1,0.4c1-0.2,1.9,0.2,2.5,0.2l-0.5,0.1
						c0.3-0.1,0.6-0.1,0.8-0.1l-0.3-0.2c0.3,0,0.6,0,0.6,0.1c0.3-0.2-0.2-0.4,0.4-0.6c0.4,0.1,1.3-0.1,1.4,0.2
						c-1.3-0.1,0.2,0.3-0.9,0.4c0.2,0,0.5,0,0.8,0c0,0,0,0.1-0.1,0.1c1.3,0.2,0.6-0.4,1.9-0.4c-0.2,0.2,0.3,0.3,0.5,0.3
						c-0.5,0-0.3-0.3,0.2-0.4c0.8,0.1,0.9-0.2,1.3-0.2l-0.5,0c0.2-0.2,0.6-0.2,1.1-0.3c0.1,0.1-0.5,0.1-0.3,0.2
						c0.6-0.3,1.5,0.2,2.3-0.1c0.4,0.1,0.1,0.3,0.4,0.4c1-0.4,1.1,0.1,2.1-0.2c-0.3-0.2-0.4-0.1,0.3-0.5l-1.7,0.4l1.1-0.5
						c-0.5,0.1-1.1,0.3-1.4,0.3c0.5-0.3,0.5-0.2,0.2-0.4c0.7,0.3,1.4-0.4,2.2-0.3l0,0.6c1.3,0.1,2.1-0.6,3.7-0.7l-0.5,0
						c0.2-0.3,1-0.2,1.5-0.3c0,0.2,0.3,0.2,0.5,0.3c0-0.1,1.2-0.1,1.3-0.6l0.7,0.2c1.3-0.1,1.4-0.7,2.6-0.8
						c-0.3,0.3,0.2,0.3-0.6,0.6c0.4,0,0.8-0.1,0.8-0.2c0.3,0.1,1.1-0.4,1.5-0.3c0.2-0.1,0.2-0.3,0.7-0.4c0.1,0,0,0.1,0,0.1
						c0-0.1,0.7-0.2,0.3-0.4c1.3,0.5,3.5-0.5,4.7-0.1c0.9-0.2,2-0.4,2.8-0.5c0,0.1,0,0.1-0.1,0.1c1.1,0,0.6-0.6,1.9-0.6
						c0.7,0.2-0.7,0.3-0.2,0.3c0.3,0.6,1.5-0.3,2.4,0l-0.2,0.1c0.7,0.1,1.6-0.4,2.6-0.5c0,0,0,0.1,0,0.1c0.7-0.4,2.1-0.7,3.1-0.9
						c-0.3,0.3-0.5,0.2-0.2,0.4c0.5-0.1-0.2-0.4,0.7-0.6c0.3,0.1,1,0.1,1.1,0.4l-0.9,0.1c0.5,0.3,1.1-0.2,1.6-0.1l0,0.2
						c0.6-0.1,0.9-0.2,1.2-0.2c0.3-0.1,0.6-0.1,1.2,0.2l-0.1-0.2c0.4,0,0.5,0.2,0.6,0.3c0.1,0.2,0.1,0.3,0.5,0.5l-0.1,0.4
						c0.4,0.3,1.4,1.1,1.9,1.9c-0.5-0.3-1.2-1.1-1.8-1.5c0.3,0.4,1,1.3,1.3,1.4c-0.1-0.1-0.4-0.3-0.4-0.5c0.6,0.3,1.2,0.9,1.6,1.8
						c-0.4,0.1-0.1,0.7,0.1,1.4c0.3,0.7,0.5,1.5,0.4,2c0.8,1.6,0.7,3.4,0.7,5.3c0.6-0.7,0,0.6,0.6,0.5c0,0.5,0,0.7,0,0.7
						c-0.2,0.5-0.3,0.9-0.5,1.4c-0.2,0.3-0.1-0.4-0.2-0.4c-0.2,1-0.3,0.4-0.6,0.9c0.2-0.1,0.2,0.4,0,0.9c0.2-0.2,0.3-0.4,0.5-0.6
						c0,0.7-0.3,0.9-0.5,1.1c-0.2,0.2-0.4,0.4-0.7,1l0.1-0.4c-0.1,0.3-0.4,0.8-0.8,1.2c-0.4,0.5-0.8,0.9-1,1.3
						c-0.1,0-0.4-0.1-0.1-0.2c-1.4,0.8-3.3,2-4.8,2l0.1-0.2c-0.3,0.1-0.5,0.4-1,0.3c0-0.1,0.1-0.2,0-0.2c-0.2,0.1-0.8,0.4-1.3,0.4
						l0.4-0.2c-1.8,0.1-2.7,0.8-4.2,1.1c-0.1-0.4-1.5-0.4-2.2-0.4l0-0.1c-2.1,0.2-3.5,0.8-5.4,1.1c-1.3-0.4-4.1,0.2-6.1,0
						c0.3,0.1,0,0.3-0.4,0.4c-0.5-0.1-1.2,0.4-1.2,0l0.2,0c-0.4-0.4-1.3-0.2-2-0.2l-0.1,0.5c-2-0.7-5,0.5-6.1-0.1
						c-0.5,0.1-1,0.2-1.5,0.3l0-0.3c-1.3,0-1.9-0.1-3.5,0l0.3-0.2c-0.9,0-1.1,0.8-2,0.9l-0.3-0.4c-1.6,0-3.1-0.4-4.7,0
						c0-0.1,0.1-0.2,0.3-0.2c-0.7,0-2.8-0.3-2.6,0.2c0-0.4-1.6-0.1-2.5,0.1l0.1-0.3c-0.7,0.3-0.8,0.4-1.8,0.5
						c-0.2,0-0.2-0.2,0.1-0.1c-0.8-0.2-0.6,0.2-1.6,0l0.4-0.2c-0.8-0.1-0.7,0-1.2,0.2c-0.5,0.1-1.5-0.2-1.6-0.4
						c-0.1,0.1-0.6,0.3-1,0.2c-0.1-0.1,0.1-0.1,0.2-0.2c-1.3-0.3-2,0.2-2.9-0.2c0-0.1-0.1-0.1-0.1-0.2c1.1,0.1,1.9,0.2,1.9,0.2
						c0-0.3-0.8-0.4-0.1-0.7c-0.7,0.1-1.9,0.5-2.8,0.3c0,0-0.1-0.1-0.1-0.1l0.1,0c-0.2,0-0.4,0-0.5,0c-0.3-0.1-0.4-0.1-0.7-0.1
						c-0.1-0.2-1-0.2-1.4-0.3c0,0.3-0.6,0.2,0,0.5c-0.1,0,0.1,0,0.4,0c0.1,0,0.1,0,0.2,0l0,0c0.3,0,0.7,0,1.1,0.1
						c-0.4,0.1-0.7,0.2-1.2,0c-0.2,0.2-0.5,0.3-0.6,0.4c-0.6-0.4-1.7-0.8-1.8-1c-1.3,0-3.1-0.2-4,0.2c-0.4,0-0.4-0.2-0.5-0.3
						c0.2,0,0.5,0,0.6,0c-0.8,0-2.2-0.3-2.4,0c-0.9-0.4,0.6-0.2-0.7-0.4l0.2-0.1c-1.2-0.6-2.2-0.6-3.2-0.8c-1-0.2-2.2-0.4-3.2-1.4
						c0.1,0.1,0.2,0.2,0.2,0.3c-1.3-0.9-2.6-1.8-3.7-3c-1.2-1.1-2.2-2.4-2.9-3.9c-0.4-0.8-0.7-0.8-1.1-1.1l0.1-0.3l-0.8-0.6
						c-0.5-0.5-0.6-1.1-0.6-1.6c0-0.6,0.2-0.8,0.3-1.7l-0.3,0.1c0.3-0.5,0.8-1.8,0.9-1.6c0-0.1-0.1-0.3,0.1-0.4l0.1,0.1l0.5-1.5
						c0.6-1,0.5,0.5,1.3-1c0.2-0.6,0.4-1.8,0.2-1.6c-0.1,0.2-0.4,0.5-0.5,0.5l0.2-0.6c-0.4-0.3-0.6-0.9-1.5,0.2l-0.2,1l-0.3,0.2
						l0.4-0.7c-0.4,0.3-0.4,0.7-0.4,1c-0.1,0-0.3,0.1-0.4,0.3l-0.1,1.1c-0.2,0-0.1-0.6-0.5,0c0,0.5,0.6-0.2,0.3,0.5
						c-0.4,0.3-0.5,0.1-0.6,0.7c-0.1,0-0.2-0.1-0.1-0.3c-0.1,0.5-0.6,1.2-0.5,1.6c-0.2,0.2-0.4,0.7-0.5,1.1
						c-0.1,0.5-0.1,0.9-0.3,0.9c0.1,0.1,0.2,0.4,0.3,0.7c0.2,0.3,0.4,0.6,0.5,0.9c-0.4-0.4-0.3,0.2,0,0.7c0.3,0.5,0.6,1,0.3,1
						c0.7,0.2,1.4,1.7,2.3,2.5c-0.1,0-0.2-0.1-0.2-0.2c0.3,0.5,0.3,0.8,0.5,1.1c0.4-0.2,1,0.6,1.6,0.8c0.2,0.8-0.7-0.1-0.8,0.4
						c0.2-0.2,1.1,0.8,1.2,0.5c0.2,0.6,0.3,0.5,0.2,0.9c0.4-0.3,0.5,0.4,1,0.5c0.5,0.8-0.1,0.5,0.7,1
						C60.4,112.8,59.6,112.3,59.6,112.3z M81.2,117.4L81.2,117.4c-0.2,0-0.3,0-0.5,0C80.8,117.3,80.9,117.3,81.2,117.4z M83,117.5
						c-0.2,0-0.5-0.1-0.8-0.1c-0.1-0.1,0-0.2,0.2-0.2C82.3,117.3,82.7,117.4,83,117.5z M79.3,115.2c0.3,0,0.4,0.1,0.4,0.1
						C79.6,115.3,79.4,115.3,79.3,115.2c-0.1,0.1-0.1,0.1-0.1,0.1C79.2,115.3,79.2,115.3,79.3,115.2z"/>
					<path class="st2" d="M78.8,115.6c0,0-0.1,0-0.1,0C78.7,115.6,78.7,115.6,78.8,115.6c0.1,0.1,0.1,0,0.2,0
						C78.9,115.6,78.8,115.6,78.8,115.6z"/>
					<path class="st2" d="M65.1,91.1L65.1,91.1C65.1,91.1,65.1,91,65.1,91.1C65.1,91,65.1,91.1,65.1,91.1z"/>
					<polygon class="st2" points="108.3,118.5 108.3,118.5 108.1,118.5 					"/>
					<path class="st2" d="M55.6,92.3c0,0-0.1,0-0.1,0.1C55.5,92.4,55.5,92.4,55.6,92.3z"/>
					<path class="st2" d="M53.3,96.2L53,96.8C53.1,96.6,53.2,96.4,53.3,96.2z"/>
					<path class="st2" d="M52.5,99.7c0,0,0.1,0.1,0.1,0.1l0,0L52.5,99.7z"/>
					<path class="st2" d="M100,94c0,0,0.1,0,0.1,0C100.5,93.9,100.3,93.9,100,94z"/>
					<path class="st2" d="M84.4,94.3c0.2,0,0.3-0.1,0.5-0.1C84.6,94.2,84.4,94.1,84.4,94.3z"/>
					<polygon class="st2" points="117.4,91.5 117.4,91.5 117.5,91.5 					"/>
					<path class="st2" d="M85.6,94.3c-0.3-0.1-0.5-0.1-0.7-0.1C85.1,94.3,85.4,94.3,85.6,94.3z"/>
					<path class="st2" d="M59.1,112.8l0.1,0.1c0,0,0,0,0,0L59.1,112.8z"/>
					<path class="st2" d="M59.2,112.9l0.2,0.1C59.3,113,59.3,112.9,59.2,112.9z"/>
					<path class="st2" d="M59.7,113.2l-0.3-0.2C59.5,113.1,59.6,113.2,59.7,113.2z"/>
					<path class="st2" d="M56.1,109.4l-0.1,0C56,109.4,56,109.4,56.1,109.4z"/>
					<path class="st2" d="M55.2,108.3c0.2,0.3,0.3,0.8,0.6,1.1l0.1,0C55.7,109.3,55.6,108.4,55.2,108.3z"/>
					<path class="st2" d="M54,102.7c0.1,0.4,0.1,0.7,0.2,1.1c0-0.2,0.1-0.5,0.3,0C54.5,102.3,54.4,104,54,102.7z"/>
					<path class="st2" d="M53.9,99.4c0,0.6,0.1,0,0.2,0C54.1,99,54.1,98.9,53.9,99.4z"/>
					<path class="st2" d="M72.7,93.4l-0.1,0.2C73,93.7,72.6,93.5,72.7,93.4z"/>
					<polygon class="st2" points="77.7,93.1 77.3,92.8 77,93 					"/>
					<polygon class="st2" points="80.2,95.3 80,95.3 80.8,95.4 					"/>
					<path class="st2" d="M122.6,93.4l-0.2-0.3C122.1,93.2,122.1,93.5,122.6,93.4z"/>
					<path class="st2" d="M140.3,91.4c0.1,0.2,0.3,0.5,0.6,0.6C140.7,91.8,140.4,91.5,140.3,91.4z"/>
					<polygon class="st2" points="113,115.8 113.4,115.7 112.7,115.8 					"/>
				</g>
			</g>
		</g>
	</g>
</g>
<path class="st3" d="M144,92.3c3.5,4.4,4.5,11.5,2,16.4c-4.7,9.3-19.9,9.4-46,9.3c-25.9-0.1-41-0.4-45.6-9.7
	c-2.4-4.7-2.1-11.9,1.6-15.9c7.1-7.7,20.3,2.6,46,2.3C128.2,94.2,138.4,85.3,144,92.3z"/>
<g>
	<g>
		<g>
			<g>
				<g>
					<path class="st2" d="M102.1,146.9c0.1,0,0.3-0.1,0.2-0.1C102.2,146.9,102.1,146.9,102.1,146.9
						C102,146.9,102.1,146.9,102.1,146.9z"/>
					<path class="st2" d="M102.6,146.5c-0.2,0-0.4,0.2-0.6,0.4c0.2-0.2,0.1-0.1,0.5-0.3c0.1,0-0.1,0.1-0.2,0.1c0.1,0-0.1,0,0.1,0
						c0.2-0.1,0.2-0.2,0-0.1C102.5,146.6,102.5,146.6,102.6,146.5z"/>
					<path class="st2" d="M97.8,145.9L97.8,145.9C97.8,145.9,97.8,145.9,97.8,145.9z"/>
					<path class="st2" d="M95.1,148C95.1,148,95.1,147.9,95.1,148C95.1,148,95.1,148,95.1,148z"/>
					<path class="st2" d="M94.5,148.4C94.6,148.4,94.6,148.4,94.5,148.4C94.5,148.4,94.5,148.4,94.5,148.4z"/>
					<path class="st2" d="M97.8,145.9l-0.1-0.1C97.7,146,97.7,145.9,97.8,145.9z"/>
					<path class="st2" d="M101.8,146.9C101.8,146.9,101.8,146.9,101.8,146.9L101.8,146.9L101.8,146.9z"/>
					<path class="st2" d="M99.1,145.4L99.1,145.4c0,0,0-0.1,0-0.1L99.1,145.4z"/>
					<path class="st2" d="M100.2,145.2c0,0,0,0.3,0,0.4c0-0.1,0-0.2,0-0.2C100.2,145.4,100.2,145.3,100.2,145.2z"/>
					<path class="st2" d="M101.9,145.8L101.9,145.8C101.9,145.8,101.9,145.8,101.9,145.8z"/>
					<path class="st2" d="M98.3,145.4C98.3,145.4,98.3,145.4,98.3,145.4C98.3,145.4,98.3,145.4,98.3,145.4z"/>
					<path class="st2" d="M101.9,147.7C101.9,147.7,101.9,147.7,101.9,147.7C101.9,147.7,101.9,147.7,101.9,147.7z"/>
					<polygon class="st2" points="101.6,146 101.6,146 101.7,145.8 					"/>
					<path class="st2" d="M93.9,149.4L93.9,149.4C93.9,149.4,93.9,149.4,93.9,149.4z"/>
					<path class="st2" d="M98.5,157.5c-0.1-0.3,0.3-0.3,0.1-0.6C98.6,157,98.3,157.3,98.5,157.5z"/>
					<path class="st2" d="M101.8,146.9C101.8,146.9,101.8,146.9,101.8,146.9C101.8,146.9,101.8,146.9,101.8,146.9z"/>
					<path class="st2" d="M98.6,156.9L98.6,156.9L98.6,156.9C98.6,156.8,98.6,156.9,98.6,156.9z"/>
					<path class="st2" d="M93.9,151.9c0,0,0.1,0,0.1,0C94,151.8,94,151.8,93.9,151.9z"/>
					<path class="st2" d="M94.4,150.1L94.4,150.1C94.4,150.2,94.4,150.1,94.4,150.1z"/>
					<path class="st2" d="M94.4,152.7C94.3,152.8,94.3,152.8,94.4,152.7C94.3,152.8,94.4,152.8,94.4,152.7
						C94.3,152.8,94.3,152.8,94.4,152.7z"/>
					<path class="st2" d="M94.7,154C94.7,154,94.7,153.9,94.7,154L94.7,154L94.7,154z"/>
					<path class="st2" d="M103.7,149c0.1-0.1,0.1-0.1,0.2-0.2C103.7,149,103.6,148.9,103.7,149z"/>
					<path class="st2" d="M101.8,146.8c0,0.1,0,0.1-0.1,0.1c0,0,0,0,0,0C101.8,146.8,101.8,146.8,101.8,146.8z"/>
					<path class="st2" d="M96.6,152.6C96.6,152.6,96.5,152.6,96.6,152.6C96.6,152.6,96.6,152.6,96.6,152.6z"/>
					<path class="st2" d="M102.8,153.6L102.8,153.6C102.8,153.5,102.8,153.5,102.8,153.6z"/>
					<path class="st2" d="M96.6,152.7c-0.1,0-0.1,0.1-0.2,0.1c0,0,0,0,0.1,0L96.6,152.7z"/>
					<path class="st2" d="M103.9,148.8L103.9,148.8L103.9,148.8z"/>
					<path class="st2" d="M102.9,148.8c0.1,0.1,0.3-0.2,0.4-0.4c0.2,0-0.1,0.2-0.2,0.4c0.1,0,0.4-0.2,0.4-0.2c0,0-0.1,0.1-0.1,0.1
						c0.3-0.1,0.2,0.2,0.5,0c0,0,0,0-0.1,0.1c0.1-0.1,0.3-0.2,0.4-0.3c0,0,0.2-0.1,0.1,0.1c0,0-0.1,0-0.2,0.1l0.1,0
						c-0.3,0.2-0.1,0-0.3,0.2c0.1,0,0.5,0,0.4,0.1c-0.3,0.2-0.2-0.1-0.4,0.2l0-0.2c-0.4,0.4,0-0.1-0.4,0.3c0,0.2,0.2,0,0.2,0.2
						c0.2-0.1,0.2-0.1,0.4-0.2c0.4,0-0.7,0.5-0.2,0.4c0.2-0.1,0.6-0.2,0.5,0l-0.4,0.1c0,0.1,0.5-0.1,0.3,0.1c-0.1,0-0.2-0.1-0.2,0
						c-0.3,0.2,0.2,0,0.2,0.1l-0.3,0.1c0.1,0.1,0.3,0.2,0.4,0.4c-0.1,0-0.2,0-0.3,0c0.2,0.2-0.1,0.3-0.3,0.4l0.3,0.1
						c0,0-0.1,0-0.2,0c-0.1,0,0.2,0.1,0.3,0.1c0,0-0.2,0-0.3-0.1c0.2,0.2,0.3,0.6,0,0.6l-0.1-0.1c-0.2,0.1,0.5,0.4,0.2,0.4l0,0
						c-0.3,0.2-0.2,0.7-0.7,0.7c0.4,0.2-0.3,0.2,0.2,0.5c-0.3,0-0.4-0.1-0.7,0.1c-0.1,0,0.3,0.3,0.3,0.4l-0.3-0.1l0.2,0.3l-0.4-0.1
						l0,0.1c0,0,0.2,0,0.2,0c0.1,0.2-0.3,0.2-0.5,0.1l0.1,0.4c-0.1-0.1-0.1-0.1-0.2-0.2c0.2,0.3-0.3-0.1-0.1,0.1
						c0.1,0,0.2,0.1,0.2,0.1c-0.2,0-0.2,0.1-0.2,0.1l-0.2-0.1c-0.1,0,0,0.1,0,0.1c0.1,0.1,0.3,0.4,0.2,0.4l-0.2-0.3
						c0.1,0.2,0.1,0.1,0.2,0.3c-0.1,0-0.2-0.3-0.2-0.4c0,0,0,0.1,0,0.1c0-0.1-0.1-0.1-0.1-0.3c0.1,0.2-0.1-0.3-0.1,0l0-0.1
						c-0.2,0-0.3,0.2-0.5,0.2c0.1,0.3,0,0.2,0,0.5c-0.2-0.1-0.4-0.2-0.5-0.2c-0.1,0.2,0,0.2,0,0.4c-0.1-0.2-0.2-0.2-0.2-0.4
						c-0.2,0.1-0.3,0.1-0.5,0.4c0.1,0.1,0.1,0.1,0.1,0.2c0,0.1-0.1-0.1-0.2-0.2l0,0c-0.2,0.4-0.9-0.6-1,0l0,0l-0.1,0.3
						c-0.1,0,0-0.2-0.1-0.3c-0.2,0.5-0.2,0-0.3,0.3c0-0.4,0-0.4,0-0.3c0,0-0.1,0.1,0-0.1l-0.1,0.2c-0.1,0.1,0.1-0.1,0.1-0.1
						c-0.1,0.1-0.1,0.1-0.2,0.2c-0.1,0-0.1,0-0.1-0.1c0-0.1,0.1-0.2,0.2-0.2l0.1,0c0,0,0-0.1,0-0.2c0-0.1,0-0.3-0.1-0.5
						c-0.1-0.2-0.3-0.2-0.5-0.2c-0.2,0-0.3,0.1-0.4-0.3c0.1,0,0.2-0.1,0.4-0.1c-0.6-0.3-1.1-0.4-1.3-0.5c-0.1,0-0.1,0-0.2,0.1
						c0-0.1,0.1-0.2,0.1-0.2c0-0.1,0-0.1,0-0.1c0,0-0.1,0.1-0.2,0.2c0,0,0.1-0.2,0.2-0.2c0.1-0.1-0.2,0.2-0.1,0c0,0,0.1-0.1,0.1-0.1
						c-0.1,0.1,0,0-0.2,0.1c0.1-0.1-0.1,0,0-0.1c-0.3,0.1,0.1-0.1-0.3,0c0.4-0.1,0.3-0.1,0.1-0.2c0.1,0,0.1-0.1,0.3-0.1
						c0-0.1-0.1-0.1-0.3-0.1c0.5-0.2-0.4-0.3,0.2-0.5c-0.2-0.3-0.4-0.6-0.5-0.8c0.4,0,0,0.3,0.5,0.3c-0.2-0.2-0.6-0.4-0.4-0.6
						c0.1-0.1,0.2,0,0.3,0.1c-0.2-0.2,0.1-0.4-0.2-0.7c0,0,0.1,0,0.1,0.1c0,0,0.1-0.1-0.1-0.1l0.1,0c-0.3,0-0.6-0.2-0.8-0.3
						c0.6,0.2,0.2-0.2,0.9,0c0,0-0.1-0.1-0.3-0.1c0,0,0.1,0,0.3,0c-0.1-0.2-0.3-0.1-0.3-0.3c0.1,0,0.1,0.1,0.2,0.1
						c-0.2-0.1-0.4-0.2-0.2-0.3c0.1,0,0.1,0,0.1,0.1c0-0.2-0.4-0.4-0.2-0.6c0.4,0.2,0.2,0,0.5,0.1l-0.1-0.1l-0.2,0
						c0-0.1-0.2-0.3,0-0.3l0.1,0.1c0-0.1,0-0.1,0-0.2c-0.1,0-0.1,0-0.2,0c-0.1-0.2-0.4-0.2-0.3-0.3c0,0,0.1-0.1,0.3,0l0,0
						c-0.1-0.1-0.2-0.2,0-0.2c0.1,0,0.3,0.2,0.4,0.3c-0.2-0.2,0-0.2-0.2-0.5c0,0.1,0.2,0.2,0.2,0.2l-0.2-0.2c0.1,0,0.1,0,0.2,0.1
						c0.1-0.1-0.4-0.3-0.1-0.3c0,0,0,0,0.1,0.1c0.2,0,0.1-0.3,0.3-0.3c0.3,0.3,0,0.1,0.2,0.4c0.1-0.2,0-0.6,0.3-0.6l-0.1,0
						c-0.2-0.5,0.3,0.1,0.2-0.1c0,0,0.1,0.3,0.1,0.2c0.2,0,0.2-0.2,0.3-0.5l0,0.1c0.1,0.1,0.2,0,0.3,0c0-0.1,0-0.1,0-0.3
						c0.4,0.7,0.5-0.5,0.8,0.1c0,0-0.1,0.1,0,0.1l0.2-0.2c0-0.2,0-0.1-0.1-0.3c0-0.1,0.1-0.3,0.1-0.3c-0.1,0.2,0,0.4,0.1,0.5
						c0-0.1,0-0.1,0-0.2c0.2,0.4,0-0.5,0.2-0.2l0,0.1c0.1-0.1,0.1-0.2,0.2-0.2c0,0.3-0.1,0.1,0,0.3c0.1,0,0.2-0.5,0.3-0.3
						c0,0.1-0.1,0.1-0.1,0.2c0.1,0.3,0.1,0.2,0.2,0.3l0,0l0.2,0.1l0-0.1c0.1-0.7,0.2-0.1,0.4-0.6c-0.1,0.4,0,0.3,0,0.6
						c0,0.1,0.1,0.2,0.1,0.3c0.1-0.2,0.1,0.2,0.2-0.2c0,0.1,0.1,0,0.1,0.3c0.1-0.1,0-0.2,0-0.3c0.2-0.3,0.3,0.4,0.5,0
						c0.2-0.2,0.2-0.5,0.5-0.6c0,0.2-0.1,0.3-0.1,0.3c0.1,0.2,0.1,0.1,0.2,0.1c0,0.1,0,0.2-0.1,0.3c0.1,0,0.2-0.3,0.2-0.2
						c-0.1,0.1-0.1,0.2-0.2,0.3c0.1-0.1,0.2-0.2,0.3-0.3c-0.1,0.2-0.2,0.2-0.2,0.3c0.1,0,0.2-0.1,0.4-0.3l0-0.1c0,0-0.1,0.2-0.2,0.2
						c-0.2,0.2,0-0.1,0-0.2l0.1,0c0.3-0.5-0.2,0-0.3-0.1l0.2-0.4c-0.1,0.1-0.2,0.2-0.2,0.3c0-0.1,0-0.3,0.1-0.4
						c0-0.2-0.1,0.1-0.1-0.1c0,0,0-0.1,0-0.1l-0.1,0.1c0-0.1,0-0.3,0.1-0.2c-0.1-0.3-0.3,0.3-0.4-0.1l0,0c-0.3,0.1-0.1,0.3-0.2,0.6
						c0-0.3-0.1-0.5-0.1-0.8l0,0.3c0,0-0.1,0-0.1-0.2c-0.1,0.2,0,0.1,0,0.3c-0.1-0.3-0.3,0.1-0.3-0.4c0,0.2,0.1,0.2,0,0.3
						c0-0.5-0.1,0.1-0.2-0.1c0-0.3,0.1-0.1,0-0.4c0,0.5-0.2-0.1-0.3,0c0,0.4-0.2,0.2-0.3,0.3c0-0.1-0.3-0.2-0.4-0.3l0-0.1
						c0,0.4-0.1,0.3-0.2,0.4c0-0.2,0-0.3,0-0.4l-0.1,0c0,0.1,0,0.2-0.1,0.2l0-0.3c-0.1,0-0.2,0.4-0.4,0.2c0,0.3,0.3,0.7,0.1,0.9
						c0-0.1-0.1-0.4,0-0.4c0,0,0,0.1-0.1,0.1l0-0.2c-0.1-0.1,0,0.2-0.1,0.2c0-0.2-0.1-0.1-0.1-0.3c0,0,0.1,0.1,0.1,0
						c-0.1,0-0.2-0.1-0.2-0.3c0,0.1,0.1,0.3,0,0.3c-0.1,0-0.1-0.2-0.2-0.3c0,0.1-0.1,0,0,0.3c0,0-0.1-0.1-0.1-0.2
						c0,0.1-0.3,0.1-0.1,0.4l0,0c0,0,0,0,0,0l0,0l0,0c-0.1,0.3-0.5,0-0.7,0.2l0-0.1c-0.1,0.2-0.2,0.2-0.2,0.4c0,0-0.2-0.1-0.2-0.2
						c-0.1,0.1,0,0.2-0.2,0.2c0-0.2-0.1-0.1,0-0.2c-0.2,0-0.3-0.1-0.3,0.2c-0.1-0.2-0.3-0.2-0.3-0.1l0.2,0.1c0,0.1-0.1,0.1-0.2,0.1
						l-0.2-0.3c-0.6,0,0.1,0.9-0.5,0.6c0.1,0.2,0.2,0,0.4,0.2c-0.1,0.1-0.6-0.1-0.6,0c-0.3,0.1,0.3,0.4,0.1,0.5
						c0.1,0,0.4,0.2,0.4,0.3c-0.1,0.1-0.5-0.1-0.6-0.2c0,0,0,0,0.1,0c0-0.1,0-0.1-0.2-0.1l0.1,0.1c-0.1,0-0.2,0.2-0.4,0.1
						c0.1,0.1,0.2,0.1,0.2,0.1c-0.2,0.1-0.1,0.3-0.3,0.4c0.1,0,0.2,0,0.2,0c-0.2,0.2,0.2,0.2,0.2,0.4c-0.2,0-0.4-0.2-0.3,0.1
						c-0.1,0.1-0.3-0.1-0.4-0.1c0.2,0.2-0.2,0.3-0.3,0.4l-0.1-0.1c0,0.1,0,0.1,0,0.2l0.2,0c-0.1,0-0.1,0.1-0.2,0.1
						c0.1,0.1,0.4,0,0.6,0.2c-0.1,0,0.1,0.2-0.2,0.2c0.1-0.2-0.3,0-0.3-0.2c0,0,0,0.1,0,0.1c0,0-0.1,0-0.1,0
						c-0.3,0.2,0.3,0.2,0.3,0.4c-0.2-0.1-0.3,0-0.3,0c0-0.1,0.3,0,0.4,0.1c-0.2,0.1,0.1,0.2,0.1,0.2l0.1-0.1c0.2,0,0.1,0.1,0.2,0.2
						c-0.1,0-0.1-0.1-0.2-0.1c0.3,0.1-0.3,0.2-0.1,0.3c-0.1,0.1-0.3,0-0.4,0c0.2,0.2-0.3,0.2-0.1,0.3c0.2,0,0.2,0,0.4,0.1l-0.2-0.3
						l0.3,0.2c0-0.1-0.1-0.2-0.1-0.2c0.2,0.1,0.1,0.1,0.3,0.1c-0.4,0.1,0.2,0.2,0,0.3l-0.6,0c-0.3,0.2,0.3,0.3,0.1,0.6l0.1-0.1
						c0.2,0,0,0.1,0.1,0.2c-0.2,0-0.3,0-0.4,0.1c0.1,0,0,0.2,0.4,0.2l-0.3,0.1c-0.1,0.2,0.6,0.2,0.5,0.4c-0.2,0-0.4,0-0.5-0.1
						c0,0.1,0,0.1,0.1,0.1c-0.1,0,0.3,0.2,0.1,0.2c0.1,0,0.3,0,0.3,0.1c0,0-0.1,0-0.1,0c0.1,0,0.1,0.1,0.4,0
						c-0.3,0.2-0.2,0.3-0.2,0.5c0.1,0.2,0.1,0.3,0,0.5c0.1,0.1,0.3,0.3,0.4,0.4c0,0-0.1,0.1-0.1,0c0,0.3,0.5-0.3,0.5,0
						c-0.1,0.3-0.2,0.1-0.2,0.2c-0.3,0.4,0.1,0.3,0.2,0.3c0.1,0,0.1,0.1,0.1,0.2l-0.1,0c0,0.3,0.4-0.1,0.6-0.1c0,0,0,0.1,0,0.1
						c0.3-0.3,0.4-0.4,0.5-0.4c-0.1,0.2-0.1,0.1-0.2,0.4c0,0,0.1-0.4,0.3-0.4c0,0.1-0.1,0.3-0.2,0.4l0,0l0,0l0,0l0,0c0,0,0,0,0,0
						c0,0,0,0,0,0l0,0c0,0-0.1,0-0.1,0.1c0,0,0.1,0,0.1,0c0.1,0,0.2,0,0.2,0l0.1-0.1c0.4,0-0.2,0.1,0.1,0.1l-0.4,0.1
						c0.1,0.1,0.4,0.2,0.6,0.3c-0.3,0.1-0.5-0.1-0.7-0.2c0,0.1,0.1,0.4,0.3,0.3c0,0-0.2,0-0.1-0.1c0.3,0,0.5,0.1,0.6,0.2
						c-0.2,0.1-0.2,0.2-0.3,0.3c-0.1,0.3,0.3,0.4,0.1,0.8c0.5,0,0.6,0.5,1.2,0.6c0-0.6,0.1,0,0.2-0.6c0.1,0,0.1,0,0.1,0
						c0.1,0.1,0.2,0.2,0.3,0.4c0.1,0.2-0.1,0.1-0.1,0.3c0.3,0,0.1,0.3,0.3,0.4c-0.1-0.2,0.1-0.3,0.2-0.3c-0.1-0.1-0.1-0.2-0.2-0.3
						c0.3-0.4,0.3,0.5,0.6,0.1l0,0.2c0.1-0.1,0.5-0.1,0.5-0.6c0,0.1,0.1,0.2,0.1,0.3c0.3,0,0.5-0.6,0.7-0.4l0,0.2
						c0-0.1,0-0.3,0.1-0.2c0,0.1,0,0.1,0,0.2c0-0.1,0.1-0.3,0.2-0.2l0,0.2c0.3,0.1,0.3-0.5,0.5-0.6c0.1,0.4,0.3,0.5,0.4,0.6l0,0.1
						c0.3,0,0.4-0.5,0.7-0.7c0.2,0.2,0.5,0.1,0.7,0c0.3-0.1,0.5-0.3,0.7-0.5c-0.1,0-0.3-0.2-0.2-0.3c0.1,0-0.1-0.4,0.2-0.2l0,0
						c0.4,0.1,0.4-0.1,0.5-0.2l-0.5-0.3c0.8,0.1,0.1-0.8,0.8-0.6c-0.1-0.1,0-0.2-0.1-0.3l0.2,0.1c0.1-0.1,0.2-0.2,0.3-0.4l0.2,0.1
						c0.1-0.1-0.6-0.5-0.6-0.6l0.4,0.2c0.1-0.2,0.5-0.2,0.3-0.6c0.1,0,0.2,0.1,0.2,0.1c0.1-0.1,0.4-0.2-0.1-0.5
						c0.3,0.2,0.1-0.2,0.1-0.4l0.2,0.1c-0.3-0.3-0.4-0.3-0.4-0.5c0,0,0.2,0.1,0.1,0.1c0.2-0.1-0.2-0.2,0-0.3l0.1,0.1
						c0.1-0.1,0-0.2-0.2-0.3c-0.1-0.1,0.1-0.2,0.4-0.2c-0.1-0.1-0.3-0.2-0.2-0.2c0.1,0,0.1,0,0.2,0.1c0.2-0.2-0.3-0.4,0-0.5
						c0.1,0,0.1,0,0.2,0c0,0.2,0,0.4-0.1,0.3c0.3,0,0.3-0.1,0.7,0c-0.2-0.2-0.6-0.4-0.5-0.6c0,0,0,0,0.1,0l0,0c0,0,0-0.1,0-0.1
						c0-0.1,0.1-0.1,0.1-0.1c0.2,0,0.1-0.2,0.1-0.3c-0.3,0.1-0.2-0.1-0.5,0.1c0,0,0,0,0.1,0.1c0,0,0,0,0,0l0,0c0,0,0,0.1,0,0.2
						c-0.2,0-0.3-0.1-0.1-0.2c-0.2,0-0.4,0-0.5,0c0.4-0.2,0.5-0.4,0.7-0.5c-0.2-0.2-0.3-0.5-0.8-0.4c-0.1,0,0.1-0.1,0.2-0.2
						c0.1,0,0.1,0.1,0.2,0c-0.2-0.1-0.2-0.3-0.6-0.2c0.1-0.2,0.3-0.1,0.2-0.2l0.1,0c0.1-0.3-0.2-0.4-0.4-0.4c-0.3,0-0.5,0-0.4-0.4
						c0,0.1,0,0.1-0.1,0.1c-0.1-0.6-1-0.5-1-1.2c-0.1-0.2-0.2,0-0.4,0.1l0.1-0.3l-0.3,0.2c-0.3,0.1,0.1-0.8-0.4-0.5l-0.1,0.2
						c-0.1-0.1-0.3,0-0.2-0.2c0,0-0.1,0.2-0.1,0.1l0.1-0.1l-0.3,0.1c-0.1-0.2,0.3-0.5,0.1-0.7c-0.1,0-0.4,0.3-0.5,0.4
						c0,0,0,0.1,0,0.3l-0.1,0c-0.2,0.4-0.5,0.8-0.5,1.2l0.3-0.2l-0.1,0.2l-0.1,0c0,0.2,0.1,0.1,0.2,0c0,0.1-0.1,0.2-0.1,0.2l0.3-0.3
						c-0.1,0.2-0.2,0.3-0.2,0.4c0.2-0.1,0.1-0.4,0.3-0.5c0,0.2-0.1,0.4,0,0.2c-0.1,0.1-0.1,0.2-0.2,0.2c0.1-0.1,0.2,0,0.3-0.2
						c-0.1,0.3,0.2,0.1,0,0.4c0.1-0.1,0.3-0.2,0.3-0.2c-0.4,0.4,0.2,0.1-0.2,0.6c0.3-0.4,0.3,0,0.6-0.2c0,0-0.1,0.1-0.1,0.1
						c0,0.1,0,0.2,0,0.3c0.2-0.3,0.4-0.3,0.6-0.5c-0.2,0.4-0.3,0.3-0.5,0.6c0.2-0.3,0.3-0.2,0.5-0.4c-0.1,0.2,0,0.1-0.2,0.4
						c0.3-0.4,0.1,0,0.3-0.2c-0.1,0.2-0.3,0.4-0.1,0.3C103.1,148.7,102.9,148.8,102.9,148.8z M104.6,150.3L104.6,150.3
						C104.6,150.3,104.6,150.3,104.6,150.3C104.6,150.3,104.6,150.3,104.6,150.3z M104.6,150.5C104.6,150.5,104.6,150.5,104.6,150.5
						c0.1-0.1,0.2-0.1,0.2-0.1C104.7,150.4,104.7,150.5,104.6,150.5z M106.5,149.8C106.6,149.9,106.5,149.9,106.5,149.8
						c-0.1,0.1-0.1,0-0.1,0l0,0C106.4,149.8,106.5,149.8,106.5,149.8z"/>
					<path class="st2" d="M106.1,149.8C106.1,149.8,106.1,149.8,106.1,149.8C106.1,149.8,106.1,149.8,106.1,149.8L106.1,149.8
						L106.1,149.8z"/>
					<path class="st2" d="M97.8,145.9L97.8,145.9C97.8,146,97.8,146,97.8,145.9C97.8,146,97.8,146,97.8,145.9z"/>
					<polygon class="st2" points="102.8,153.2 102.9,153.3 102.8,153.2 					"/>
					<path class="st2" d="M99.4,146.6C99.4,146.6,99.4,146.7,99.4,146.6C99.4,146.7,99.4,146.6,99.4,146.6z"/>
					<path class="st2" d="M100,146.6L100,146.6C100.1,146.7,100,146.6,100,146.6z"/>
					<path class="st2" d="M100.5,146.7c0,0,0-0.1,0-0.1l0,0L100.5,146.7z"/>
					<path class="st2" d="M96.3,150.3C96.3,150.3,96.3,150.3,96.3,150.3C96.3,150.4,96.3,150.3,96.3,150.3z"/>
					<path class="st2" d="M96.2,148.2c0,0,0.1,0.1,0.1,0.1C96.3,148.3,96.3,148.3,96.2,148.2z"/>
					<polygon class="st2" points="96.6,152.6 96.6,152.6 96.6,152.6 					"/>
					<path class="st2" d="M96.2,148.4C96.3,148.4,96.3,148.4,96.2,148.4C96.2,148.4,96.2,148.4,96.2,148.4z"/>
					<path class="st2" d="M101.9,147L101.9,147C101.9,147,101.9,147,101.9,147L101.9,147z"/>
					<path class="st2" d="M101.9,147L101.9,147C102,147,102,147,101.9,147z"/>
					<path class="st2" d="M102,146.9L102,146.9C102,147,102,147,102,146.9z"/>
					<path class="st2" d="M101.7,146.8L101.7,146.8C101.7,146.9,101.7,146.8,101.7,146.8z"/>
					<path class="st2" d="M101.6,146.8c0,0,0,0.2,0.1,0.2l0-0.1C101.6,147,101.6,146.6,101.6,146.8z"/>
					<path class="st2" d="M100.9,145.5l0.2,0.1c0-0.1-0.1-0.3,0-0.3C100.8,145,101.1,145.5,100.9,145.5z"/>
					<path class="st2" d="M100.4,145.4c0.1-0.1,0-0.2,0-0.2C100.3,145.2,100.3,145.3,100.4,145.4z"/>
					<path class="st2" d="M96.6,146.3l-0.1-0.2C96.4,146.2,96.5,146.2,96.6,146.3z"/>
					<polygon class="st2" points="96.9,147.7 97,147.8 96.9,147.6 					"/>
					<polygon class="st2" points="95.2,146.9 95.2,146.8 95.2,147 					"/>
					<path class="st2" d="M94.3,153.9l0.3-0.2C94.5,153.7,94.2,153.8,94.3,153.9z"/>
					<path class="st2" d="M96.6,155c-0.1,0.1-0.2,0.1-0.1,0.1C96.5,155.1,96.6,155,96.6,155z"/>
					<polygon class="st2" points="104.7,155 104.8,155.1 104.7,155 					"/>
				</g>
			</g>
		</g>
	</g>
</g>
<circle class="st3" cx="100" cy="151" r="5"/>
<g class="st4">
	<g>
		<g>
			<g>
				<g>
					<path class="st5" d="M145.7,96.9c-0.3-0.5-1.1-1.7-1-1.4l1.2,2L145.7,96.9z"/>
					<path class="st5" d="M142.6,93.8c0.4,1,1.2,2.9,2.4,4.7c-0.9-2-0.4-1.3-1.6-3.6c0-0.3,0.6,0.5,1,1.3c-0.3-0.5,0.5,0.3-0.2-1
						c-1.1-1.4-1.3-1.4-0.8,0C143.1,94.7,142.8,94.2,142.6,93.8z"/>
					<path class="st5" d="M130.5,92.9l0.1,0.3C130.5,93,130.5,92.9,130.5,92.9z"/>
					<path class="st5" d="M122.8,91.7c0.1-0.1,0.1-0.3,0.1-0.5C122.8,91.4,122.8,91.5,122.8,91.7z"/>
					<path class="st5" d="M121.2,89.2c0,0.1,0.1,0.1,0.1,0.2C121.3,89.2,121.3,89.1,121.2,89.2z"/>
					<path class="st5" d="M130.5,92.9l-0.2-0.7C130.3,92.9,130.4,92.7,130.5,92.9z"/>
					<path class="st5" d="M143.4,99.7c0-0.1,0-0.3-0.1-0.6c0,0.1,0,0.2,0,0.3C143.3,99.5,143.3,99.6,143.4,99.7z"/>
					<path class="st5" d="M133.4,90.8L133.4,90.8c0-0.3,0-0.6,0-1L133.4,90.8z"/>
					<path class="st5" d="M135.5,90.2c-0.1-0.1,0.3,1.9,0.4,2.7c-0.1-0.8-0.1-1.2-0.1-1.3C135.7,91.2,135.6,90.8,135.5,90.2z"/>
					<path class="st5" d="M139.6,92.6l0-0.3C139.6,92.4,139.6,92.5,139.6,92.6z"/>
					<path class="st5" d="M131.8,90.5c0-0.3,0-0.5-0.1-0.7C131.7,90.1,131.8,90.3,131.8,90.5z"/>
					<path class="st5" d="M58.9,103.7c0-0.1,0.1-0.2,0.1-0.3C58.9,103.5,58.9,103.6,58.9,103.7z"/>
					<path class="st5" d="M58.1,93.5L58.1,93.5c0.2-0.5,0.2-0.8,0.3-1.2L58.1,93.5z"/>
					<path class="st5" d="M118.2,87C118.2,87,118.2,87,118.2,87C118.3,86.8,118.2,86.8,118.2,87z"/>
					<path class="st5" d="M98.4,91.9c0.1,1.8-0.5,2.2-0.3,4.2C98.1,95.3,98.6,93,98.4,91.9z"/>
					<path class="st5" d="M143.2,99.5c0,0-0.1,0.1-0.1,0.1C143.1,99.6,143.2,99.6,143.2,99.5z"/>
					<path class="st5" d="M98.1,96.1L98.1,96.1l0,0.2C98.1,96.2,98.1,96.2,98.1,96.1z"/>
					<path class="st5" d="M111.3,89.6c0.1,0.3,0.2,0.6,0.3,0.8C111.6,90.3,111.5,90,111.3,89.6z"/>
					<path class="st5" d="M117,91.2l-0.2-0.2C116.9,91.1,117,91.1,117,91.2z"/>
					<path class="st5" d="M110.1,93c-0.1-0.1-0.2-0.4-0.2-0.1c0,0.1,0.1,0.1,0.1,0.2C109.9,92.9,109.9,92.7,110.1,93z"/>
					<path class="st5" d="M108.1,93.7c0.1,0.1,0.1,0.2,0.2,0.4c0,0,0-0.1,0-0.1L108.1,93.7z"/>
					<path class="st5" d="M65.9,104.2c0.1-0.6,0.1-1.2,0.2-1.8C65.9,103.8,65.5,104.2,65.9,104.2z"/>
					<path class="st5" d="M142.9,98.7c0.2,0.5,0.3,0.7,0.3,0.8c0,0,0-0.1,0-0.1C143.1,99.1,143,98.8,142.9,98.7z"/>
					<path class="st5" d="M115.1,107.7l-0.4-0.2C114.8,107.7,115,107.7,115.1,107.7z"/>
					<path class="st5" d="M82.1,106.5l-0.1,0.2C82,106.8,82,106.7,82.1,106.5z"/>
					<path class="st5" d="M113.6,108.2c-0.3-0.6-0.5-1-0.6-1.2c0,0.2,0.1,0.3,0.1,0.5L113.6,108.2z"/>
					<path class="st5" d="M66.1,102.4L66.1,102.4L66.1,102.4z"/>
					<path class="st5" d="M62.8,106.5c0.3,0.1,0.7-2.4,1-3.9c0.6-0.6-0.2,1.9-0.3,3.2c0.4-0.6,1.1-2.9,1.2-2.8
						c-0.1,0.4-0.1,0.6-0.2,1.1c0.7-2,0.8,0.1,1.6-2.4c0,0.2-0.1,0.4-0.1,0.6c0.2-1.3,0.4-2.6,0.6-3.5c0.2,0,0.6-1.5,0.3,0.1
						c-0.1-0.1-0.2,0.6-0.4,1.1l0.3-0.7c-0.3,2.4-0.4,0.8-0.7,2.5c0.5-0.7,1.2-2.6,1.3-1.9c-0.4,2.3-0.7,0.7-0.8,2.8l-0.2-1
						c-0.4,3.7-0.2-0.3-0.7,3.7c0.4,0.8,0.8-1.1,1.1-0.3c0.4-1.3,0.3-1.9,0.7-3.2c1.1-2.2-0.6,6,0.5,3c0.4-1.5,1-4.5,1.1-2.9
						l-0.6,2.6c0.4,0.3,1-3.8,1.1-1.9c-0.3,1-0.5,0.8-0.5,1.1c-0.1,2.1,0.5-1.5,0.7-1.4l-0.4,2.4c0.6-0.3,1.4-1.9,2-2.2
						c-0.2,0.7-0.4,1.4-0.4,2.1c0.9-1.1,1.4,0.5,1.9,2l0.6-2c0.1,0,0,0.9-0.2,1.3c0.1,0.8,0.2-1.3,0.5-2.1c0.2-0.1,0,1.2-0.2,1.8
						c0.7-1.6,1.9-3.5,2.1-1.2l-0.2,0.6c0.3,0.9,1.1-4.1,1.1-2.1l-0.1,0.3c0.7,1,1.9-0.7,2.1,2.4c0.5-2.9,0.6,1.4,1.3-2.7
						c0.2,2.1,0,2.8,0.4,4.3c0.2,0.2,0.6-2.5,0.9-2.9l-0.3,2.1l0.6-2.2l-0.2,2.6l0.3-0.5c-0.1-0.1-0.1-1,0-1.6
						c0.4-0.9,0.6,1.6,0.5,2.7l1-1.7c-0.1,0.9-0.3,1.1-0.5,1.7c0.7-2.1-0.2,2.3,0.4,0.3c0-0.5,0.2-1.3,0.2-1.7
						c0,1.3,0.5,1.4,0.8,0.9l-0.2,1.5c0.5,0.4,1.3-0.6,1.9-0.5c-0.2-0.7,0.2-3.3,0.4-3.5l-0.2,2.3c0.3-1.4-0.1-0.9,0.3-2.6
						c0.2,0.3-0.1,2.6-0.3,3.3l0.4-0.8c-0.1,0.7-0.2,1-0.3,1.9c0.3-1.4,0.3,2.3,0.7-0.1l-0.1,0.7c0.6,0.1,1-0.7,1.6-0.7
						c0.2-2,0.4-1.5,0.7-3.1c0.3,0.7,0.6,2.2,1.1,2.1c0.4-0.9,0.2-1.7,0.5-2.8c-0.1,1.8,0.3,1.7,0,2.9c0.6-0.2,0.7-0.3,1.6-1.7
						c0-0.7-0.1-1.1,0-1.7c0.2-0.3,0.2,0.8,0.1,1.6l0,0.2c1-2.6,1.4,5.4,2.3,1.7l0,0.2l0.8-1.9c0.3,0.3-0.3,1.3-0.1,2.5
						c0.9-2.9,1.1,0.5,1.8-1.4c0.1,5.3,1.7-0.3,2.2,3.1l0-1.2c0.2-1.2,0.2,0.7,0.3,1c0-1-0.1-1.1,0-1.8c1.5-1.4,3,1.9,5,2.9
						c0.7,0.3-0.1-6.4,0.9-3.6l0,2.3c0.5-1.4,1.2-1.5,1.9-1.5c0.7,0,1.4,0,1.8-1.3c0,0.5,0.2,1.2,0,1.2c0.7,1.6,1.1-0.2,0.7-1.5
						c0.2,0.1,0.3,1.2,0.6,1.8c0.5,0.9,0.1-2.3,0.7-0.7c0.1,0.3,0.1,0.5,0.1,0.7c0-0.8,0.9,0,0.1-1.8c0.7,0.8,0.5-1.1,1.2-0.1
						c-0.5-2.1,1,0.8,0.1-2.2c1,3,1.5,2.2,1.2,0.7c0.2,0.9,0.5,0.9,0.9,2.2c0.2-0.1,0.3-0.8-0.3-2.3c1.7,3.4-0.1-3.2,1.6,1.4
						c0.1-1.8,0.3-3.1,0.6-3.9c0.8,3-0.5,0.5,0.5,3.6c0-1.4-0.4-4.1,0.3-3.4c0.2,0.4,0.2,1.4,0.3,1.9c0.2-1.4,0.9,0.1,1-1.7
						c0,0.3,0,0.6,0,0.9c0.1-0.1,0.3,0.4,0-1l0,0.4c-0.5-2-0.3-4.4-0.4-5.5c0.4,4.1,0.6,1,1,6.1c0-0.3,0-1-0.1-1.9
						c0.1,0.3,0.2,0.8,0.3,1.9c0.2-0.8-0.1-2.3,0.3-2.3c0.1,0.7,0,1,0.1,1.8c0-1.4,0-2.7,0.4-2.2c0,0.4,0.1,1,0,1
						c0.4-0.3,0.5-3.7,1.2-2.4c0,3,0.2,1,0.4,3.6l0.2-0.8l-0.2-1.3c0.2,0,0.4-1.9,0.7-1l-0.2,1.1c0.1-0.2,0.3-0.3,0.5-0.5l-0.3-1
						c0.2-1.4-0.1-3.3,0.2-2.6c-0.1,0.3,0.3,0,0.5,1.6c0,0,0,0,0,0c0.1-0.8,0.2-1.7,0.4-1.1c0.1,0.8,0,2.9,0.1,3.4
						c0.1-2.2,0.6-0.6,0.7-2.9c0,0.5,0,1.9,0,2.2L125,99c0.1,0.6,0.2,0.8,0.1,1.9c0.4,0.3-0.2-3.3,0.3-1.9c0,0.1,0,0.4-0.1,0.7
						c0.5,0.7,0.9-1.1,1.3-0.3c0.1,2.6-0.4,0.6-0.2,2.9c0.6-0.5,1.3-3.2,1.9-2.5l-0.1-0.3c0.1-3.7,0.5,1.8,0.8,0.1
						c-0.1,0.3-0.1,2.1-0.1,1.6c0.4,0.6,0.8-0.9,1.5-2.1l-0.1,1c0.3,0.8,0.7,0.5,1,0.9c0-1,0.2-0.8,0.1-2.2c0.5,2.7,0.9,1.9,1.3,1.1
						c0.4-0.9,0.6-1.8,1.2,0.4c-0.1,0-0.2,0.8-0.1,0.8l0.6-0.9c-0.2-1.6-0.2-1-0.4-2.2c0-1,0.1-1.7,0.2-1.7
						c-0.2,1.1,0.3,2.6,0.5,3.5c-0.1-0.5-0.1-1-0.2-1.5c0.7,2.8-0.3-3.2,0.4-1.4l0.1,0.8c0.1-0.5,0.1-1.6,0.3-1.4
						c0.3,1.8-0.1,0.9,0.1,2.4c0.3-0.1,0-3.6,0.5-1.8c0,0.5-0.2,0.6-0.2,1.1c0.6,2.1,0.5,1.6,0.8,1.9l0,0l0.6,0.9l-0.2-0.6
						c-0.5-4.9,0.6-1,0.4-4.2c0.2,3.1,0.3,1.7,0.7,3.8c0.2,0.5,0.6,1.1,0.6,1.7c-0.1-1.7,0.7,1.2,0.5-1.3c0.2,0.7,0.3,0,0.6,1.7
						c0.2-0.6-0.4-1.1-0.6-2c-0.1-1.2,0.4-0.6,0.8-0.1c0.5,0.5,1,0.8,0.8-0.8c0.1-1.4-0.6-3.6-0.6-4.9c0.6,0.9,0.8,2.4,0.8,2.4
						c0.6,0.8,0.8,0.6,0.7-0.3c0.2,0.6,0.4,1,0.8,1.7c0.1-0.3-0.9-2.3-0.2-1.5c0.3,0.7,0.7,1.8,0.9,2.6c0-0.7-0.3-1.9-0.3-2.6
						c0.6,1,0.7,1.7,0.9,2.4c0.1-0.6,0.3-1.4-0.6-3.1l-0.5-0.5c0-0.1,0.8,1.4,0.9,1.7c0.4,1.4-0.6-0.4-1-1l0-0.5
						c-1-1.7-1.1-1.5-1-0.9c0.1,0.6,0.4,1.7,0.1,1.7l-1.1-2.7c0.2,0.8,0.5,1.6,0.7,2.3c-0.4-0.7-1-2.1-1.1-2.6
						c-0.8-1.2,0.2,1-0.6-0.4c-0.1-0.2-0.2-0.4-0.2-0.5l0.1,0.9c-0.2-0.6-0.8-1.9-0.5-1.6c-0.9-1.4,0.2,2.2-0.6,0.2l0-0.2
						c-0.2,1.1,0.7,2,1,4.6c-0.6-1.6-1.2-3.3-1.8-4.9l0.6,2.1c-0.1-0.1-0.2-0.2-0.4-1c0.2,1.5,0.3,0.9,0.6,2.2
						c-0.8-1.8-0.5,1.1-1.4-2.2c0.3,1.6,0.5,1.2,0.5,2.3c-0.9-3.5-0.2,0.7-0.8-0.9c-0.3-1.9,0.1-0.9-0.5-2.5c0.5,3.2-0.5-0.6-0.6,0
						c0.5,2.5-0.2,1.1-0.4,2c-0.1-0.8-0.8-1.3-1.2-2.2l0-0.4c0.2,2.6-0.1,2.1-0.3,2.7c-0.1-1.5-0.2-2.1-0.1-2.8l-0.2,0
						c0,0.8,0,1.3-0.1,1.6l-0.1-1.9c-0.2,0.1-0.4,2.3-0.8,1c0.1,1.8,0.7,5,0.3,6.2c-0.1-1-0.2-2.6-0.1-3c0,0.1-0.1,0.8-0.2,0.4
						l0.1-1.6c-0.2-0.7,0,1.4-0.2,1.2c-0.1-1.4-0.2-1-0.2-2.1c0-0.1,0.2,0.6,0.2,0c-0.2-0.2-0.4-1-0.5-2.1c0.1,0.8,0.1,1.9,0,2
						c-0.3,0.1-0.2-1.7-0.4-2.4c0,1-0.3,0-0.2,2c-0.1,0-0.1-1-0.2-1.5c-0.1,0.9-0.7,0.3-0.5,2.5l0,0.1c0,0,0,0,0,0.1l0,0l0,0
						c-0.5,2.1-1.1-1.1-1.6-0.3l0-0.7c-0.3,0.8-0.7,0.5-0.9,2c-0.1,0-0.2-1.3-0.2-2.1c-0.2,0.5-0.3,1.3-0.6,0.2
						c0.2-1.2-0.1-1.1,0.2-0.9c-0.3-0.6-0.4-1.7-0.7,0.2c0.1-1.8-0.2-2.2-0.4-1.7l0.2,1.3c-0.2,0.3-0.3,0.1-0.5,0l0.1-2.3
						c-0.7-2.8-1.2,4.8-1.7,0.1c-0.2,1.6,0.4,1.1,0.2,3c-0.3-0.3-0.7-3.6-0.8-3.6c-0.5-1.3-0.3,3.4-0.8,2.5c0.1,0.8,0.2,3-0.1,3.8
						c-0.3-0.3-0.5-3.5-0.3-4.1c0.1-0.1,0.1,0.2,0.1,0.5c0.1-0.3,0.2-0.7,0.1-1.6l0,0.8c-0.2-0.8-0.6-0.7-0.6-2.1
						c-0.2,0.8-0.1,1.4,0.1,1.8c-0.5-1.2-0.7,0-1.1-0.8c0.1,0.5,0.2,1.4,0.1,1.4c-0.7-1-0.2,1.6-0.6,2c-0.3-1.2-0.1-3-0.5-1.9
						c-0.3-0.8-0.2-2.2-0.2-2.9c-0.3,1.6-0.9-1-1.2-1.2l0.2-0.7c-0.1,0.4-0.2,0.4-0.3,0.4l0.3,1.6c-0.2-0.3-0.3-0.3-0.3-1
						c0,1.1,0.4,2.7,0.3,4.2c-0.3-0.8-0.4,0.9-0.7-1.2c0.6,0.7-0.3-2.2,0.1-2.6c-0.1,0.3-0.2,0.3-0.3,0c0-0.2,0-0.5,0-0.6
						c-0.8-1.9,0,2.5-0.5,2.5c-0.1-1.2-0.5-2.3-0.5-2c0.2,0,0.4,2,0.3,3c-0.5-0.9-0.3,0.8-0.5,0.7l0.3,0.4c0.1,1.2-0.1,1.1-0.2,1.5
						c-0.2-1,0.1-0.7-0.1-1.1c0.1,2.2-1-2.1-1.1-0.6c-0.3-0.8-0.5-2.3-0.8-2.8c-0.1,1.7-0.9-1.6-1.1-0.1c0.5,1.6,0.4,1.2,0.5,2.8
						c0.2-0.4,0.3-0.9,0.5-1.3c0,0.8,0,1.7,0.1,2.5c0.2,0,0.2-1.1,0.4-0.9c0.1,1.4,0,1,0.4,2.3c-0.8-2.4-0.2,1.5-0.9,0l-1-4
						c-0.5-0.8-0.6-0.2-0.7,0.4c-0.1,0.7-0.2,1.5-0.6,1.1L113,92c0.4,1.6-0.3,0.3-0.3,1c-0.4-1.3-0.7-1.8-1-2.6
						c0.3,1-0.5,0.1,0.3,2.7l-0.8-1.6c-0.7-0.5,0.7,3.9,0.2,3.6c-0.4-1.5-0.9-2.3-0.9-3.4c-0.2,0-0.4-0.2-0.1,0.7
						c-0.4-0.8,0.2,1.9-0.3,0.7c0.1,0.6,0.6,2,0.4,1.9c-0.1-0.3-0.2-0.6-0.2-0.6c0.2,0.6,0.1,1,0.7,2.4c-1.8-3.9-1.1,0.7-2.6-2.7
						c-0.1,0.5-0.3,1-0.5,1.2c-0.1-0.4-0.2-0.7-0.1-0.5c-0.6-1.2,0.8,3.9,0.1,2.6c-0.7-2.1-0.1-1.2-0.4-2c-0.6-2.2-0.6-2-0.7-1.6
						c0,0.4,0,1.1-0.4-0.2l0-0.3c-0.5-1.5-0.1,1.8-0.4,1.5c0,0-0.1-0.4-0.1-0.7c0.2,2.3-0.2,3.1-0.4,3.8c-0.1-1.8,0-1-0.2-2.7
						c-0.1,0.3,0.4,2.9,0.1,3.4c-0.2-1-0.5-1.8-0.7-3.7l0.2-0.1c-0.4-2.5-0.3,0.1-0.5-0.3l-0.1-1.1c-0.3,0.4-0.2,3.1-0.6,3l0.1,0.8
						c-0.1,2.7-0.3-1.5-0.5,0.5l-0.2-2.8c-0.1,0.7-0.5,2.7-0.8,3.2c0.2-2,0.5-3.1,0.7-4.3c-0.1,0-0.5,0.2-0.6,1.6
						c0.1-0.3,0.1-0.9,0.2-0.5c-0.2,2.2-0.5,3.2-0.8,3.2c0.1-5.4-0.9-1.4-1-5.5c-0.6,2-1.1-0.9-1.8-0.6c0,4.2-0.2,0.1-0.4,4.4
						c-0.2,0.3-0.3,0.2-0.2-0.1l-0.4-2.6c0-1.3,0.2-0.9,0.3-1.9c-0.3-0.4,0-1.8-0.2-3c-0.1,1.5-0.3,2.2-0.5,1.6l0.2,2
						c-0.7,2.2-0.2-3.6-0.9-1.4l0.3-1.3c-0.3,0.8-1-0.1-1.5,3.3c0-0.5,0-1.7,0.2-2c-0.6-0.6-1.7,3.5-2.1,1.4l0.1-1
						c-0.1,0.3-0.4,1.9-0.4,0.9c0-0.4,0.1-1,0.1-1.1c-0.1,0.4-0.5,1.8-0.6,1.2L93,91c-0.5-1.4-1.2,2.8-1.8,3.4
						c0.3-3.1-0.1-4.1-0.3-4.6l0.1-0.4c-0.7-0.5-1.5,2.4-2.3,3.5c-0.1-3.4-1.3-1.6-1.7-3.5c0,0.6-0.3,2.4-0.5,2.7
						c-0.1-0.6-0.7,2.1-0.3-0.7l0.1,0.1c0.2-2.8-0.2-2.1-0.4-2.2l-0.5,3.7c0-5.4-2,1.7-1.8-3.1c-0.3,0.9-0.5,0.9-0.8,1.8l0.3-2
						c-0.4-0.6-0.6-0.8-1.2-0.4l0.3-1.4c-0.3-0.2-1.2,5.6-1.5,5.7l0.3-2.9c-0.6,0-0.7-2.7-1.6-0.1c0.1-0.4,0.2-1.3,0.3-1.4
						c-0.2-0.1-0.7-2.1-1.2,1.9c0.4-2.6-0.5-0.3-1,0.8l0.3-1.9c-0.6,2.4-0.7,3.1-1.2,3.7c0-0.3,0.2-1.6,0.2-1
						c-0.1-1.1-0.5,1.8-0.7,0.7l0.3-1.2c-0.3-0.2-0.3,0.5-0.7,1.9c-0.3,0.7-0.5-0.6-0.2-2.3c-0.2,1.1-0.6,2.4-0.7,1.9
						c0.1-0.7,0.2-1.1,0.3-1.3c-0.2-1.4-1.1,2.1-1.1,0.2c0.1-0.6,0.1-1,0.1-1.2c0.4,0.1,0.6,0.3,0.6,0.4c0.3-1.8,0.1-2.1,0.7-4.5
						c-0.5,1.3-1.4,4.1-1.5,3.2c0-0.2,0-0.4,0.1-0.6l0.1-0.2c0-0.2-0.1,0-0.2,0.3c0-0.3-0.1-0.5-0.1-0.6c0.2-1.5-0.2-0.9-0.3-0.9
						c-0.3,1.9-0.5,1.6-0.6,3.2c0-0.1,0.1-0.2,0.2-0.3c0-0.1,0.1-0.1,0.1-0.2c0,0.1,0,0.1,0,0.2c0.1,0,0.2-0.1,0.4-0.1
						c-0.3,1-0.6,1.8-0.5,0.7c-0.3,1.2-0.6,2.5-0.8,3.1c0.3-2.7,0.1-4.3,0.4-5.9c-0.7,1-1.2,0.5-2.2,4.1c-0.2,0.4,0-1.1,0.1-1.7
						c0.1-0.4,0.2-0.3,0.4-0.8c-0.4,0.9-0.8,0.2-1.4,2.7c-0.1-1.2,0.6-2.3,0.1-2l0.2-0.8c-0.1-4.2-2.7,6.2-2.7,0.8
						c0,0.3,0,0.5-0.1,0.9c-0.6-2.5-2.8,1.7-3.1-2.2c-0.2-0.8-0.5,0.8-1,2l0.4-2.1l-0.9,2.3c-0.9,1.6,0.3-5.2-1-2.1l-0.2,1.4
						c-0.2-0.3-0.9,0.7-0.5-0.9c-0.1,0.2-0.4,1.4-0.3,0.7l0.2-1.1l-1,1.7c-0.2-0.9,1.1-4.3,0.5-4.6c-0.3,0.4-1.4,3-1.5,3.7
						c0.1,0.1,0.1,0.7-0.2,1.8l-0.3,0.5c-0.8,3.2-1.7,6.4-1.8,8.7l0.8-1.9l-0.2,1.6l-0.3,0c-0.2,1.5,0.2,0.2,0.6-0.6
						c-0.2,0.8-0.2,1.4-0.2,1.7l1.1-2.9c-0.2,1.3-0.7,2.4-0.7,3.2c0.5-1.4,0.5-2.8,1-3.7c-0.2,1.5-0.5,2.6,0,1.5
						c-0.2,0.8-0.3,1.3-0.5,1.7c0.4-0.9,0.6-0.3,1-2c-0.2,1.8,0.7-0.3,0,2.7c0.2-0.7,0.9-2.3,1-2.4c-1.1,3.5,0.6,0.3-0.4,4.2
						c0.9-3.2,1.1-1.3,1.9-3c-0.1,0.3-0.2,0.8-0.2,0.6c0.2,0.3,0,1.3,0,2c0.6-2.7,1.1-3.2,1.6-4.8c-0.3,2.6-0.8,3.1-1.3,5.6
						c0.5-2.2,0.9-2.1,1.2-3.9c-0.1,1.6,0,0.8-0.3,3.1c0.7-3.3,0.3-0.5,0.9-2.6c0,1.7-0.6,3.2,0,2.2
						C63.4,105.4,62.8,106.5,62.8,106.5z M71.9,102.2C71.9,102.2,71.9,102.2,71.9,102.2c-0.1,0.1-0.1,0.1-0.2,0.1
						C71.7,102.3,71.8,102.3,71.9,102.2z M72.6,102.3c-0.1-0.1-0.2-0.1-0.3-0.1c0.1-0.7,0.2-1.4,0.3-1.3
						C72.5,101.3,72.6,101.7,72.6,102.3z M73.5,88.6c0.1-0.3,0.1,0.1,0.1,0.5c-0.1,0-0.1,0.1-0.2,0.2c0,0.1,0,0.2-0.1,0.2
						C73.4,89.2,73.5,88.8,73.5,88.6z"/>
					<path class="st5" d="M72.9,91.1c0,0,0,0.1-0.1,0.1c0,0.2,0,0.3,0,0.4C72.9,91.5,72.9,91.3,72.9,91.1
						C72.9,91.1,72.9,91.1,72.9,91.1z"/>
					<path class="st5" d="M130.6,93.2L130.6,93.2c0,0,0,0.1,0,0.2C130.6,93.3,130.6,93.3,130.6,93.2z"/>
					<polygon class="st5" points="81.2,107.4 81.3,106.9 81.2,107.3 					"/>
					<path class="st5" d="M134.7,99.7c0,0.2,0.1,0.3,0.1,0.5C134.8,100.1,134.7,99.9,134.7,99.7z"/>
					<path class="st5" d="M136.5,99.9l0.4,0.6C136.7,100.2,136.6,100,136.5,99.9z"/>
					<path class="st5" d="M138.1,100.6c-0.1-0.3-0.1-0.6-0.1-0.8l0,0L138.1,100.6z"/>
					<path class="st5" d="M119.2,104.1C119.2,104.2,119.1,104.2,119.2,104.1C119.1,104.6,119.2,104.5,119.2,104.1z"/>
					<path class="st5" d="M123.7,99.2c0,0.4-0.1,0.7-0.1,0.9C123.7,100.3,123.7,100.3,123.7,99.2z"/>
					<path class="st5" d="M115.1,107.7L115.1,107.7C115.1,107.7,115.1,107.7,115.1,107.7L115.1,107.7z"/>
					<path class="st5" d="M123.3,100.1c0.1,0.4,0.2,0.3,0.3,0C123.5,100,123.4,99.8,123.3,100.1z"/>
					<path class="st5" d="M144.8,99.2l0.1,0c-0.1-0.1-0.1-0.2-0.1-0.3L144.8,99.2z"/>
					<path class="st5" d="M144.7,99l0-0.2C144.7,98.7,144.6,98.8,144.7,99z"/>
					<path class="st5" d="M144.6,98.2l0.1,0.5C144.7,98.7,144.8,98.7,144.6,98.2z"/>
					<path class="st5" d="M142.4,99.3l0.2,0.7C142.6,99.8,142.6,99.6,142.4,99.3z"/>
					<path class="st5" d="M141.9,99.7c0.2,0.1,0.9,1.3,1,0.8l-0.2-0.5C143,101,141.6,98.6,141.9,99.7z"/>
					<path class="st5" d="M137.2,92l0.5,0.5c-0.3-0.7-0.6-1.7-0.5-1.9C136.2,88.4,137.7,92.2,137.2,92z"/>
					<path class="st5" d="M136,91.1c0.1-0.4-0.2-1.1-0.3-1.5C135.7,90.3,135.7,90.5,136,91.1z"/>
					<path class="st5" d="M127.8,91.7l0-1.8C127.6,90.2,127.8,90.6,127.8,91.7z"/>
					<polygon class="st5" points="126.1,100.9 126.3,102.1 126.4,100.4 					"/>
					<polygon class="st5" points="125,88.2 125.1,87.9 124.8,88.6 					"/>
					<path class="st5" d="M107.9,91.9l0.7,2.1C108.6,93.6,107.9,91.2,107.9,91.9z"/>
					<path class="st5" d="M103.5,95c-0.1-1.1-0.3-1.8-0.3-0.7C103.3,94.4,103.5,95.3,103.5,95z"/>
					<polygon class="st5" points="85.2,90.1 85.4,89.3 85.1,89.9 					"/>
				</g>
			</g>
		</g>
	</g>
</g>
</svg>
