<?xml version="1.0" encoding="utf-8"?>
<!-- Generator: Adobe Illustrator 21.1.0, SVG Export Plug-In . SVG Version: 6.00 Build 0)  -->
<svg version="1.1" id="Layer_1" xmlns="http://www.w3.org/2000/svg" xmlns:xlink="http://www.w3.org/1999/xlink" x="0px" y="0px"
	 viewBox="0 0 200 200" style="enable-background:new 0 0 200 200;" xml:space="preserve">
<style type="text/css">
	.st0{fill:#A1D8F7;}
	.st1{fill:#DBDBDB;}
	.st2{fill:#FFFFFF;}
</style>
<path class="st0" d="M134.1,127.7c-2.5,2.9-13.8,15.2-32.4,16.2c-1.1,0.1-23.7,0.9-37.7-16.8c-7.4-9.4-13.1-24.9-8.1-29.6
	c6.1-5.6,20,11.8,44.6,11.7c24.4-0.1,38.3-17.2,43.8-11.8C149.2,102,142.4,118,134.1,127.7z"/>
<g>
	<g>
		<g>
			<g>
				<g>
					<path class="st1" d="M106,122.7c0.1-0.3-0.1-0.8-0.4-0.7l-0.1,1L106,122.7z"/>
					<path class="st1" d="M103.4,121.2c-0.4,0.5-0.8,1.4-0.4,2.3c0.3-1,0.5-0.6,0.8-1.8c0.3-0.2,0.7,0.2,0.6,0.6
						c0.1-0.3,0.6,0.1,0.7-0.5c-0.6-0.7-1.2-0.7-1.7,0C103.3,121.6,103.4,121.3,103.4,121.2z"/>
					<path class="st1" d="M68.5,118.3l0.2,0.2C68.7,118.4,68.6,118.4,68.5,118.3z"/>
					<path class="st1" d="M55.2,106.7c0,0.1,0.1,0.2,0.2,0.2C55.3,106.8,55.3,106.7,55.2,106.7z"/>
					<path class="st1" d="M56.3,103.4c0,0.1-0.1,0.1-0.1,0.2C56.3,103.5,56.4,103.4,56.3,103.4z"/>
					<path class="st1" d="M68.5,118.3l-0.5-0.4C67.9,118.2,68.3,118.2,68.5,118.3z"/>
					<path class="st1" d="M98.7,124c0.1-0.1,0.2-0.2,0.3-0.3c-0.1,0.1-0.2,0.1-0.3,0.1C98.7,123.9,98.7,123.9,98.7,124z"/>
					<path class="st1" d="M78,118.9h0.2c0.1-0.1,0.1-0.2,0.2-0.4L78,118.9z"/>
					<path class="st1" d="M85.3,119.3c-0.2,0-0.3,0.8-0.3,1.2c0.1-0.3,0.2-0.5,0.4-0.6C85.3,119.7,85.3,119.5,85.3,119.3z"/>
					<path class="st1" d="M96.8,120.7l0.2-0.1C97,120.6,96.9,120.6,96.8,120.7z"/>
					<path class="st1" d="M72.9,118.1c0-0.1,0-0.2,0-0.3C72.9,117.9,72.9,118,72.9,118.1z"/>
					<path class="st1" d="M90.1,125.2C90.1,125.1,90.1,125.1,90.1,125.2C90,125.1,90,125.1,90.1,125.2z"/>
					<path class="st1" d="M81.5,121.1L81.5,121.1c0.1-0.2,0.1-0.3,0.1-0.5L81.5,121.1z"/>
					<path class="st1" d="M58.2,97.9L58.2,97.9C58.3,98,58.3,97.9,58.2,97.9z"/>
					<path class="st1" d="M115.3,100.8c-0.8-0.6,1-1.1-0.2-1.8C115.3,99.3,114.3,100.4,115.3,100.8z"/>
					<path class="st1" d="M98.5,123.9c-0.1,0-0.2,0-0.3,0C98.3,123.9,98.4,123.9,98.5,123.9z"/>
					<path class="st1" d="M115.1,99L115.1,99L115.1,99C115.1,98.9,115.1,98.9,115.1,99z"/>
					<path class="st1" d="M67.6,98.1c0-0.2,0-0.3-0.1-0.4C67.5,97.8,67.5,97.9,67.6,98.1z"/>
					<path class="st1" d="M57.8,95.8l0.2,0.1C57.9,95.8,57.8,95.8,57.8,95.8z"/>
					<path class="st1" d="M73.7,98.2c0.1,0.1,0.2,0.2,0.4,0.2v-0.1C74,98.3,73.9,98.4,73.7,98.2z"/>
					<path class="st1" d="M80.1,99.3c0-0.1-0.1-0.1-0.1-0.2c-0.1,0-0.1,0-0.2,0L80.1,99.3z"/>
					<path class="st1" d="M109.4,124.5c-0.1-0.2-0.2-0.5-0.3-0.8C109.2,124.3,108.2,124.6,109.4,124.5z"/>
					<path class="st1" d="M98.7,123.5c0,0.2-0.1,0.3-0.2,0.4c0.1,0,0.1,0,0.2-0.1C98.7,123.7,98.7,123.6,98.7,123.5z"/>
					<path class="st1" d="M75.4,91.7l0.9,0.3C76,91.9,75.7,91.8,75.4,91.7z"/>
					<path class="st1" d="M150.5,107l0.1,0.3C150.6,107.2,150.6,107.1,150.5,107z"/>
					<path class="st1" d="M79.1,92.5c0.1,0.3,0.3,0.5,0.4,0.7c0.1-0.1,0.1-0.1,0.1-0.2L79.1,92.5z"/>
					<path class="st1" d="M109,123.7L109,123.7L109,123.7z"/>
					<path class="st1" d="M102.4,125.8c1,0,0.4-1.1,0.6-1.7c1.1-0.3,0.5,0.8,1,1.4c0.7-0.3,1.2-1.3,1.8-1.3c0,0.2,0.1,0.2,0,0.5
						c0.7-0.9,2.2-0.1,3.1-1.2c0.1,0.1,0.1,0.2,0.1,0.3c-0.2-0.6-0.2-1.1-0.2-1.5c0.4,0,0.8-0.7,1,0c-0.3,0-0.3,0.3-0.4,0.5l0.4-0.3
						c0.4,1-0.6,0.4-0.6,1.1c0.9-0.3,1.9-1.2,2.6-0.9c0.2,1-1.6,0.4-0.6,1.3l-1.1-0.4c0.8,1.6-0.6-0.1,0.1,1.6
						c1.4,0.3,1.5-0.5,2.9-0.3c0.3-0.6-0.1-0.8,0.2-1.4c1.9-1.1,1.6,2.5,3,1.1c0.3-0.7,0.4-2,1.5-1.4l-0.3,1.2c1.4,0,0.7-1.7,2.1-1
						c-0.2,0.5-1,0.4-0.8,0.6c1,0.9,0.6-0.7,1.3-0.7l0.2,1c1.4-0.2,3-1.1,4.5-1.4c-0.1,0.3-0.3,0.7,0.1,0.9c2-0.7,4.3-0.3,6.4,0
						l0.6-1c0.2,0,0.4,0.3,0.2,0.5c0.8,0.2-0.1-0.6,0.3-1c0.4-0.1,0.7,0.4,0.4,0.7c1.2-1,3.5-2.3,5.1-1.8l-0.2,0.3
						c1.2,0.1,0.8-2.1,2-1.6l-0.1,0.2c0.9-0.1,1.8-0.5,2.7-0.8l0.1-3.3c-0.1,0.1-0.3,0.2-0.3,0.3c0,0-0.2,0.1-0.1,0.1
						c-0.1,0,0.2,0,0.5,0.2s0.7,0.5,1.1,0.9h0.1c0.1-0.1,0.3-0.1,0.6-0.1c0.1,0,0.2,0,0.4,0s0.2,0,0.5,0c0.2,0,0.3,0,0.5-0.1
						c-0.1-0.7,0.7-1,1.4-1.7c0.7-0.6,1.1-1.4,0.4-1.9c0.8-0.6,1.2-0.8,1.6-1.1c0.4-0.3,0.8-0.7,1.3-1.7c0.2-0.6-0.9-1.1-0.9-1.7
						l0.9,0.2l-0.8-1.1l1.2-0.3l-0.1-0.7c-0.1,0.2-0.5,0.4-0.8,0.4c-0.2-1,1-2.3,1.5-2.3c-0.2-0.9-0.4-1.7-0.6-2.6
						c0.4,0.1,0.5,0.5,0.7,0.8c-0.9-1.4,1-0.2,0.1-1.6c-0.2,0.2-0.6-0.1-0.7-0.1c0.5-0.6,0.4-2.2-0.1-3.4l0.7,0.1
						c-0.2-1.1-0.7-2.3-1.5-3.4c-0.7-1.1-1.7-2.1-2.7-2.9c0.5,0.9-0.4,1.5-1,1.1c0.1-0.3,0.3-0.6,0.4-0.9c-0.7,0.2,0.3,0.7-0.8,0.8
						c-0.6-0.6,0.1-1.3,0.8-1.2c-0.4-0.1-0.8-0.3-1.1-0.4c0.1-0.3,0.4-0.3,0.7-0.5c-0.4,0.1-0.7-0.4-1-0.8c-0.4-0.4-0.9-0.8-1.4-0.4
						v-0.3c-1.2-0.5-2.1-0.6-2.9-0.7c-0.8-0.1-1.6-0.1-2.5-0.1c-0.1,0.8-0.8,0.6-1.3,1.3c-1.2-0.3-2.7-0.8-4.1-0.4
						c-0.9,0.6-0.2,0.8-0.5,1.3c-0.2-0.7-1.6-0.4-1-1.1c-1.6,0.5-2,0.6-3.7,1.7c0.3,0.3,0.5,0.3,0.5,0.6c-0.3,0.2-0.9-0.1-0.9-0.5
						l0.1-0.1c-0.9,0.8-2.2,0.6-3.5,0.3c-1.3-0.3-2.4-0.5-3.1,0.5l0.1-0.1l-1.6,1.1c-0.8,0,0.4-0.7-0.3-1c-1.6,1.6-3,0.3-4.4,1.4
						c-0.8-1-1.8-0.9-2.9-0.6s-2.2,0.6-3.1,0l0.1,0.5c-0.4,0.6-0.5-0.3-0.8-0.4c0.1,0.4,0.5,0.4,0.3,0.8c-3.5,0.9-7.4-0.4-11-0.9
						c-1.3-0.2-0.8,2.8-2.5,1.4l0.5-1c-2.7,1.1-5.5-0.3-8.2,0.4c0.2-0.2,0.2-0.5,0.5-0.5c-0.5-0.8-2-0.2-2.1,0.3
						c-0.4-0.1,0-0.5-0.2-0.9c-0.5-0.5-1.5,0.7-1.7,0c0-0.1,0.2-0.2,0.3-0.3c-0.4,0.3-1.7-0.3-1.4,0.6c-0.9-0.5-1.9,0.1-2.6-0.5
						c-0.7,0.8-1.6-0.7-2,0.5c0.3-1.3-1.5-1.4-2.2-0.9c0.3-0.4-0.4-0.5-0.1-1c-0.7-0.1-1.4,0-1.4,0.7c-1-1.9-2.9,0.7-3.3-1.5
						c-2.3,0.2-4.5,0.3-6.6,0.4c0.3-1.3,2.3,0.2,2.4-1.2c-2.1,0.2-3.3,1.2-5.2,0.7c-0.5-0.2,0.3-0.6,0.5-0.8c-0.5,0.1-1,0.1-1.5,0.1
						s-0.9,0-1.7,0c-1.5,0-2.9,0.3-3.9,1.2c-0.1-0.1,0.1-0.4,0.3-0.6c-0.5,0.2-1.2,0.4-0.8,0.9c0.1-0.1,0.2-0.3,0.3-0.4
						c0.6,0.2,0.4,0.8,0.2,1.4s-0.3,1.3-0.1,1.5c-0.4-0.9-0.8-0.6-1.2-0.2c-0.4,0.3-0.8,0.7-1.4-0.6c-0.1,0.4,0,0.9,0.4,1.1
						c-0.3,0.4-0.6,0.4-0.8-0.3c-0.2,1,0,1.4,0.1,1.7c0.1,0.2,0.1,0.3,0.2,0.5c0,0.2,0,0.5,0,0.7c-0.3-0.1-0.4-0.2-0.7-0.5
						c0.2,0.4,0.5,0.7,0.6,1.1s0.1,0.7-0.1,1.2c-0.2-0.1-0.4,0-0.4-0.3c-0.2,1.6,1.1,2.9,0.4,4.6c-1.3-0.6-0.5,0.6-1.6,0.6l0.3,1
						l0.6-0.4c-0.1,0.9,0.8,1.6,0.4,2.4c-0.2-0.2-0.3-0.4-0.5-0.6c0.1,0.5,0.2,1.1,0.3,1.6l0.4-1c0.6,0.8,1.4-0.2,1.2,0.9
						c-0.1-0.2,0.1,0.8-0.5,1.4l0,0c0.4,0.4,0.9,0.7,0.8,1.3c-0.3,0.3-1.2,0.2-1.4,0.4c1,0.2,0.9,2,2.1,2c-0.3-0.1-0.8,0.2-0.9,0.3
						c0.3,0,0.6,0,0.8,0c0,0.5-0.1,0.6-0.5,0.8c0.6,1.2,1-1.1,1.3,0.5c-0.1-0.1-0.2,0.1-0.4-0.1c0.1,0.4,0.4,0.7,0.6,0.9
						c0.2,0.3,0.5,0.5,0.8,0.7c0.6,0.4,1.2,0.8,1.6,1.3c-0.3,1.2-1.1-0.5-1.4,0.5c0.9,0.6,2,0.9,3,1.1s2,0.4,2.8,0.8l-0.3-0.2
						c0.7-1.4,1,1.2,2.1,0.7c-0.2,0.1-0.5,0.8-0.4,0.6c1.1,0.6,2.5,0.2,4.4,0.1l-0.3,0.4c0.6,0.5,1.8,0.6,2.5,0.9
						c0.3-0.4,0.7-0.2,0.5-0.9c1.9,2.7,4.5-0.6,6.3,1.6c-0.2,0-0.6,0.3-0.4,0.3l1.8-0.2c-0.1-0.7-0.2-0.4-0.5-1
						c0.3-0.4,0.8-0.7,1.2-0.6c-0.8,0.4-0.1,1.1,0.2,1.5c0-0.2,0.1-0.4,0.1-0.7c0.8,1.3,0.3-1.4,1.4-0.4l-0.1,0.4
						c0.5-0.1,0.9-0.6,1.4-0.4c0.1,0.8-0.5,0.3-0.6,1c0.7,0,1.5-1.4,2.1-0.6c-0.3,0.2-0.7,0.2-1.1,0.4c0.6,1,0.7,0.8,1.2,0.9l0,0
						l1.2,0.5l-0.3-0.3c1-2.1,1.8-0.3,3-1.6c-1.2,1.3-0.2,0.7-0.3,1.7c0.3,0.3,0.8,0.6,0.6,0.8c0.6-0.7,0.9,0.6,1.8-0.5
						c0,0.3,0.6,0,0.5,0.8c0.7-0.2-0.2-0.5-0.1-0.9c1.1-1,2.7,1.2,4.3-0.2c1.4-0.6,1.6-1.6,2.9-2.2c0.5,0.4-0.3,1.1-0.3,1.1
						c0.7,0.4,1.3,0.3,1.9-0.1c-0.1,0.3,0,0.5,0.3,0.8c0.5-0.1,0.3-1.1,1-0.7c-0.1,0.3-0.2,0.9-0.4,1.2c0.6-0.3,1.2-0.9,1.8-1.2
						c0.2,0.5-0.3,0.8-0.5,1.2c0.7-0.3,1.9-0.6,2-1.5l-0.5-0.2c0.3-0.1,0.2,0.7,0,0.8c-0.6,0.7-0.9-0.2-1-0.5l0.4-0.2
						c-0.6-1.7-1.8,0.4-2.8,0.4l0.3-1.3l-0.9,1.1c-0.2-0.3-0.4-1,0-1.2c-0.7-0.6-0.6,0.5-1.2-0.2c-0.1-0.1,0-0.2,0-0.2l-0.6,0.4
						c0.1-0.3-0.2-0.9,0.3-0.7c-1.2-0.7-1.8,1-2.3,0.1l0.1-0.1c-1.6,0.5-0.1,0.9-1.3,2l-0.9-2.2l-0.1,0.9c-0.2,0-0.5-0.1-0.4-0.5
						c-0.6,0.6,0.1,0.4-0.2,1c-0.8-0.8-2.2,0.4-2.4-1.1c-0.3,0.7,0.8,0.5-0.1,1c-0.2-1.6-1,0.2-1.7-0.5c0.2-0.8,0.9-0.4,0.2-1.1
						c-0.5,1.4-1.4-0.3-2-0.1c-0.1,1.1-1.3,0.4-2.4,0.7c0.1-0.4-1.9-0.7-2.8-1.2v-0.2c-0.3,1.1-1.2,0.8-2,0.9
						c0.1-0.7,0.2-0.9,0.7-1.2l-0.7-0.1c-0.2,0.3-0.4,0.5-0.9,0.6l0.3-0.8c-0.9,0-1.9,0.8-3,0.1c-0.2,0.8,0.6,2.2-0.7,2.6
						c0-0.4,0.1-1.1,0.4-1.3c-0.1,0-0.4,0.3-0.6,0.1l0.6-0.6c-0.5-0.4-0.4,0.5-0.8,0.4c0.1-0.6-0.2-0.5-0.1-0.9
						c0.1,0,0.3,0.3,0.5,0.1c-0.5-0.2-1-0.6-1.1-1.1c0,0.3-0.1,0.8-0.5,0.8c-0.9-0.1-0.2-0.7-0.7-1.1c-0.3,0.4-0.8-0.1-0.9,0.7
						c-0.3,0-0.2-0.5-0.3-0.7c-0.5,0.3-2.1-0.3-1.8,0.8l0.1,0.1h-0.1l0,0l0,0c-1.7,0.6-3-1.1-4.5-1.1l0.1-0.3
						c-0.9,0.1-1.9-0.3-2.7,0c-0.2-0.1-0.4-0.7-0.1-1c-0.7,0-0.9,0.2-1.5-0.6c0.8-0.2,0-0.5,0.7-0.1c-0.6-0.6-0.5-1.1-1.6-0.8
						c0.6-0.5,0.1-1.1-0.3-1.1c0,0.2,0,0.5,0.1,0.7c-0.4-0.2-0.6-0.4-0.8-0.7c0.3-0.2,0.5-0.4,0.8-0.6c-0.1-0.9-0.7-0.9-1.4-1.2
						c-0.7-0.2-1.2-0.7-0.5-1.6c-0.4,0-0.4,0.2-0.5,0.4c0,0.2-0.1,0.5-0.5,0.5c-0.2-0.7,0.9-1.9,0.9-2c0.1-0.5-0.2-0.6-0.7-0.7
						c-0.4-0.1-0.9-0.3-0.8-0.9c-0.3,0.2-1.3,0.5-1.7-0.4c0.1-0.8,1.4-1.1,1.7-0.6c0,0.2-0.1,0.3-0.2,0.3c0.1,0.2,0.3,0.5,0.7,0.2
						l-0.4-0.1c0.3-0.4,0.2-1.4,0.8-1.2c-0.3-0.5-0.6-0.2-0.8,0.2c0.5-1,0-1.5,0.4-2.5c-0.2,0.1-0.6,0.3-0.6,0.1
						c0.6-1.5-0.6-0.7-0.7-1.8c0.6-0.5,1.3,0.4,0.9-0.7c0.5-0.6,1,0,1.2,0.3c-0.6-1,0.7-1.7,0.9-2.2l0.2,0.5c-0.1-0.3-0.1-0.6,0-0.8
						l-0.8,0.2c0.2-0.3,0.2-0.5,0.5-0.5c-0.4-0.4-1.2,0-1.7-0.7c0.2-0.2,0.2-0.4,0.2-0.5c0-0.2,0.1-0.3,0.5-0.1
						c-0.2,0.2,0,0.3,0.3,0.4s0.6,0.2,0.7,0.3c-0.1-0.1-0.1-0.1,0-0.2c0.1,0,0.2,0.1,0.2,0.1c0.8,0.2-1-0.6-0.7-1
						c0.4,0.4,0.9,0.7,0.8,0.6c-0.1,0.1-0.8-0.6-0.9-1.1c0.6,0.2,0.2-0.5,0.4-0.5c-0.1,0-0.2-0.1-0.3-0.1c-0.2-0.5,0.1-0.6,0.4-0.8
						c0.2,0.4-0.2,0.3,0,0.5c0-0.5,0.4-0.3,0.6,0c0.1,0.1,0.3,0.3,0.4,0.4c0,0,0.1,0.1,0.2,0.1c0.1,0,0.2,0,0.3-0.1
						c0.4,0.4,0,1,0.3,1.3c1-0.6,0.9,0.8,2,0.3c-0.2-0.7-0.3-0.6,0.5-1.2c-0.6,0.1-1.1,0.2-1.7,0.3c0.4-0.3,0.8-0.6,1.1-0.9
						c-0.5-0.1-1.1,0.4-1.4,0.2c0.5-0.5,0.5-0.4,0.3-1c0.6,1.1,1.4-0.5,2.2,0.3l-0.2,1.8c1.1,0.9,2.2-0.6,3.7,0.1l-0.4-0.4
						c0.3-0.7,1,0.1,1.6-0.1c-0.2,0.6,0.1,0.8,0.3,1.3c0.1-0.4,1.1,0.3,1.5-0.8l0.5,0.9c1.2,0.6,1.8-1.3,3-0.9c-0.5,0.5,0,1.1-1,1.3
						c0.4,0.1,0.8,0.3,0.9-0.1c0.2,0.4,1.3-0.5,1.6,0.1c0.2-0.2,0.4-0.8,0.9-0.7c0,0.1-0.1,0.3-0.1,0.3c0.1-0.3,0.8-0.2,0.5-1
						c1,2.1,3.6,0.6,4.5,2.3c1,0,2.1-0.1,3,0c-0.1,0.2,0,0.3-0.2,0.2c1.1,0.7,0.9-1.6,2.2-0.8c0.6,1-0.8,0.4-0.4,0.8
						c0,2,1.6-0.1,2.4,1.1l-0.2,0.1c0.6,0.7,1.8-0.6,2.9-0.4c0,0-0.1,0.2,0,0.3c0.8-0.9,2.3-1.1,3.4-1.4c-0.4,0.7-0.5,0.4-0.3,1.2
						c0.5-0.1-0.1-1.2,0.9-1.4c0.3,0.4,1,0.8,1,1.7h-0.9c0.4,1.1,1.2,0,1.7,0.2l-0.1,0.5c1.4-0.1,1.5-1.3,3-1.2l-0.2-0.4
						c0.8-1.2,0.7,0.7,1.5-0.2l0.3,1.2c0.5-0.3,1.9-1.1,2.8-1.4c-0.5,0.9-1.7,1.4-2.4,1.9c0.5,0,1.8-0.1,2.1-0.7
						c-0.2,0.1-0.5,0.4-0.7,0.2c0.6-1,1.5-1.4,2.6-1.5c-0.1,2.3,2.8,0.4,3.7,2.1c1.8-1,3.8,0,6.1-0.4c-1-1.7,0.6-0.1,0.3-1.9
						c0.5-0.2,0.7-0.2,0.8-0.1l1.7,0.9c0.4,0.5-0.4,0.5-0.3,0.9c1.2,0,0.6,0.7,1.4,1.1c-0.3-0.6,0.2-1,0.9-0.8l-1-0.7
						c1.4-1.2,1.6,1.3,3.1,0.1l-0.4,0.7c0.4-0.2,1.1-0.4,1.9-0.6c0.7-0.3,1.4-0.7,1.7-1.5c0.2,0.2,0.5,0.6,0.2,0.8
						c2-0.2,3.9-2.5,5.6-2v0.5c0.3-0.2,0.4-1,0.9-0.6c0,0.2,0,0.5,0.1,0.5c0.1-0.2,0.7-1,1.2-0.8l-0.3,0.6c1.8,0.2,2.3-1.8,3.7-2.3
						c0.2,1.3,1.4,1.6,1.9,1.9v0.2c0.7,0.1,1.4-0.1,2.1-0.3c0.7-0.2,1.4-0.4,2.2-0.3c0.1,0.8,0.5,1.3,0.9,1.8s0.7,1.1,0.5,1.8
						c0.2-0.2,1-0.3,1.2-0.1c-0.1,0.2,0.2,0.4,0.3,0.5c0.1,0.2,0.2,0.3-0.4,0.4v-0.1c-1.1,0.4-0.7,1-0.8,1.6l1.6,0.1
						c-1.1,0.8-1,1.8-1,3c0.1,1.1,0.1,2.2-1,2.5c0.3,0.5,0.2,1,0.5,1.5l-0.8-0.2c-0.2,0.5-0.4,0.7-0.6,1c-0.2,0.3-0.1,0.3-0.2,0.5
						c-0.1-0.2-0.3-0.3-0.4-0.4c0,0,0.3,0.3,0.6,0.8s0.5,1,0.5,1.3c0,0.1-0.1,0.2-0.2,0.2c-0.3-0.3-0.6-0.7-0.9-1
						c-0.6,0.3-1.2,0.5-2.1,1.2c-0.4,0.4-1.1,0.8-1.6,2.2c-0.1,0.4-0.2,0.8-0.2,1.2c0,0.4,0,0.9,0.2,1.3c0.1,0.4,0.3,0.8,0.4,1.1
						c0.2,0.3,0.3,0.5,0.5,0.7l1.6-6.1c-0.5,0.2-1,0.4-1.3,1c0-0.2-0.1-0.5,0.1-0.7c-0.7,0.2-2.8,0-2.1,1.6c-0.3-1.1-1.5,0.3-2.3,1
						l-0.1-0.8c-0.4,1.2-0.4,1.5-1.3,2c-0.3-0.1-0.3-0.6,0-0.5c-0.9-0.3-0.5,0.9-1.5,0.6l0.3-0.6c-0.8,0.1-0.7,0.3-1,1
						c-0.5,0.4-1.6,0-1.8-0.7c0,0.5-0.4,1.1-0.9,1c-0.1-0.3,0.1-0.5,0.1-0.6c-1.4-0.4-1.9,1.2-2.9,0.5c0-0.3-0.1-0.4-0.2-0.5
						c1.1-0.1,1.9-0.1,1.9-0.1c-0.1-0.8-1-0.8-0.4-1.9c-0.6,0.7-1.7,2-2.6,1.7c0-0.1-0.1-0.1-0.1-0.3l0.1-0.1
						c-0.2-0.1-0.4,0-0.5,0.2c-0.3-0.1-0.5-0.2-0.7-0.2c-0.1-0.6-1-0.3-1.5-0.3c0.1,0.8-0.5,0.7,0.1,1.4c-0.1-0.1,0.1-0.1,0.4-0.2
						c0.1,0,0.1,0,0.2-0.1c0,0,0,0,0,0.1c0.3,0,0.7-0.1,1.1-0.1c-0.3,0.5-0.6,0.8-1.2,0.4c-0.2,0.6-0.4,1.1-0.5,1.4
						c-0.7-1.1-1.9-1.7-2.1-2.4c-1.3,0.5-3.1,0.5-3.9,2.1c-0.4,0.2-0.5-0.4-0.6-0.7c0.2-0.2,0.5-0.2,0.6-0.4
						c-0.8,0.4-2.3,0.2-2.4,1.3c-1-0.5,0.5-1-0.8-0.8l0.2-0.3c-2.7-1.7-4.2,2.9-7.2,0.6c0.2,0.1,0.3,0.2,0.4,0.4
						c-3.4-1-6.9,1-10.2-0.5c-0.9-0.3-1,0.4-1.6,0.9l-0.2-0.9l-1,1.1c-1.4,0.8-2.4-2.2-4.2-0.7l0.2,0.6c-0.6-0.1-2,0.4-1.9-0.3
						c-0.1,0.1-0.2,0.6-0.5,0.3v-0.5l-1.5,0.8c-1.2-0.3,0.2-1.9-1.6-2c-0.6,0.2-1.9,1.4-1.6,1.7c0.3,0,0.7,0.3,0.7,0.8l-0.6,0.3
						c-0.1,1.4-0.6,2.8,0.9,3.8l1-0.9l0.3,0.7l-0.9,0.1c0.5,0.6,0.8,0.1,1.1-0.3c0.1,0.4,0.2,0.6,0.4,0.7l1-1.3
						c0.1,0.5-0.5,1.1,0.2,1.4c0.5-0.6-0.4-1.2,0.3-1.6c0.5,0.6,0.3,1.1,0.9,0.6c0.1,0.4,0,0.6-0.3,0.8c0.5-0.4,1.4-0.2,1.6-0.9
						c0.5,0.8,1.7-0.2,1.7,1.1c0.2-0.3,0.9-1,1.4-1.1c-0.8,1.6,1.8,0.1,1.5,1.8c0.6-1.4,2.3-0.7,3.4-1.5c-0.1,0.1-0.2,0.3-0.3,0.3
						c0.6,0.1,0.8,0.5,1.2,0.8c0.1-1.2,1-1.5,1.6-2.2c0.8,1.1-0.5,1.4-0.2,2.5c-0.1-1,1.3-1,1.1-1.8c0.6,0.7,0.5,0.3,0.8,1.3
						c0.1-1.5,0.5-0.3,1-1.2c0.9,0.7,0.2,1.4,1.2,0.9C103.3,125.3,102.4,125.8,102.4,125.8z M124.9,122.5L124.9,122.5
						c-0.2,0.1-0.4,0.1-0.5,0.1C124.5,122.6,124.7,122.6,124.9,122.5z M126.8,122.3c-0.2,0-0.5,0-0.8,0.1c-0.1-0.3-0.1-0.6,0.1-0.6
						C126,122,126.5,122.1,126.8,122.3z M122.3,116.8c0.3-0.1,0.4,0,0.4,0.2c-0.1,0-0.3,0.1-0.5,0.1v0.1
						C122.3,117.1,122.3,117,122.3,116.8z"/>
					<path class="st1" d="M121.9,118L121.9,118c0,0.2,0,0.2,0.1,0.3c0-0.1,0.1-0.2,0.1-0.3C122,118,121.9,118,121.9,118z"/>
					<path class="st1" d="M68.8,118.5L68.8,118.5L68.8,118.5C68.8,118.6,68.8,118.6,68.8,118.5z"/>
					<polygon class="st1" points="150.5,109.3 150.3,109.3 150.4,109.5 					"/>
					<path class="st1" d="M78.6,122.8c0,0.1,0,0.2,0.1,0.2C78.8,123,78.7,122.9,78.6,122.8z"/>
					<path class="st1" d="M83.2,123.3l0.6,0.3C83.5,123.5,83.3,123.4,83.2,123.3z"/>
					<path class="st1" d="M86.6,123.9c0-0.1,0.1-0.3,0.1-0.4l0,0L86.6,123.9z"/>
					<path class="st1" d="M55,90.7c0.1,0,0.1-0.1,0.2-0.1C55.5,90.3,55.2,90.4,55,90.7z"/>
					<path class="st1" d="M52.2,109c-0.2-0.2-0.4-0.3-0.5-0.5C51.7,108.9,51.8,109.1,52.2,109z"/>
					<path class="st1" d="M75.3,91.7C75.2,91.7,75.2,91.7,75.3,91.7L75.3,91.7L75.3,91.7z"/>
					<path class="st1" d="M51.7,107.7c-0.1,0.3-0.1,0.6,0.1,0.8C51.8,108.3,51.8,107.9,51.7,107.7z"/>
					<path class="st1" d="M101.8,123.8h0.2c0-0.1,0-0.1,0-0.1L101.8,123.8z"/>
					<path class="st1" d="M102,123.7l0.2-0.1C102.1,123.6,102,123.6,102,123.7z"/>
					<path class="st1" d="M102.5,123.3l-0.4,0.3C102.3,123.5,102.5,123.6,102.5,123.3z"/>
					<path class="st1" d="M97.2,123.8v0.3C97.2,124,97.2,123.9,97.2,123.8z"/>
					<path class="st1" d="M95.8,123.9c0.3,0.1,0.9,0.6,1.3,0.4v-0.2C96.9,124.5,96.1,123.4,95.8,123.9z"/>
					<path class="st1" d="M89.9,120.3l1.1,0.2c-0.2-0.3-0.5-0.8,0.1-0.8C89.6,118.7,91.4,120.4,89.9,120.3z"/>
					<path class="st1" d="M86.4,119.7c0.6-0.1,0-0.5,0-0.7C86,119.4,85.9,119.4,86.4,119.7z"/>
					<path class="st1" d="M61.5,115.9l0.3-0.7C61.4,115.2,61.7,115.5,61.5,115.9z"/>
					<path class="st1" d="M55.1,116.5c0,0.2,0,0.5,0.1,0.7l0.7-0.3C55.7,116.7,55.4,116.6,55.1,116.5z"/>
					<path class="st1" d="M57.8,111c0.1,0,0.1,0.1,0.2,0.1c-0.2-0.1-0.3-0.2-0.5-0.4L57.8,111z"/>
					<path class="st1" d="M78.8,99.9v-1C78.5,99.1,78.2,100.1,78.8,99.9z"/>
					<path class="st1" d="M98.1,100.6c0.2,0.5,0.7,0.8,1.1,0.3C98.7,100.8,98.3,100.5,98.1,100.6z"/>
					<path class="st1" d="M143.7,103.4c-0.1-0.1-0.2-0.2-0.3-0.3c0.1,0.2,0.2,0.4,0.2,0.6L143.7,103.4z"/>
				</g>
			</g>
		</g>
	</g>
</g>
<path class="st2" d="M144.3,92.6c3.5,4.4,4.5,11.5,2,16.4c-4.7,9.3-19.9,9.4-46,9.3c-25.9-0.1-41-0.4-45.6-9.7
	c-2.4-4.7-2.1-11.9,1.6-15.9c7.1-7.7,20.3,2.6,46,2.3C128.5,94.5,138.7,85.6,144.3,92.6z"/>
<g>
	<g>
		<g>
			<g>
				<g>
					<path class="st2" d="M106,119.7c0.1-0.3-0.1-0.8-0.4-0.7l-0.1,1L106,119.7z"/>
					<path class="st2" d="M103.4,118.2c-0.4,0.5-0.8,1.4-0.4,2.3c0.3-1,0.5-0.6,0.8-1.8c0.3-0.2,0.7,0.2,0.6,0.6
						c0.1-0.3,0.6,0.1,0.7-0.5c-0.6-0.7-1.2-0.7-1.7,0C103.3,118.6,103.4,118.3,103.4,118.2z"/>
					<path class="st2" d="M68.5,115.3l0.2,0.2C68.7,115.4,68.6,115.4,68.5,115.3z"/>
					<path class="st2" d="M55.2,103.7c0,0.1,0.1,0.2,0.2,0.2C55.3,103.8,55.3,103.7,55.2,103.7z"/>
					<path class="st2" d="M56.3,100.4c0,0.1-0.1,0.1-0.1,0.2C56.3,100.5,56.4,100.4,56.3,100.4z"/>
					<path class="st2" d="M68.5,115.3l-0.5-0.4C67.9,115.2,68.3,115.2,68.5,115.3z"/>
					<path class="st2" d="M98.7,121c0.1-0.1,0.2-0.2,0.3-0.3c-0.1,0.1-0.2,0.1-0.3,0.1C98.7,120.9,98.7,120.9,98.7,121z"/>
					<path class="st2" d="M78,115.9h0.2c0.1-0.1,0.1-0.2,0.2-0.4L78,115.9z"/>
					<path class="st2" d="M85.3,116.3c-0.2,0-0.3,0.8-0.3,1.2c0.1-0.3,0.2-0.5,0.4-0.6C85.3,116.7,85.3,116.5,85.3,116.3z"/>
					<path class="st2" d="M96.8,117.7l0.2-0.1C97,117.6,96.9,117.6,96.8,117.7z"/>
					<path class="st2" d="M72.9,115.1c0-0.1,0-0.2,0-0.3C72.9,114.9,72.9,115,72.9,115.1z"/>
					<path class="st2" d="M90.1,122.2C90.1,122.1,90.1,122.1,90.1,122.2C90,122.1,90,122.1,90.1,122.2z"/>
					<path class="st2" d="M81.5,118.1L81.5,118.1c0.1-0.2,0.1-0.3,0.1-0.5L81.5,118.1z"/>
					<path class="st2" d="M58.2,94.9L58.2,94.9C58.3,95,58.3,94.9,58.2,94.9z"/>
					<path class="st2" d="M115.3,97.8c-0.8-0.6,1-1.1-0.2-1.8C115.3,96.3,114.3,97.4,115.3,97.8z"/>
					<path class="st2" d="M98.5,120.9c-0.1,0-0.2,0-0.3,0C98.3,120.9,98.4,120.9,98.5,120.9z"/>
					<path class="st2" d="M115.1,96L115.1,96L115.1,96C115.1,95.9,115.1,95.9,115.1,96z"/>
					<path class="st2" d="M67.6,95.1c0-0.2,0-0.3-0.1-0.4C67.5,94.8,67.5,94.9,67.6,95.1z"/>
					<path class="st2" d="M57.8,92.8l0.2,0.1C57.9,92.8,57.8,92.8,57.8,92.8z"/>
					<path class="st2" d="M73.7,95.2c0.1,0.1,0.2,0.2,0.4,0.2v-0.1C74,95.3,73.9,95.4,73.7,95.2z"/>
					<path class="st2" d="M80.1,96.3c0-0.1-0.1-0.1-0.1-0.2c-0.1,0-0.1,0-0.2,0L80.1,96.3z"/>
					<path class="st2" d="M109.4,121.5c-0.1-0.2-0.2-0.5-0.3-0.8C109.2,121.3,108.2,121.6,109.4,121.5z"/>
					<path class="st2" d="M98.7,120.5c0,0.2-0.1,0.3-0.2,0.4c0.1,0,0.1,0,0.2-0.1C98.7,120.7,98.7,120.6,98.7,120.5z"/>
					<path class="st2" d="M75.4,88.7l0.9,0.3C76,88.9,75.7,88.8,75.4,88.7z"/>
					<path class="st2" d="M150.5,104l0.1,0.3C150.6,104.2,150.6,104.1,150.5,104z"/>
					<path class="st2" d="M79.1,89.5c0.1,0.3,0.3,0.5,0.4,0.7c0.1-0.1,0.1-0.1,0.1-0.2L79.1,89.5z"/>
					<path class="st2" d="M109,120.7L109,120.7L109,120.7z"/>
					<path class="st2" d="M102.4,122.8c1,0,0.4-1.1,0.6-1.7c1.1-0.3,0.5,0.8,1,1.4c0.7-0.3,1.2-1.3,1.8-1.3c0,0.2,0.1,0.2,0,0.5
						c0.7-0.9,2.2-0.1,3.1-1.2c0.1,0.1,0.1,0.2,0.1,0.3c-0.2-0.6-0.2-1.1-0.2-1.5c0.4,0,0.8-0.7,1,0c-0.3,0-0.3,0.3-0.4,0.5l0.4-0.3
						c0.4,1-0.6,0.4-0.6,1.1c0.9-0.3,1.9-1.2,2.6-0.9c0.2,1-1.6,0.4-0.6,1.3l-1.1-0.4c0.8,1.6-0.6-0.1,0.1,1.6
						c1.4,0.3,1.5-0.5,2.9-0.3c0.3-0.6-0.1-0.8,0.2-1.4c1.9-1.1,1.6,2.5,3,1.1c0.3-0.7,0.4-2,1.5-1.4l-0.3,1.2c1.4,0,0.7-1.7,2.1-1
						c-0.2,0.5-1,0.4-0.8,0.6c1,0.9,0.6-0.7,1.3-0.7l0.2,1c1.4-0.2,3-1.1,4.5-1.4c-0.1,0.3-0.3,0.7,0.1,0.9c2-0.7,4.3-0.3,6.4,0
						l0.6-1c0.2,0,0.4,0.3,0.2,0.5c0.8,0.2-0.1-0.6,0.3-1c0.4-0.1,0.7,0.4,0.4,0.7c1.2-1,3.5-2.3,5.1-1.8l-0.2,0.3
						c1.2,0.1,0.8-2.1,2-1.6l-0.1,0.2c0.9-0.1,1.8-0.5,2.7-0.8l0.1-3.3c-0.1,0.1-0.3,0.2-0.3,0.3c0,0-0.2,0.1-0.1,0.1
						c-0.1,0,0.2,0,0.5,0.2s0.7,0.5,1.1,0.9h0.1c0.1-0.1,0.3-0.1,0.6-0.1c0.1,0,0.2,0,0.4,0s0.2,0,0.5,0c0.2,0,0.3,0,0.5-0.1
						c-0.1-0.7,0.7-1,1.4-1.7c0.7-0.6,1.1-1.4,0.4-1.9c0.8-0.6,1.2-0.8,1.6-1.1c0.4-0.3,0.8-0.7,1.3-1.7c0.2-0.6-0.9-1.1-0.9-1.7
						l0.9,0.2l-0.8-1.1l1.2-0.3l-0.1-0.7c-0.1,0.2-0.5,0.4-0.8,0.4c-0.2-1,1-2.3,1.5-2.3c-0.2-0.9-0.4-1.7-0.6-2.6
						c0.4,0.1,0.5,0.5,0.7,0.8c-0.9-1.4,1-0.2,0.1-1.6c-0.2,0.2-0.6-0.1-0.7-0.1c0.5-0.6,0.4-2.2-0.1-3.4l0.7,0.1
						c-0.2-1.1-0.7-2.3-1.5-3.4c-0.7-1.1-1.7-2.1-2.7-2.9c0.5,0.9-0.4,1.5-1,1.1c0.1-0.3,0.3-0.6,0.4-0.9c-0.7,0.2,0.3,0.7-0.8,0.8
						c-0.6-0.6,0.1-1.3,0.8-1.2c-0.4-0.1-0.8-0.3-1.1-0.4c0.1-0.3,0.4-0.3,0.7-0.5c-0.4,0.1-0.7-0.4-1-0.8c-0.4-0.4-0.9-0.8-1.4-0.4
						v-0.3c-1.2-0.5-2.1-0.6-2.9-0.7c-0.8-0.1-1.6-0.1-2.5-0.1c-0.1,0.8-0.8,0.6-1.3,1.3c-1.2-0.3-2.7-0.8-4.1-0.4
						c-0.9,0.6-0.2,0.8-0.5,1.3c-0.2-0.7-1.6-0.4-1-1.1c-1.6,0.5-2,0.6-3.7,1.7c0.3,0.3,0.5,0.3,0.5,0.6c-0.3,0.2-0.9-0.1-0.9-0.5
						l0.1-0.1c-0.9,0.8-2.2,0.6-3.5,0.3c-1.3-0.3-2.4-0.5-3.1,0.5l0.1-0.1l-1.6,1.1c-0.8,0,0.4-0.7-0.3-1c-1.6,1.6-3,0.3-4.4,1.4
						c-0.8-1-1.8-0.9-2.9-0.6s-2.2,0.6-3.1,0l0.1,0.5c-0.4,0.6-0.5-0.3-0.8-0.4c0.1,0.4,0.5,0.4,0.3,0.8c-3.5,0.9-7.4-0.4-11-0.9
						c-1.3-0.2-0.8,2.8-2.5,1.4l0.5-1c-2.7,1.1-5.5-0.3-8.2,0.4c0.2-0.2,0.2-0.5,0.5-0.5c-0.5-0.8-2-0.2-2.1,0.3
						c-0.4-0.1,0-0.5-0.2-0.9c-0.5-0.5-1.5,0.7-1.7,0c0-0.1,0.2-0.2,0.3-0.3c-0.4,0.3-1.7-0.3-1.4,0.6c-0.9-0.5-1.9,0.1-2.6-0.5
						c-0.7,0.8-1.6-0.7-2,0.5c0.3-1.3-1.5-1.4-2.2-0.9c0.3-0.4-0.4-0.5-0.1-1c-0.7-0.1-1.4,0-1.4,0.7c-1-1.9-2.9,0.7-3.3-1.5
						c-2.3,0.2-4.5,0.3-6.6,0.4c0.3-1.3,2.3,0.2,2.4-1.2c-2.1,0.2-3.3,1.2-5.2,0.7c-0.5-0.2,0.3-0.6,0.5-0.8c-0.5,0.1-1,0.1-1.5,0.1
						s-0.9,0-1.7,0c-1.5,0-2.9,0.3-3.9,1.2c-0.1-0.1,0.1-0.4,0.3-0.6c-0.5,0.2-1.2,0.4-0.8,0.9c0.1-0.1,0.2-0.3,0.3-0.4
						c0.6,0.2,0.4,0.8,0.2,1.4s-0.3,1.3-0.1,1.5c-0.4-0.9-0.8-0.6-1.2-0.2c-0.4,0.3-0.8,0.7-1.4-0.6c-0.1,0.4,0,0.9,0.4,1.1
						c-0.3,0.4-0.6,0.4-0.8-0.3c-0.2,1,0,1.4,0.1,1.7c0.1,0.2,0.1,0.3,0.2,0.5c0,0.2,0,0.5,0,0.7c-0.3-0.1-0.4-0.2-0.7-0.5
						c0.2,0.4,0.5,0.7,0.6,1.1s0.1,0.7-0.1,1.2c-0.2-0.1-0.4,0-0.4-0.3c-0.2,1.6,1.1,2.9,0.4,4.6c-1.3-0.6-0.5,0.6-1.6,0.6l0.3,1
						l0.6-0.4c-0.1,0.9,0.8,1.6,0.4,2.4c-0.2-0.2-0.3-0.4-0.5-0.6c0.1,0.5,0.2,1.1,0.3,1.6l0.4-1c0.6,0.8,1.4-0.2,1.2,0.9
						c-0.1-0.2,0.1,0.8-0.5,1.4l0,0c0.4,0.4,0.9,0.7,0.8,1.3c-0.3,0.3-1.2,0.2-1.4,0.4c1,0.2,0.9,2,2.1,2c-0.3-0.1-0.8,0.2-0.9,0.3
						c0.3,0,0.6,0,0.8,0c0,0.5-0.1,0.6-0.5,0.8c0.6,1.2,1-1.1,1.3,0.5c-0.1-0.1-0.2,0.1-0.4-0.1c0.1,0.4,0.4,0.7,0.6,0.9
						c0.2,0.3,0.5,0.5,0.8,0.7c0.6,0.4,1.2,0.8,1.6,1.3c-0.3,1.2-1.1-0.5-1.4,0.5c0.9,0.6,2,0.9,3,1.1s2,0.4,2.8,0.8l-0.3-0.2
						c0.7-1.4,1,1.2,2.1,0.7c-0.2,0.1-0.5,0.8-0.4,0.6c1.1,0.6,2.5,0.2,4.4,0.1l-0.3,0.4c0.6,0.5,1.8,0.6,2.5,0.9
						c0.3-0.4,0.7-0.2,0.5-0.9c1.9,2.7,4.5-0.6,6.3,1.6c-0.2,0-0.6,0.3-0.4,0.3l1.8-0.2c-0.1-0.7-0.2-0.4-0.5-1
						c0.3-0.4,0.8-0.7,1.2-0.6c-0.8,0.4-0.1,1.1,0.2,1.5c0-0.2,0.1-0.4,0.1-0.7c0.8,1.3,0.3-1.4,1.4-0.4l-0.1,0.4
						c0.5-0.1,0.9-0.6,1.4-0.4c0.1,0.8-0.5,0.3-0.6,1c0.7,0,1.5-1.4,2.1-0.6c-0.3,0.2-0.7,0.2-1.1,0.4c0.6,1,0.7,0.8,1.2,0.9l0,0
						l1.2,0.5l-0.3-0.3c1-2.1,1.8-0.3,3-1.6c-1.2,1.3-0.2,0.7-0.3,1.7c0.3,0.3,0.8,0.6,0.6,0.8c0.6-0.7,0.9,0.6,1.8-0.5
						c0,0.3,0.6,0,0.5,0.8c0.7-0.2-0.2-0.5-0.1-0.9c1.1-1,2.7,1.2,4.3-0.2c1.4-0.6,1.6-1.6,2.9-2.2c0.5,0.4-0.3,1.1-0.3,1.1
						c0.7,0.4,1.3,0.3,1.9-0.1c-0.1,0.3,0,0.5,0.3,0.8c0.5-0.1,0.3-1.1,1-0.7c-0.1,0.3-0.2,0.9-0.4,1.2c0.6-0.3,1.2-0.9,1.8-1.2
						c0.2,0.5-0.3,0.8-0.5,1.2c0.7-0.3,1.9-0.6,2-1.5l-0.5-0.2c0.3-0.1,0.2,0.7,0,0.8c-0.6,0.7-0.9-0.2-1-0.5l0.4-0.2
						c-0.6-1.7-1.8,0.4-2.8,0.4l0.3-1.3l-0.9,1.1c-0.2-0.3-0.4-1,0-1.2c-0.7-0.6-0.6,0.5-1.2-0.2c-0.1-0.1,0-0.2,0-0.2l-0.6,0.4
						c0.1-0.3-0.2-0.9,0.3-0.7c-1.2-0.7-1.8,1-2.3,0.1l0.1-0.1c-1.6,0.5-0.1,0.9-1.3,2l-0.9-2.2l-0.1,0.9c-0.2,0-0.5-0.1-0.4-0.5
						c-0.6,0.6,0.1,0.4-0.2,1c-0.8-0.8-2.2,0.4-2.4-1.1c-0.3,0.7,0.8,0.5-0.1,1c-0.2-1.6-1,0.2-1.7-0.5c0.2-0.8,0.9-0.4,0.2-1.1
						c-0.5,1.4-1.4-0.3-2-0.1c-0.1,1.1-1.3,0.4-2.4,0.7c0.1-0.4-1.9-0.7-2.8-1.2v-0.2c-0.3,1.1-1.2,0.8-2,0.9
						c0.1-0.7,0.2-0.9,0.7-1.2l-0.7-0.1c-0.2,0.3-0.4,0.5-0.9,0.6l0.3-0.8c-0.9,0-1.9,0.8-3,0.1c-0.2,0.8,0.6,2.2-0.7,2.6
						c0-0.4,0.1-1.1,0.4-1.3c-0.1,0-0.4,0.3-0.6,0.1l0.6-0.6c-0.5-0.4-0.4,0.5-0.8,0.4c0.1-0.6-0.2-0.5-0.1-0.9
						c0.1,0,0.3,0.3,0.5,0.1c-0.5-0.2-1-0.6-1.1-1.1c0,0.3-0.1,0.8-0.5,0.8c-0.9-0.1-0.2-0.7-0.7-1.1c-0.3,0.4-0.8-0.1-0.9,0.7
						c-0.3,0-0.2-0.5-0.3-0.7c-0.5,0.3-2.1-0.3-1.8,0.8l0.1,0.1h-0.1l0,0l0,0c-1.7,0.6-3-1.1-4.5-1.1l0.1-0.3
						c-0.9,0.1-1.9-0.3-2.7,0c-0.2-0.1-0.4-0.7-0.1-1c-0.7,0-0.9,0.2-1.5-0.6c0.8-0.2,0-0.5,0.7-0.1c-0.6-0.6-0.5-1.1-1.6-0.8
						c0.6-0.5,0.1-1.1-0.3-1.1c0,0.2,0,0.5,0.1,0.7c-0.4-0.2-0.6-0.4-0.8-0.7c0.3-0.2,0.5-0.4,0.8-0.6c-0.1-0.9-0.7-0.9-1.4-1.2
						c-0.7-0.2-1.2-0.7-0.5-1.6c-0.4,0-0.4,0.2-0.5,0.4c0,0.2-0.1,0.5-0.5,0.5c-0.2-0.7,0.9-1.9,0.9-2c0.1-0.5-0.2-0.6-0.7-0.7
						c-0.4-0.1-0.9-0.3-0.8-0.9c-0.3,0.2-1.3,0.5-1.7-0.4c0.1-0.8,1.4-1.1,1.7-0.6c0,0.2-0.1,0.3-0.2,0.3c0.1,0.2,0.3,0.5,0.7,0.2
						l-0.4-0.1c0.3-0.4,0.2-1.4,0.8-1.2c-0.3-0.5-0.6-0.2-0.8,0.2c0.5-1,0-1.5,0.4-2.5c-0.2,0.1-0.6,0.3-0.6,0.1
						c0.6-1.5-0.6-0.7-0.7-1.8c0.6-0.5,1.3,0.4,0.9-0.7c0.5-0.6,1,0,1.2,0.3c-0.6-1,0.7-1.7,0.9-2.2l0.2,0.5c-0.1-0.3-0.1-0.6,0-0.8
						l-0.8,0.2c0.2-0.3,0.2-0.5,0.5-0.5c-0.4-0.4-1.2,0-1.7-0.7c0.2-0.2,0.2-0.4,0.2-0.5c0-0.2,0.1-0.3,0.5-0.1
						c-0.2,0.2,0,0.3,0.3,0.4s0.6,0.2,0.7,0.3c-0.1-0.1-0.1-0.1,0-0.2c0.1,0,0.2,0.1,0.2,0.1c0.8,0.2-1-0.6-0.7-1
						c0.4,0.4,0.9,0.7,0.8,0.6c-0.1,0.1-0.8-0.6-0.9-1.1c0.6,0.2,0.2-0.5,0.4-0.5c-0.1,0-0.2-0.1-0.3-0.1c-0.2-0.5,0.1-0.6,0.4-0.8
						c0.2,0.4-0.2,0.3,0,0.5c0-0.5,0.4-0.3,0.6,0c0.1,0.1,0.3,0.3,0.4,0.4c0,0,0.1,0.1,0.2,0.1c0.1,0,0.2,0,0.3-0.1
						c0.4,0.4,0,1,0.3,1.3c1-0.6,0.9,0.8,2,0.3c-0.2-0.7-0.3-0.6,0.5-1.2c-0.6,0.1-1.1,0.2-1.7,0.3c0.4-0.3,0.8-0.6,1.1-0.9
						c-0.5-0.1-1.1,0.4-1.4,0.2c0.5-0.5,0.5-0.4,0.3-1c0.6,1.1,1.4-0.5,2.2,0.3l-0.2,1.8c1.1,0.9,2.2-0.6,3.7,0.1l-0.4-0.4
						c0.3-0.7,1,0.1,1.6-0.1c-0.2,0.6,0.1,0.8,0.3,1.3c0.1-0.4,1.1,0.3,1.5-0.8l0.5,0.9c1.2,0.6,1.8-1.3,3-0.9c-0.5,0.5,0,1.1-1,1.3
						c0.4,0.1,0.8,0.3,0.9-0.1c0.2,0.4,1.3-0.5,1.6,0.1c0.2-0.2,0.4-0.8,0.9-0.7c0,0.1-0.1,0.3-0.1,0.3c0.1-0.3,0.8-0.2,0.5-1
						c1,2.1,3.6,0.6,4.5,2.3c1,0,2.1-0.1,3,0c-0.1,0.2,0,0.3-0.2,0.2c1.1,0.7,0.9-1.6,2.2-0.8c0.6,1-0.8,0.4-0.4,0.8
						c0,2,1.6-0.1,2.4,1.1l-0.2,0.1c0.6,0.7,1.8-0.6,2.9-0.4c0,0-0.1,0.2,0,0.3c0.8-0.9,2.3-1.1,3.4-1.4c-0.4,0.7-0.5,0.4-0.3,1.2
						c0.5-0.1-0.1-1.2,0.9-1.4c0.3,0.4,1,0.8,1,1.7h-0.9c0.4,1.1,1.2,0,1.7,0.2L95,97.9c1.4-0.1,1.5-1.3,3-1.2l-0.2-0.4
						c0.8-1.2,0.7,0.7,1.5-0.2l0.3,1.2c0.5-0.3,1.9-1.1,2.8-1.4c-0.5,0.9-1.7,1.4-2.4,1.9c0.5,0,1.8-0.1,2.1-0.7
						c-0.2,0.1-0.5,0.4-0.7,0.2c0.6-1,1.5-1.4,2.6-1.5c-0.1,2.3,2.8,0.4,3.7,2.1c1.8-1,3.8,0,6.1-0.4c-1-1.7,0.6-0.1,0.3-1.9
						c0.5-0.2,0.7-0.2,0.8-0.1l1.7,0.9c0.4,0.5-0.4,0.5-0.3,0.9c1.2,0,0.6,0.7,1.4,1.1c-0.3-0.6,0.2-1,0.9-0.8l-1-0.7
						c1.4-1.2,1.6,1.3,3.1,0.1l-0.4,0.7c0.4-0.2,1.1-0.4,1.9-0.6c0.7-0.3,1.4-0.7,1.7-1.5c0.2,0.2,0.5,0.6,0.2,0.8
						c2-0.2,3.9-2.5,5.6-2v0.5c0.3-0.2,0.4-1,0.9-0.6c0,0.2,0,0.5,0.1,0.5c0.1-0.2,0.7-1,1.2-0.8l-0.3,0.6c1.8,0.2,2.3-1.8,3.7-2.3
						c0.2,1.3,1.4,1.6,1.9,1.9v0.2c0.7,0.1,1.4-0.1,2.1-0.3c0.7-0.2,1.4-0.4,2.2-0.3c0.1,0.8,0.5,1.3,0.9,1.8s0.7,1.1,0.5,1.8
						c0.2-0.2,1-0.3,1.2-0.1c-0.1,0.2,0.2,0.4,0.3,0.5c0.1,0.2,0.2,0.3-0.4,0.4v-0.1c-1.1,0.4-0.7,1-0.8,1.6l1.6,0.1
						c-1.1,0.8-1,1.8-1,3c0.1,1.1,0.1,2.2-1,2.5c0.3,0.5,0.2,1,0.5,1.5l-0.8-0.2c-0.2,0.5-0.4,0.7-0.6,1c-0.2,0.3-0.1,0.3-0.2,0.5
						c-0.1-0.2-0.3-0.3-0.4-0.4c0,0,0.3,0.3,0.6,0.8s0.5,1,0.5,1.3c0,0.1-0.1,0.2-0.2,0.2c-0.3-0.3-0.6-0.7-0.9-1
						c-0.6,0.3-1.2,0.5-2.1,1.2c-0.4,0.4-1.1,0.8-1.6,2.2c-0.1,0.4-0.2,0.8-0.2,1.2c0,0.4,0,0.9,0.2,1.3c0.1,0.4,0.3,0.8,0.4,1.1
						c0.2,0.3,0.3,0.5,0.5,0.7l1.6-6.1c-0.5,0.2-1,0.4-1.3,1c0-0.2-0.1-0.5,0.1-0.7c-0.7,0.2-2.8,0-2.1,1.6c-0.3-1.1-1.5,0.3-2.3,1
						l-0.1-0.8c-0.4,1.2-0.4,1.5-1.3,2c-0.3-0.1-0.3-0.6,0-0.5c-0.9-0.3-0.5,0.9-1.5,0.6l0.3-0.6c-0.8,0.1-0.7,0.3-1,1
						c-0.5,0.4-1.6,0-1.8-0.7c0,0.5-0.4,1.1-0.9,1c-0.1-0.3,0.1-0.5,0.1-0.6c-1.4-0.4-1.9,1.2-2.9,0.5c0-0.3-0.1-0.4-0.2-0.5
						c1.1-0.1,1.9-0.1,1.9-0.1c-0.1-0.8-1-0.8-0.4-1.9c-0.6,0.7-1.7,2-2.6,1.7c0-0.1-0.1-0.1-0.1-0.3l0.1-0.1
						c-0.2-0.1-0.4,0-0.5,0.2c-0.3-0.1-0.5-0.2-0.7-0.2c-0.1-0.6-1-0.3-1.5-0.3c0.1,0.8-0.5,0.7,0.1,1.4c-0.1-0.1,0.1-0.1,0.4-0.2
						c0.1,0,0.1,0,0.2-0.1c0,0,0,0,0,0.1c0.3,0,0.7-0.1,1.1-0.1c-0.3,0.5-0.6,0.8-1.2,0.4c-0.2,0.6-0.4,1.1-0.5,1.4
						c-0.7-1.1-1.9-1.7-2.1-2.4c-1.3,0.5-3.1,0.5-3.9,2.1c-0.4,0.2-0.5-0.4-0.6-0.7c0.2-0.2,0.5-0.2,0.6-0.4
						c-0.8,0.4-2.3,0.2-2.4,1.3c-1-0.5,0.5-1-0.8-0.8l0.2-0.3c-2.7-1.7-4.2,2.9-7.2,0.6c0.2,0.1,0.3,0.2,0.4,0.4
						c-3.4-1-6.9,1-10.2-0.5c-0.9-0.3-1,0.4-1.6,0.9l-0.2-0.9l-1,1.1c-1.4,0.8-2.4-2.2-4.2-0.7l0.2,0.6c-0.6-0.1-2,0.4-1.9-0.3
						c-0.1,0.1-0.2,0.6-0.5,0.3v-0.5l-1.5,0.8c-1.2-0.3,0.2-1.9-1.6-2c-0.6,0.2-1.9,1.4-1.6,1.7c0.3,0,0.7,0.3,0.7,0.8l-0.6,0.3
						c-0.1,1.4-0.6,2.8,0.9,3.8l1-0.9l0.3,0.7l-0.9,0.1c0.5,0.6,0.8,0.1,1.1-0.3c0.1,0.4,0.2,0.6,0.4,0.7l1-1.3
						c0.1,0.5-0.5,1.1,0.2,1.4c0.5-0.6-0.4-1.2,0.3-1.6c0.5,0.6,0.3,1.1,0.9,0.6c0.1,0.4,0,0.6-0.3,0.8c0.5-0.4,1.4-0.2,1.6-0.9
						c0.5,0.8,1.7-0.2,1.7,1.1c0.2-0.3,0.9-1,1.4-1.1c-0.8,1.6,1.8,0.1,1.5,1.8c0.6-1.4,2.3-0.7,3.4-1.5c-0.1,0.1-0.2,0.3-0.3,0.3
						c0.6,0.1,0.8,0.5,1.2,0.8c0.1-1.2,1-1.5,1.6-2.2c0.8,1.1-0.5,1.4-0.2,2.5c-0.1-1,1.3-1,1.1-1.8c0.6,0.7,0.5,0.3,0.8,1.3
						c0.1-1.5,0.5-0.3,1-1.2c0.9,0.7,0.2,1.4,1.2,0.9C103.3,122.3,102.4,122.8,102.4,122.8z M124.9,119.5L124.9,119.5
						c-0.2,0.1-0.4,0.1-0.5,0.1C124.5,119.6,124.7,119.6,124.9,119.5z M126.8,119.3c-0.2,0-0.5,0-0.8,0.1c-0.1-0.3-0.1-0.6,0.1-0.6
						C126,119,126.5,119.1,126.8,119.3z M122.3,113.8c0.3-0.1,0.4,0,0.4,0.2c-0.1,0-0.3,0.1-0.5,0.1v0.1
						C122.3,114.1,122.3,114,122.3,113.8z"/>
					<path class="st2" d="M121.9,115L121.9,115c0,0.2,0,0.2,0.1,0.3c0-0.1,0.1-0.2,0.1-0.3C122,115,121.9,115,121.9,115z"/>
					<path class="st2" d="M68.8,115.5L68.8,115.5L68.8,115.5C68.8,115.6,68.8,115.6,68.8,115.5z"/>
					<polygon class="st2" points="150.5,106.3 150.3,106.3 150.4,106.5 					"/>
					<path class="st2" d="M78.6,119.8c0,0.1,0,0.2,0.1,0.2C78.8,120,78.7,119.9,78.6,119.8z"/>
					<path class="st2" d="M83.2,120.3l0.6,0.3C83.5,120.5,83.3,120.4,83.2,120.3z"/>
					<path class="st2" d="M86.6,120.9c0-0.1,0.1-0.3,0.1-0.4l0,0L86.6,120.9z"/>
					<path class="st2" d="M55,87.7c0.1,0,0.1-0.1,0.2-0.1C55.5,87.3,55.2,87.4,55,87.7z"/>
					<path class="st2" d="M52.2,106c-0.2-0.2-0.4-0.3-0.5-0.5C51.7,105.9,51.8,106.1,52.2,106z"/>
					<path class="st2" d="M75.3,88.7C75.2,88.7,75.2,88.7,75.3,88.7L75.3,88.7L75.3,88.7z"/>
					<path class="st2" d="M51.7,104.7c-0.1,0.3-0.1,0.6,0.1,0.8C51.8,105.3,51.8,104.9,51.7,104.7z"/>
					<path class="st2" d="M101.8,120.8h0.2c0-0.1,0-0.1,0-0.1L101.8,120.8z"/>
					<path class="st2" d="M102,120.7l0.2-0.1C102.1,120.6,102,120.6,102,120.7z"/>
					<path class="st2" d="M102.5,120.3l-0.4,0.3C102.3,120.5,102.5,120.6,102.5,120.3z"/>
					<path class="st2" d="M97.2,120.8v0.3C97.2,121,97.2,120.9,97.2,120.8z"/>
					<path class="st2" d="M95.8,120.9c0.3,0.1,0.9,0.6,1.3,0.4v-0.2C96.9,121.5,96.1,120.4,95.8,120.9z"/>
					<path class="st2" d="M89.9,117.3l1.1,0.2c-0.2-0.3-0.5-0.8,0.1-0.8C89.6,115.7,91.4,117.4,89.9,117.3z"/>
					<path class="st2" d="M86.4,116.7c0.6-0.1,0-0.5,0-0.7C86,116.4,85.9,116.4,86.4,116.7z"/>
					<path class="st2" d="M61.5,112.9l0.3-0.7C61.4,112.2,61.7,112.5,61.5,112.9z"/>
					<path class="st2" d="M55.1,113.5c0,0.2,0,0.5,0.1,0.7l0.7-0.3C55.7,113.7,55.4,113.6,55.1,113.5z"/>
					<path class="st2" d="M57.8,108c0.1,0,0.1,0.1,0.2,0.1c-0.2-0.1-0.3-0.2-0.5-0.4L57.8,108z"/>
					<path class="st2" d="M78.8,96.9v-1C78.5,96.1,78.2,97.1,78.8,96.9z"/>
					<path class="st2" d="M98.1,97.6c0.2,0.5,0.7,0.8,1.1,0.3C98.7,97.8,98.3,97.5,98.1,97.6z"/>
					<path class="st2" d="M143.7,100.4c-0.1-0.1-0.2-0.2-0.3-0.3c0.1,0.2,0.2,0.4,0.2,0.6L143.7,100.4z"/>
				</g>
			</g>
		</g>
	</g>
</g>
</svg>
