<?xml version="1.0" encoding="utf-8"?>
<!-- Generator: Adobe Illustrator 21.1.0, SVG Export Plug-In . SVG Version: 6.00 Build 0)  -->
<svg version="1.1" id="Layer_1" xmlns="http://www.w3.org/2000/svg" xmlns:xlink="http://www.w3.org/1999/xlink" x="0px" y="0px"
	 viewBox="0 0 200 200" style="enable-background:new 0 0 200 200;" xml:space="preserve">
<style type="text/css">
	.st0{fill:#6D5C57;}
	.st1{fill:#999999;}
</style>
<path class="st0" d="M134.1,127.7c-2.5,2.9-13.8,15.2-32.4,16.2c-1.1,0.1-23.7,0.9-37.7-16.8c-7.4-9.4-13.1-24.9-8.1-29.6
	c6.1-5.6,20,11.8,44.6,11.7c24.4-0.1,38.3-17.2,43.8-11.8C149.2,102,142.4,118,134.1,127.7z"/>
<path class="st1" d="M144.3,92.6c3.5,4.4,4.5,11.5,2,16.4c-4.7,9.3-19.9,9.4-46,9.3c-25.9-0.1-41-0.4-45.6-9.7
	c-2.4-4.7-2.1-11.9,1.6-15.9c7.1-7.7,20.3,2.6,46,2.3C128.5,94.5,138.7,85.6,144.3,92.6z"/>
</svg>
