<?xml version="1.0" encoding="utf-8"?>
<!-- Generator: Adobe Illustrator 21.1.0, SVG Export Plug-In . SVG Version: 6.00 Build 0)  -->
<svg version="1.1" id="Layer_1" xmlns="http://www.w3.org/2000/svg" xmlns:xlink="http://www.w3.org/1999/xlink" x="0px" y="0px"
	 viewBox="0 0 100 100" style="enable-background:new 0 0 100 100;" xml:space="preserve">
<style type="text/css">
	.st0{fill:#665855;}
</style>
<path class="st0" d="M6.1,45.7c-1.3-1.8-1.7-3.5-2.2-5.4c-2.2-9.6-1.6-16.3-1.4-18.1c0.5-4.9,1.3-6.3,2.4-6.8
	c0.9-0.5,1.3,0.1,5.1,0.4c3.3,0.3,4.6,0,5.4,1c0.7,0.8,0.7,1.8,0.6,2.8c-0.3,4.3-1.4,7.8-2.2,10.2c-2,6.4-1.9,7.5-1.3,8.3
	c0.8,1,2,0.7,4,2.5c0.8,0.8,1.5,1.4,1.7,2.4c0.4,1.8-1,3.4-1.5,4.1c-1.9,2.3-4.7,2.8-5.7,2.9C9.8,49.3,7.7,48.1,6.1,45.7z"/>
</svg>
