<?xml version="1.0" encoding="utf-8"?>
<!-- Generator: Adobe Illustrator 21.1.0, SVG Export Plug-In . SVG Version: 6.00 Build 0)  -->
<svg version="1.1" id="Layer_1" xmlns="http://www.w3.org/2000/svg" xmlns:xlink="http://www.w3.org/1999/xlink" x="0px" y="0px"
	 viewBox="0 0 100 100" style="enable-background:new 0 0 100 100;" xml:space="preserve">
<style type="text/css">
	.st0{fill:#A1D8F7;}
	.st1{fill:#FFFFFF;}
</style>
<path class="st0" d="M13.8,50.6c-2.6,0-4.5-2.3-5.8-4c-5.2-6.5-5.4-14.1-5.2-23.4C2.9,12.8,5.1,11,5.8,10.4c1.4-1.3,3.5-2.1,5.3-2.2
	c1.2-0.1,2.2,0.2,3,0.7c2.7,1.7,2.6,6.3,2.4,10.4c-0.1,4.5-1.1,7.9-1.8,10.5c-0.9,3.3-1.6,5.6-0.1,7.9c1.1,1.5,2.5,2.1,3.8,2.6
	c1.1,0.5,2.1,0.9,2.4,2c0.4,1.2-0.1,2.9-1.2,4.6c-1.5,2.1-3.7,3.5-5.7,3.6L13.8,50.6z"/>
<g>
	<g>
		<g>
			<g>
				<g>
					<path class="st1" d="M4.5,13.3l-0.3-0.1c0,0,0.1,0.2,0.2,0.2L4.5,13.3z"/>
					<path class="st1" d="M4.5,12.8c-0.3-0.1-0.3,0.1-0.2,0.3c0.2,0,0.1-0.1,0.2-0.1C4.4,13,4.3,12.8,4.5,12.8
						c0.3,0.2,0.2,0.1,0.5,0.2c-0.2-0.3-0.5-0.4-0.7-0.4C4.3,12.6,4.4,12.6,4.5,12.8z"/>
					<path class="st1" d="M10.7,7.1L10.7,7.1C10.7,7.1,10.7,7.2,10.7,7.1z"/>
					<path class="st1" d="M15.9,9C15.8,8.9,15.8,9,15.9,9C15.9,9,15.9,8.9,15.9,9z"/>
					<path class="st1" d="M16.8,9.6C16.8,9.5,16.8,9.6,16.8,9.6C16.8,9.5,16.8,9.5,16.8,9.6z"/>
					<path class="st1" d="M10.9,7l-0.2,0.1C10.8,7.1,10.9,7.2,10.9,7z"/>
					<path class="st1" d="M5.6,12.2C5.5,12.1,5.5,12.2,5.6,12.2L5.6,12.2L5.6,12.2z"/>
					<path class="st1" d="M8.1,7.6c0,0.1,0,0.1,0.1,0.1l0,0L8.1,7.6z"/>
					<path class="st1" d="M6.8,9C6.9,9,6.9,9,7,9.1C6.9,9,6.7,8.8,6.7,8.8C6.8,8.9,6.8,8.9,6.8,9z"/>
					<path class="st1" d="M5,11.1L5,11.1C5,11.1,4.9,11.1,5,11.1z"/>
					<path class="st1" d="M9.5,6.9L9.5,6.9C9.5,7,9.5,7,9.5,6.9z"/>
					<path class="st1" d="M10,9.6C10,9.5,10,9.5,10,9.6C10.1,9.6,10.1,9.5,10,9.6z"/>
					<polygon class="st1" points="11.6,7.6 11.6,7.7 11.6,7.7 					"/>
					<path class="st1" d="M18,11.2L18,11.2C18.1,11.2,18.1,11.2,18,11.2z"/>
					<path class="st1" d="M10.5,23.8c-0.1,0.3,0.4,0.2,0.3,0.5C11.1,24.1,10.6,23.9,10.5,23.8z"/>
					<path class="st1" d="M5.6,12.1L5.6,12.1L5.6,12.1z"/>
					<path class="st1" d="M10.6,23.8L10.6,23.8L10.6,23.8L10.6,23.8z"/>
					<path class="st1" d="M18.1,15.3c0,0.1,0.1,0.1,0.1,0.1C18.1,15.3,18.1,15.3,18.1,15.3z"/>
					<path class="st1" d="M17.7,12.4L17.7,12.4C17.7,12.4,17.8,12.4,17.7,12.4z"/>
					<path class="st1" d="M17.7,16.8C17.6,16.9,17.7,16.9,17.7,16.8L17.7,16.8C17.7,16.9,17.7,16.9,17.7,16.8z"/>
					<polygon class="st1" points="17.2,18.3 17.2,18.3 17.2,18.4 					"/>
					<path class="st1" d="M6.6,11.1c0.1,0.1,0.2,0.1,0.2,0.2C6.9,11.2,6.7,11.2,6.6,11.1z"/>
					<path class="st1" d="M5.5,12.1c0.1,0,0.1,0,0.1,0.1C5.6,12.2,5.6,12.1,5.5,12.1L5.5,12.1z"/>
					<path class="st1" d="M15.4,16.7l0-0.2C15.4,16.6,15.4,16.7,15.4,16.7z"/>
					<path class="st1" d="M3.7,20.6L3.7,20.6L3.7,20.6z"/>
					<path class="st1" d="M15.4,17.5C15.5,17.5,15.5,17.5,15.4,17.5c0-0.1,0-0.1-0.1-0.2L15.4,17.5z"/>
					<path class="st1" d="M6.6,11.1L6.6,11.1L6.6,11.1z"/>
					<path class="st1" d="M7.7,10.8c0.2,0,0-0.1,0-0.4c0.3,0.2,0.2-0.2,0.4,0.2C8,10.3,8,10.4,8,10.1c0,0.2,0.3,0.1,0.4,0.4
						C8.3,10.1,8,10.2,7.9,9.8c0.2,0.1,0.4,0.1,0.6,0.5c0-0.1,0-0.2,0.1-0.3L8.5,9.8C8.9,9.9,9,9.6,9.4,10C9.1,9.4,9.8,9.7,9.5,9.3
						c0.1,0,0.3,0.2,0.4,0.3c-0.1-0.4,0.2-0.1,0.3-0.4c0.1,0.2,0.3,0.1,0.4,0.2c-0.1,0-0.1-0.1-0.1-0.2c0.2,0.2,0.1,0,0.2-0.2
						c0.2,0.1,0.1,0.3,0.2,0.5c0.2-0.2,0-0.3,0-0.5l0.3,0.4c0.1-0.1,0.1-0.2,0.1-0.3c0.1,0.1,0.2,0.3,0.4,0.2l-0.2,0l0-0.2l0.3,0.2
						c0.3-0.4,0.1-0.8-0.1-1.3l-0.2-0.1c0-0.2,0-0.3,0.1-0.3c0-0.1-0.3-0.5-0.5-0.5c-0.5,0.1,0,0.5-0.3,0.7l-0.4-0.2l0,0.2
						c0,0.1-0.1-0.1-0.1-0.1c0.1,0.2-0.3,0.1-0.4,0.2l0-0.2C9.4,7.3,9.5,8.3,9.1,8.2L8.7,7.7l0,0.3C8.5,7.8,8.4,7.6,8.2,7.8
						C8,8.3,7.6,8.4,7.2,8.6C6.8,8.7,6.3,8.9,6.1,9.4c0-0.1,0-0.1,0-0.2C6,9.8,5.7,9.8,5.3,9.9C5,10,4.6,10.1,4.7,10.6l0.1,0
						c-0.3,0.3,0.1,0,0.1,0.3c-0.4-0.2-0.5,0.3-0.7,0.4c0.1,0,0.1-0.1,0.2-0.1c0.1,0,0.3,0.1,0.2,0.2c-0.5,0-0.7,0.5-0.9,0.7
						c0.2,0.1,0.3,0.4,0.6,0.7c-0.1,0-0.3,0-0.5,0c0.1,0.2,0,0.2-0.2,0.2c0-0.1,0.1-0.1,0.1-0.2l0,0l0,0c0.1-0.1,0.1-0.1,0.1-0.1
						c-0.1-0.2-0.1-0.1-0.4-0.2c0,0.1-0.2,0.2,0,0.3c0,0.1,0,0.1,0,0.2c-0.1,0-0.1,0.1-0.1,0.1l0,0c0.1,0.1,0.1,0.1,0.1,0.1
						c0,0.2-0.5,0.3-0.7,0.3c0.3,0.1,0.3,0.3,0.5,0.4c0,0,0.1-0.2,0.2-0.4c0,0,0,0.1,0.1,0.1c0.1,0.4-0.4,0.2-0.4,0.6
						c0.1,0,0.1,0,0.2,0.1c0,0.2-0.3,0.2-0.4,0.1C3.3,14.6,3.4,15,3.2,15c-0.2,0-0.3-0.1-0.4,0.1l0.2,0c0,0.3-0.3,0.1-0.3,0.3
						c-0.1-0.1,0.1,0,0.1,0.1c-0.2,0.1-0.3,0.1-0.7,0.1l0.3,0.1c-0.2,0.2-0.7,0.4-0.4,0.6c-0.5-0.3-0.5,0.4-0.5,0.6c0,0,0.1,0,0.2,0
						c-0.6,0.3-0.2,0.9-0.3,1.3l0.4,0.1c0,0.2-0.9,0.2-0.9,0.5l0.2-0.1c-0.2,0.5-0.1,0.7,0,1l0.3,0c-0.2,0.1-0.2,0.3-0.3,0.4
						c0.7,0.3-0.3,1.1,0.5,1.6l-0.5,0c0,0.1,0,0.2,0,0.3c0,0.1,0.1,0.3,0.3,0.3l0-0.1c0.4,0,0,0.3,0.1,0.5c-0.1,0.2-0.3,0.4-0.4,0.3
						c0.1,0.1,0.2,0.3,0.3,0.5c0.2,0.3,0.5,0.6,0.8,0.7c0.3,0.1,0.7,0.1,0.9-0.1l0.2,0.2l0.1,0.1L4,24.7c0.2,0.2,0.4,0.4,0.7,0.4
						l0-0.1c0.2,0,0.6-0.1,0.7-0.5c0.3,0.2,0.5,0.8,1,0.6L6.3,25c0.1-0.1,0.3,0.1,0.3,0.2c0,0,0-0.1,0-0.2c0.2-0.1,0.2,0.1,0.3,0.2
						l0-0.2c0.4-0.2,1,0.3,1.6,0.2c-0.1-0.1,0-0.2,0-0.3c0.2,0.5,0.8,0.3,1.1,0.3l0-0.2c0.6,0.2,0.3-0.6,0.8-0.4
						c-0.1,0.1-0.1,0.2-0.2,0.3c0.2-0.2,0.4-0.1,0.4,0.1c0.2-0.2-0.1-0.4,0.2-0.5c0-0.1-0.2,0-0.2-0.2c0.1-0.2,0.2-0.3,0.3-0.5
						c0-0.1,0.1-0.1,0.2-0.1c0.2,0.6,0.3-0.1,0.4,0.5c0.6-0.2,0.8-0.8,1.3-0.9c-0.2-0.6,0.7-0.5,0.2-1.1c0.3-0.1,0.5-0.1,0.8,0.1
						c0,0.1-0.1,0-0.2,0c0.1,0.1,0.4,0,0.5-0.1c-0.2,0-0.5,0-0.8-0.2c0.2,0,0.6,0.1,0.8,0.1l-0.2-0.4c0.3,0.2-0.1-0.3,0.3-0.1l0,0.1
						c0.3-0.2,0.5,0.1,0.8,0l-0.1-0.1c0.1-0.1,0.4,0.2,0.3-0.2l-0.2,0.1c-0.1-0.3,0-0.4,0-0.6c0.2-0.1,0.3,0.3,0.4,0.3
						c-0.1-0.2-0.1-0.1-0.3-0.3c0.3,0,0.6-0.1,1-0.1c-0.1-0.1-0.1-0.1-0.1-0.1c0.2-0.2,0.7-0.1,0.7-0.4l-0.1,0
						c-0.1-0.4,0.7-0.3,0.2-0.7c-0.1-0.2-0.1,0.2-0.3-0.1c0-0.4,0.6,0.1,0.6-0.3c0,0,0,0-0.1,0c0.2-0.1,0.4-0.4,0.5-0.6
						c-0.4-0.4,0.4-0.8-0.2-1.3c0.2,0.2,0.3,0,0.4,0l-0.1,0c0-0.1,0.2-0.1,0.3-0.1c-0.2-0.2,0.2-0.3,0.1-0.4c0.1,0,0.1-0.1,0.1-0.2
						c-0.2,0.2-0.3,0-0.5,0.1c0-0.3,0.7-0.3,0.6-0.6l-0.2-0.1c0.4,0,0.3-0.3,0.4-0.3c-0.1-0.1-0.2-0.2-0.4-0.2
						c0.1-0.2,0-0.4,0.2-0.4l0.1,0.1c-0.1-0.5,0.4-0.7,0.1-1l-0.6,0c-0.2-0.3,0.4-0.4,0-0.6c0.2,0.1,0.1,0.1,0.3,0
						c0.1,0.1-0.1,0.3-0.1,0.4l0.4-0.3c-0.1,0.1-0.1,0.3-0.2,0.4c0.2-0.2,0.2-0.2,0.4-0.1c0.2-0.3-0.2-0.3,0-0.6
						c-0.1-0.1-0.3,0-0.4-0.1c0.2-0.2-0.4-0.4-0.1-0.6c-0.1,0-0.1,0.1-0.2,0.1c0.1-0.1,0-0.2,0.2-0.3l0.1,0.1c0-0.1,0.3-0.2,0.1-0.4
						c0.1-0.1,0.4-0.2,0.4-0.1c0-0.1-0.1-0.2-0.3-0.1c-0.1-0.4,0.5-0.3,0.2-0.6c0,0.1-0.1,0.1-0.1,0.1c-0.1-0.1-0.1-0.1-0.1-0.2
						c0,0.4-0.5,0.1-0.3,0.4c-0.3,0.1-0.2-0.2-0.3-0.3c0.2-0.3,0.5-0.2,0.6-0.3c-0.1,0.1-0.1,0-0.2-0.1l0.3,0c0-0.1,0-0.2,0-0.3
						l0,0.2c-0.1-0.1-0.6-0.2-0.5-0.6c-0.1,0.1-0.2,0.3-0.4,0.2c0-0.4-0.2,0-0.4-0.1c-0.1-0.3,0.4-0.3,0-0.6c0-0.1,0.1-0.1,0.2-0.1
						c-0.3-0.2-0.3-0.4-0.6-0.6C16.3,9,16.5,9,16.4,8.8c-0.1,0.2-0.3,0-0.5,0L16,8.6c-0.2,0-0.1,0.1-0.1,0.2l0.1,0
						c0,0.2-0.3,0.5-0.5,0.4C15.4,9,15.6,8.8,16,8.9c-0.3-0.1,0.1-0.7-0.3-0.7c0,0-0.5,0.3-0.7,0.2c0.1-0.3,0.4,0,0.4-0.3
						c-0.6,0.4-0.4-0.7-1-0.5l-0.1,0.3c-0.1-0.1-0.2-0.1-0.3-0.2l0.2-0.1c-0.1-0.1-0.4-0.2-0.4,0.1c-0.1-0.4-0.3-0.3-0.5-0.3
						c0.2,0.1,0,0,0.1,0.2c-0.3,0-0.3-0.1-0.4-0.2c0,0.1-0.1,0.2-0.2,0.2c0-0.3-0.3-0.3-0.5-0.5l0,0.1C11.8,7,11.4,7.5,11,7.2l0,0
						l0,0l0,0l0,0c0.1-0.3-0.4-0.2-0.5-0.3c0,0.1,0,0.2-0.1,0.2c-0.1-0.3-0.2-0.2-0.3-0.3c-0.2,0.2,0,0.4-0.2,0.4
						C9.8,7.2,9.7,7.1,9.7,7c0,0.2-0.1,0.3-0.2,0.4c0,0.1,0.1,0,0.1,0c0,0.1-0.1,0.1,0,0.3C9.5,7.8,9.5,7.5,9.4,7.6l0.2,0.2
						c-0.1,0.1-0.2,0-0.2,0c0.1,0,0.2,0.3,0.2,0.4C9.3,8.1,9.3,7.6,9.2,7.4C9,7.7,8.6,7.5,8.4,7.6l0.2,0.2c-0.1,0-0.2,0-0.3-0.1
						L8.1,7.8c0.1,0.1,0.2,0.1,0.3,0.3c-0.2,0-0.4,0.2-0.6-0.1l0,0C7.8,8.4,7.4,8.7,7.5,8.8C7.2,8.9,7.1,9.3,6.9,9
						c-0.2,0,0,0.6-0.4,0.3c0,0.3,0,0.1,0.2,0.3c0,0.3-0.5,0-0.2,0.4c-0.2,0,0-0.2-0.2-0.3c0.3,0.4-0.2,0.3-0.2,0.6
						c-0.2-0.1-0.1-0.1-0.3-0.2c0.1,0.1,0,0.2,0,0.2l-0.2-0.2L6,10.9c-0.5-0.1-0.3-0.4-0.7-0.3l0,0c0.1,0.3-0.4,0-0.4,0.4
						c0-0.1,0.1,0.1,0.2,0.1l-0.2,0c0.1,0,0.1,0,0.1,0c0.1,0.3-0.1,0-0.1,0.3c0.1,0,0.3,0.2,0.3,0.3l-0.4-0.1l0.4,0.2
						c-0.1,0.1-0.9,0-0.5,0.4l0.1,0c0.1,0.1,0.3,0.3,0,0.3l-0.2-0.2l0,0.1c0.2,0.1,0.4,0,0.6-0.1c-0.2,0-0.3,0-0.4-0.1
						c0.2-0.1,0.4-0.1,0.6-0.1c-0.2,0-0.3-0.1-0.4-0.2c0-0.2,0.2,0.1,0.3,0c-0.1-0.1-0.1-0.2-0.2-0.2c0.2,0,0.3-0.1,0.3-0.3
						c0,0-0.3,0-0.3-0.2c0.4,0,0.6,0.2,1,0c0.6,0.1,0.4-0.7,0.8-0.6c0.1,0,0,0.2,0.2,0.2c-0.2-0.2,0-0.2-0.1-0.3
						c0.3,0.2,0.1-0.2,0.4-0.1c0-0.1,0-0.2,0-0.3C7.1,9.9,7.4,9.9,6.9,9.7c0.5,0.2,0.3-0.4,0.9-0.1l0,0.1l0.1-0.3l0,0
						C8,9.4,8.1,9.3,8,9.1c-0.1,0-0.2,0-0.3,0C7.6,8.8,8.1,9,8.2,8.9C8.1,8.7,8,9,7.9,8.8c0.1-0.1,0.3,0,0.4,0L8.2,8.6
						c0.1-0.4,0.5,0.5,0.4,0c0,0.1,0.1,0.1,0.1,0.2c0-0.2,0-0.5-0.2-0.5c0,0,0.2,0,0.3,0.1c0.1,0.2,0,0.1,0.1,0.3
						c0.2-0.1,0.3-0.1,0.4-0.1c0.1,0-0.1-0.1-0.1-0.1c0.1-0.4,0.4-0.3,0.6-0.3c0.2,0,0.4,0.1,0.6-0.3c0,0.2,0.1,0.2,0.1,0.3
						c0.1-0.1,0.4,0,0.5-0.1l0-0.1c0.4,0.2,0.5,0.5,0.8,0.5c0,0.1,0-0.1,0-0.2c0,0.2,0.5-0.4,0.4,0.1l-0.1,0c0.4,0,0.6,0.6,0.9,0.7
						c0.3-0.2-0.1-0.1,0.1-0.4c0.3,0.1,0.4,0.4,0.7,0.5l0-0.1c0.4,0-0.2,0.3,0.1,0.7C14,9.5,14,9.4,14.1,9.4L14,9.7
						c0,0,0.1-0.2,0.1-0.3C14,9.7,14.4,9.7,14.4,10c0.1,0,0.2-0.3,0.3-0.4c0.2,0,0.2,0.2,0.2,0.3l0,0c0.3-0.1,0.4,0.1,0.4,0
						c0.2,0.1-0.1,0.1-0.1,0.4l-0.2,0c0.1,0,0.2,0.1,0.2,0.2l0-0.2c0.2,0,0.1,0.3,0.2,0.4l-0.2,0.1c0,0.1,0,0.1,0,0.2
						c0.3-0.2,0.2,0.1,0.5-0.2c0.4,0.2,0,0.6,0.2,0.9c0-0.1,0-0.1,0.1-0.1c0.1,0.2,0,0.4-0.2,0.5c0.1,0,0.1-0.1,0.2-0.1
						c0.1,0.2-0.1,0.2-0.2,0.4c0.2-0.1,0.2-0.1,0.3,0c-0.2,0-0.3,0.1-0.3,0.1c0.7-0.3,0.3,0.2,0.9-0.1c-0.1,0.1-0.4,0.5-0.7,0.4
						l0-0.1c-0.2,0.1-0.1,0.1-0.1,0.2c0-0.1,0.1-0.1,0.1-0.1c-0.2,0.3,0,0.7-0.1,1.1c0.1,0,0.2-0.2,0.3-0.1c0.1,0.4-0.3,0.6-0.4,1
						c0.5,0.1,0.2-0.4,0.6-0.4c-0.2,0.4-0.4,0.8-0.6,1.3c0.6,0.3-0.4,0.4,0.1,0.8c-0.3-0.1-0.4,0-0.4,0.2c0.2,0,0.2,0.1,0.3,0.1
						c-0.3,0.1-0.4,0.4,0,0.5c-0.4-0.1-0.1,0.3-0.4,0.3c0.2,0.2-0.1,0.3-0.1,0.5c-0.2-0.2-0.2,0.1-0.3,0.1l0.1,0
						c0.2,0.2-0.3,0.1-0.2,0.2c0.1,0.1,0.2,0.1,0.2,0.2c-0.2-0.1-0.5-0.1-0.4,0.1c0.1,0,0.1,0.1,0.2,0.1c-0.3,0.1-0.4,0.2-0.6,0.4
						c-0.2,0.1-0.5,0.3-0.9,0.4l0.3,0.2c-0.2,0.6-0.5-0.3-0.8-0.1c-0.7,0.6-1.1,1.5-2,1.8c-0.1,0,0-0.1-0.1-0.2c0,0,0.1,0.3-0.1,0.2
						l-0.1-0.2c-0.1,0.7-1,0.3-0.8,1c-0.4-0.2-0.4,0.3-0.9,0.1c-0.1,0.1,0.2,0.2,0,0.3c-0.1-0.1-0.3-0.1-0.4-0.2l0,0
						c-0.2-0.2-0.4-0.1-0.6,0.1c-0.2,0.1-0.5,0.3-0.7,0.1l0,0c0,0.1-0.1,0.3-0.2,0.2c0-0.1,0-0.1,0.1-0.2c-0.4-0.3-0.5-0.3-0.8-0.4
						c0.1,0.2-0.1,0.2-0.2,0.4c-0.1-0.2,0.1-0.2-0.1-0.4c-0.2-0.1-0.5,0.1-0.8,0.1c0-0.3-0.2-0.2-0.1-0.5c-0.3-0.1-0.4-0.3-0.8-0.4
						l0,0.1c-0.1-0.2-0.1-0.2-0.1-0.1c0,0,0,0.1,0,0c0,0.1-0.1,0.1-0.1,0.2l0-0.1c-0.1,0.1-0.2,0.4-0.3,0.4c0.1-0.2,0.1-0.1,0.2-0.3
						l-0.2,0.3c-0.1,0,0.2-0.3,0.3-0.4l0-0.1c0-0.1,0-0.1,0-0.1l-0.2,0.1l0-0.1c-0.1,0-0.1-0.2-0.2-0.2c0,0,0.1,0,0.2,0
						c0.3-0.3-0.3,0,0-0.3c0,0.1-0.1,0.2-0.2,0.2L4,21c-0.2,0-0.5-0.3-0.4-0.5c0.1,0,0.2,0,0.2,0.1l0.1-0.1l-0.2-0.1l0.3-0.2l-0.3,0
						C3.6,20,4,20,4,19.9c-0.1-0.4-0.2-0.4-0.5-0.7c0.6,0,0.1-0.5,0.5-0.5c-0.3-0.4-0.1-0.9,0-1.4l-0.1,0C3.6,17,4.4,17.2,4.3,17
						l-0.1,0c-0.2-0.4,0.3-0.7,0.7-0.8c-0.1,0-0.3-0.1-0.2-0.2C4.8,15.9,5,16.2,5,16l-0.1-0.1l0.3,0c0.1-0.5,0.1-1.1,0.5-1.5
						c-0.1-0.1-0.2-0.1-0.3-0.1c0.2-0.4,0.6-0.7,0.7-1l-0.3-0.1c0-0.1,0.5,0.1,0.3-0.2c0-0.1,0,0.1-0.2,0.1
						c-0.2-0.4,0.3-0.1,0.4-0.4l-0.4-0.1c-0.2-0.3,0.3-0.2,0.5-0.2c0.6-0.1-0.6-0.5-0.1-0.7c0.2,0,0.2,0.2,0.4,0.2
						c0-0.2,0.2-0.1,0.3-0.3c-0.4-0.4-0.1,0.1-0.4-0.3l0,0.2c-0.1-0.3-0.1,0.1-0.4-0.1c-0.1-0.2,0.3-0.1,0.5-0.2
						c-0.2-0.1-0.2,0.2-0.4-0.1l0.1,0c-0.1,0-0.2,0-0.2,0c-0.2-0.2,0-0.1,0.1-0.2c0.1,0.1,0.3,0.3,0.4,0.4c-0.1,0-0.1-0.1-0.1-0.1
						c0.4,0.1,0.4-0.2,0.7-0.1c-0.1,0-0.1,0-0.1-0.1C7.2,10.8,7.4,11,7.6,11c0-0.2-0.4-0.5-0.1-0.5c0.1,0.1,0.3,0.5,0.4,0.4
						L7.7,10.8z M5.2,14.3C5.2,14.2,5.2,14.2,5.2,14.3L5.2,14.3C5.2,14.2,5.2,14.2,5.2,14.3z M4.8,14.5c0-0.1,0.1-0.1,0.2,0
						c0,0.1-0.1,0.1-0.1,0.2C4.9,14.6,4.9,14.5,4.8,14.5z M3.6,13.1L3.6,13.1c-0.1,0.1-0.1,0.1-0.1,0.1S3.4,13.1,3.6,13.1L3.6,13.1z
						"/>
					<path class="st1" d="M3.9,13.2L3.9,13.2C4,13.2,3.9,13.2,3.9,13.2L3.9,13.2L3.9,13.2z"/>
					<path class="st1" d="M10.6,7.2L10.6,7.2L10.6,7.2L10.6,7.2z"/>
					<path class="st1" d="M3.8,20.2L3.8,20.2L3.8,20.2z"/>
					<path class="st1" d="M8.7,8.9L8.7,8.9C8.7,8.9,8.7,9,8.7,8.9z"/>
					<path class="st1" d="M7.8,9.8l0.1-0.2C7.9,9.7,7.9,9.7,7.8,9.8z"/>
					<path class="st1" d="M7.5,10.2L7.5,10.2C7.4,10.2,7.4,10.2,7.5,10.2L7.5,10.2z"/>
					<path class="st1" d="M15.9,12.6L15.9,12.6C15.8,12.6,15.8,12.7,15.9,12.6z"/>
					<path class="st1" d="M14.9,9.8c0-0.1,0-0.1,0-0.2C14.7,9.7,14.9,9.8,14.9,9.8z"/>
					<path class="st1" d="M15.4,16.5L15.4,16.5L15.4,16.5z"/>
					<path class="st1" d="M14.9,9.8c0,0.1,0,0.1,0.1,0.1C15,9.8,15,9.8,14.9,9.8z"/>
					<path class="st1" d="M5.2,12.7C5.1,12.7,5.1,12.7,5.2,12.7L5.2,12.7L5.2,12.7z"/>
					<path class="st1" d="M5.1,12.7L5.1,12.7L5.1,12.7z"/>
					<path class="st1" d="M5,12.7L5,12.7C5,12.8,5,12.7,5,12.7z"/>
					<path class="st1" d="M5.8,11.9L5.8,11.9L5.8,11.9z"/>
					<path class="st1" d="M5.8,11.9L5.9,12C6,12,6,11.8,5.9,11.7C5.7,11.6,6,12,5.8,11.9z"/>
					<path class="st1" d="M5.6,9.8C5.7,9.7,5.8,9.9,5.8,10L6,9.8C5.9,10.1,5.7,9.4,5.6,9.8z"/>
					<path class="st1" d="M6.5,8.9c0,0.1,0,0.2,0.1,0.2C6.6,8.9,6.6,8.9,6.5,8.9z"/>
					<path class="st1" d="M12.8,7.2l-0.1,0.2C12.8,7.2,12.9,7.2,12.8,7.2z"/>
					<polygon class="st1" points="13.2,8.9 13.1,9.2 13.3,9.1 					"/>
					<polygon class="st1" points="14.8,7.9 14.7,7.7 14.7,7.8 					"/>
					<path class="st1" d="M17.3,18.1l0.3,0.1C17.7,18.1,17.4,18,17.3,18.1z"/>
					<path class="st1" d="M13.9,21.9c0.2,0.1,0.2,0,0.2-0.2C14,21.7,14,21.9,13.9,21.9z"/>
					<polygon class="st1" points="1.4,21.3 1.3,21.5 1.4,21.4 					"/>
				</g>
			</g>
		</g>
	</g>
</g>
<path class="st1" d="M10.3,23.1c-3.5,1.2-6.6,0.4-7.6,0c0.1-1.9,0.5-9.9,2.7-12.4c0.2-0.2,0.4-0.4,0.4-0.4c1.8-1.6,3.9-2.1,5.3-2.2
	c1.6-0.1,2.5,0.4,3,0.7c2.5,1.6,3.4,5.6,2,9.9C15.5,19.6,13.6,22,10.3,23.1z"/>
</svg>
