<?xml version="1.0" encoding="utf-8"?>
<!-- Generator: Adobe Illustrator 21.1.0, SVG Export Plug-In . SVG Version: 6.00 Build 0)  -->
<svg version="1.1" id="Layer_1" xmlns="http://www.w3.org/2000/svg" xmlns:xlink="http://www.w3.org/1999/xlink" x="0px" y="0px"
	 viewBox="0 0 100 100" style="enable-background:new 0 0 100 100;" xml:space="preserve">
<style type="text/css">
	.st0{fill:#665855;}
</style>
<path class="st0" d="M88.7,50c-1-0.2-3.8-0.8-5.6-3.1c-0.5-0.7-1.8-2.4-1.4-4.1c0.3-1,0.9-1.6,1.8-2.3c2.1-1.8,3.3-1.4,4.1-2.4
	c0.6-0.7,0.8-1.8-1-8.3c-0.7-2.4-1.7-6-1.8-10.3c0-1,0-2,0.7-2.8c0.9-1,2.1-0.6,5.5-0.8c3.8-0.2,4.2-0.7,5.2-0.2
	c1.1,0.6,1.8,1.9,2.2,6.9c0.1,1.9,0.5,8.5-2,18.1c-0.5,1.9-1,3.6-2.3,5.3C92.2,48.2,90,49.4,88.7,50z"/>
</svg>
