<?xml version="1.0" encoding="utf-8"?>
<!-- Generator: Adobe Illustrator 21.1.0, SVG Export Plug-In . SVG Version: 6.00 Build 0)  -->
<svg version="1.1" id="Layer_1" xmlns="http://www.w3.org/2000/svg" xmlns:xlink="http://www.w3.org/1999/xlink" x="0px" y="0px"
	 viewBox="0 0 100 100" style="enable-background:new 0 0 100 100;" xml:space="preserve">
<style type="text/css">
	.st0{fill:#A1D8F7;}
	.st1{fill:#FFFFFF;}
</style>
<path class="st0" d="M87,50.5c-2,0-4.3-1.3-5.9-3.3c-1.2-1.6-1.8-3.3-1.5-4.5c0.3-1.1,1.2-1.5,2.3-2.1c1.2-0.6,2.6-1.2,3.6-2.8
	c1.4-2.4,0.6-4.7-0.5-7.9c-0.9-2.6-2-5.9-2.4-10.4c-0.4-4.1-0.8-8.7,1.8-10.5c0.8-0.6,1.8-0.9,3-0.9c1.8,0,3.9,0.7,5.4,1.9
	c0.7,0.6,3,2.3,3.8,12.6c0.7,9.3,0.9,16.9-3.9,23.7c-1.2,1.7-3,4.2-5.6,4.3L87,50.5z"/>
<g>
	<g>
		<g>
			<g>
				<g>
					<path class="st1" d="M94.3,12.9c0.1,0,0.2-0.2,0.2-0.2l-0.3,0.1L94.3,12.9z"/>
					<path class="st1" d="M94.4,12.1c-0.2,0-0.5,0.1-0.7,0.4c0.3-0.1,0.2,0,0.6-0.2c0.1,0,0,0.2-0.1,0.2c0.1,0,0,0.1,0.2,0.1
						c0.1-0.2,0.1-0.4-0.2-0.3C94.3,12.1,94.4,12.1,94.4,12.1z"/>
					<path class="st1" d="M87.7,7L87.7,7C87.7,7.1,87.7,7,87.7,7z"/>
					<path class="st1" d="M82.6,9.2C82.7,9.2,82.7,9.1,82.6,9.2C82.6,9.1,82.6,9.2,82.6,9.2z"/>
					<path class="st1" d="M81.7,9.8C81.7,9.8,81.7,9.7,81.7,9.8C81.7,9.7,81.7,9.7,81.7,9.8z"/>
					<path class="st1" d="M87.7,7l-0.2-0.1C87.5,7.1,87.6,7,87.7,7z"/>
					<path class="st1" d="M93.1,11.8L93.1,11.8C93.2,11.8,93.2,11.7,93.1,11.8L93.1,11.8z"/>
					<path class="st1" d="M90.2,7.5L90.2,7.5C90.3,7.5,90.3,7.5,90.2,7.5L90.2,7.5z"/>
					<path class="st1" d="M91.8,8.5c0,0-0.2,0.2-0.3,0.3c0.1-0.1,0.1-0.1,0.2-0.1C91.7,8.6,91.7,8.6,91.8,8.5z"/>
					<path class="st1" d="M93.6,10.7L93.6,10.7C93.7,10.7,93.6,10.7,93.6,10.7z"/>
					<path class="st1" d="M88.9,6.8L88.9,6.8C88.9,6.8,88.9,6.8,88.9,6.8z"/>
					<path class="st1" d="M88.5,9.5C88.5,9.4,88.5,9.4,88.5,9.5C88.4,9.4,88.4,9.5,88.5,9.5z"/>
					<polygon class="st1" points="86.8,7.7 86.8,7.7 86.8,7.6 					"/>
					<path class="st1" d="M80.6,11.5L80.6,11.5C80.5,11.5,80.5,11.5,80.6,11.5z"/>
					<path class="st1" d="M88.5,24.2c-0.1-0.3,0.4-0.2,0.3-0.5C88.7,23.8,88.3,24,88.5,24.2z"/>
					<path class="st1" d="M93.1,11.7L93.1,11.7L93.1,11.7z"/>
					<path class="st1" d="M88.7,23.7L88.7,23.7L88.7,23.7L88.7,23.7z"/>
					<path class="st1" d="M80.7,15.7c0,0,0.1,0,0.1-0.1C80.8,15.6,80.8,15.6,80.7,15.7z"/>
					<path class="st1" d="M81,12.7L81,12.7C80.9,12.7,81,12.7,81,12.7z"/>
					<path class="st1" d="M81.3,17.1v0.1C81.3,17.2,81.4,17.2,81.3,17.1C81.3,17.2,81.3,17.2,81.3,17.1z"/>
					<polygon class="st1" points="81.8,18.7 81.8,18.6 81.8,18.6 					"/>
					<path class="st1" d="M91.8,11c0-0.1,0.1-0.1,0.2-0.2C91.9,10.9,91.7,10.9,91.8,11z"/>
					<path class="st1" d="M93.2,11.7c-0.1,0-0.1,0.1-0.1,0.1C93.1,11.7,93.1,11.7,93.2,11.7L93.2,11.7z"/>
					<path class="st1" d="M83.5,16.7v0.2C83.5,16.9,83.5,16.8,83.5,16.7z"/>
					<path class="st1" d="M95.4,20.1L95.4,20.1L95.4,20.1z"/>
					<path class="st1" d="M83.7,17.5c-0.1,0.1-0.1,0.1-0.2,0.2c0,0,0,0,0.1,0L83.7,17.5z"/>
					<path class="st1" d="M92,10.8L92,10.8L92,10.8z"/>
					<path class="st1" d="M90.7,10.6c0.1,0.1,0.3-0.3,0.4-0.4c0.3,0-0.1,0.3-0.1,0.5c0.2,0,0.4-0.2,0.5-0.1c0,0.1,0,0.1-0.1,0.1
						c0.3-0.1,0.3,0.2,0.7,0.1c0,0,0,0.1-0.1,0.1c0.1-0.1,0.3-0.3,0.4-0.4c0.1,0.1,0.3,0,0.1,0.2c0,0-0.1,0-0.2,0h0.1
						c-0.2,0.3-0.2,0-0.4,0.1c0.2,0.1,0.6,0,0.5,0.2c-0.3,0.2-0.3-0.2-0.4,0.1v-0.2c-0.3,0.4,0-0.1-0.4,0.3c0.1,0.2,0.3,0.1,0.3,0.3
						c0.2,0,0.2-0.2,0.4-0.2c0.5,0.2-0.7,0.6-0.1,0.7c0.2,0,0.7-0.1,0.5,0.2l-0.4,0.1c0.1,0.3,0.6,0,0.4,0.4c-0.2,0-0.2-0.2-0.2-0.1
						c-0.2,0.3,0.3,0.1,0.3,0.2l-0.3,0.1c0.2,0.3,0.6,0.6,0.8,1c-0.1,0-0.2,0-0.3,0.1c0.4,0.4,0.5,1,0.6,1.5H94l-0.1,0.1
						c0,0.2,0.2-0.1,0.3-0.1c0.1,0.1-0.1,0.2-0.2,0.2c0.4,0.1,0.9,0.4,0.7,0.8h-0.1c0,0.2,0.7,0,0.5,0.3H95c0.1,0.5,0.4,1,0.1,1.4
						c0.4,0-0.1,0.5,0.5,0.5c-0.3,0.3-0.4,0.3-0.5,0.7c0,0.1,0.4,0.1,0.4,0.3h-0.3l0.3,0.2L95.3,20l0.1,0.1c0-0.1,0.1-0.1,0.2-0.1
						c0.1,0.2-0.2,0.5-0.4,0.5l0.3,0.5c-0.1,0-0.2-0.1-0.2-0.2c0.3,0.3-0.3,0,0,0.3c0.1,0,0.2,0,0.2,0c-0.1,0-0.1,0.2-0.2,0.2v0.1
						l-0.2-0.1c0,0,0,0,0,0.1v0.1c0.1,0.1,0.4,0.4,0.3,0.4l-0.2-0.3c0.1,0.2,0.1,0.1,0.2,0.3c-0.1,0-0.2-0.3-0.3-0.4v0.1
						c0-0.1-0.1-0.1-0.1-0.2c0,0.1,0,0,0,0c0-0.1,0-0.1-0.1,0.1v-0.1c-0.4,0.1-0.5,0.3-0.8,0.4c0.1,0.3-0.1,0.2-0.1,0.5
						c-0.3,0-0.6-0.2-0.8-0.1c-0.2,0.2,0,0.2-0.1,0.4c-0.1-0.2-0.3-0.2-0.2-0.4c-0.3,0.1-0.4,0.1-0.8,0.4c0.1,0.1,0.1,0.1,0.1,0.2
						c-0.1,0.1-0.2-0.1-0.2-0.2l0,0c-0.2,0.2-0.5,0-0.7-0.1c-0.2-0.2-0.4-0.3-0.6-0.1l0,0c-0.1,0.1-0.3,0.1-0.4,0.2
						c-0.2-0.1,0.1-0.2,0-0.3c-0.5,0.3-0.5-0.2-0.9,0c0.1-0.8-0.8-0.3-0.9-1l-0.1,0.2c-0.2,0.1-0.1-0.2-0.1-0.2
						c-0.1,0.1,0,0.2-0.1,0.2c-0.9-0.3-1.4-1.1-2.1-1.7c-0.3-0.2-0.6,0.7-0.8,0.1l0.3-0.2c-0.4,0-0.7-0.2-0.9-0.3
						c-0.2-0.2-0.3-0.3-0.6-0.4c0.1,0,0.1-0.1,0.2-0.1c0.1-0.2-0.2-0.2-0.4-0.1c0-0.1,0.1-0.1,0.2-0.2s-0.4,0-0.2-0.2H84
						c-0.1,0-0.1-0.3-0.3-0.1c0-0.2-0.3-0.3-0.1-0.5c-0.3,0,0-0.4-0.4-0.3c0.4-0.1,0.3-0.4,0-0.5c0.1,0,0.1-0.1,0.3-0.1
						c0-0.2-0.1-0.3-0.4-0.2c0.5-0.4-0.5-0.5,0.1-0.8c-0.3-0.5-0.5-0.9-0.7-1.3c0.4,0,0.1,0.5,0.6,0.4c-0.2-0.4-0.6-0.6-0.5-1
						c0.1-0.1,0.2,0.1,0.3,0.1c-0.2-0.4,0-0.8-0.2-1.1c0,0,0.1,0,0.1,0.1c0-0.1,0.1-0.1-0.1-0.2V13c-0.3,0.1-0.6-0.3-0.7-0.4
						c0.6,0.2,0.2-0.3,0.9,0c0,0-0.1-0.1-0.3-0.1c0.1-0.1,0.1-0.1,0.3,0c-0.1-0.2-0.3-0.2-0.2-0.4c0.1,0,0.1,0.1,0.2,0.1
						c-0.2-0.1-0.3-0.3-0.2-0.5c0.1,0,0.1,0,0.1,0.1c0.1-0.3-0.3-0.7,0.1-0.9c0.3,0.3,0.2,0,0.5,0.2c0-0.1,0-0.1,0-0.2l-0.2-0.1
						c0.1-0.1,0-0.4,0.2-0.4v0.2c0-0.1,0.1-0.2,0.2-0.2h-0.2c0-0.3-0.3-0.3-0.1-0.4c0,0.1,0.1-0.1,0.4,0l0,0c0-0.1,0-0.3,0.2-0.3
						c0.1,0.1,0.2,0.4,0.3,0.4c-0.1-0.3,0.3-0.3,0.2-0.6c0,0.1,0.1,0.3,0.1,0.3l-0.1-0.3c0.1,0,0.1,0.1,0.2,0.2
						C84.9,9.3,84.3,9,84.7,9v0.1C85,9,85.1,8.7,85.4,8.6c0.2,0.3-0.2,0.2,0.1,0.4c0.3-0.2,0.5-0.8,0.9-0.8h-0.1
						c-0.1-0.5,0.4,0.1,0.4-0.1c0,0.1,0,0.3,0,0.2c0.3,0,0.4-0.3,0.8-0.5v0.1C87.6,8,87.9,7.9,88,8c0-0.1,0.1-0.1,0.1-0.3
						C88.3,8.1,88.5,8,88.7,8s0.5-0.1,0.6,0.3c0,0-0.2,0.1-0.1,0.1s0.2,0,0.4,0.1c0.1-0.2,0-0.1,0.1-0.3C89.8,8.1,90,8.1,90,8.1
						c-0.2,0-0.2,0.3-0.2,0.5c0-0.1,0.1-0.1,0.1-0.2c-0.1,0.5,0.3-0.4,0.4,0l-0.1,0.1c0.1,0,0.3-0.1,0.4,0c-0.1,0.2-0.2,0-0.3,0.2
						c0.1,0.1,0.6-0.2,0.5,0.1c-0.1,0-0.2,0-0.3,0c-0.1,0.3,0,0.3,0.1,0.4l0,0l0.1,0.3V9.4c0.6-0.4,0.4,0.2,0.9,0
						c-0.5,0.2-0.2,0.2-0.4,0.4c0,0.1,0,0.2,0,0.3c0.3-0.1,0.1,0.3,0.4,0.1c-0.1,0.1,0.1,0.1-0.1,0.3c0.2,0,0.1-0.2,0.2-0.2
						c0.4-0.1,0.2,0.7,0.8,0.6c0.4,0.1,0.6-0.1,1-0.1c0,0.2-0.3,0.2-0.3,0.2c0,0.2,0.1,0.3,0.3,0.3c-0.1,0-0.1,0.1-0.2,0.2
						c0.1,0.1,0.3-0.2,0.3,0c-0.1,0.1-0.2,0.2-0.4,0.2c0.2,0,0.4,0,0.6,0.1c-0.1,0.1-0.2,0.1-0.4,0.1c0.2,0.1,0.4,0.2,0.6,0.1v-0.1
						l-0.2,0.2c-0.3,0-0.1-0.2,0-0.3h0.1c0.4-0.5-0.4-0.3-0.5-0.4l0.4-0.2l-0.4,0.1c0-0.1,0.2-0.3,0.3-0.3c0-0.3-0.2,0-0.1-0.3
						c0,0,0,0,0.1,0h-0.2c0.1,0,0.2-0.2,0.2-0.1c0-0.4-0.5-0.1-0.4-0.4l0,0c-0.4-0.1-0.2,0.2-0.7,0.3l0.3-0.7L92.7,10
						c0,0-0.1-0.1,0-0.2c-0.2,0.1-0.1,0.1-0.3,0.2c0-0.3-0.5-0.2-0.2-0.6c-0.2,0.1,0,0.3-0.2,0.3c0.3-0.4-0.2-0.1-0.2-0.4
						C92,9.1,92,9.3,92,9c-0.4,0.3-0.2-0.3-0.4-0.3C91.4,9,91.3,8.6,91,8.5c0.1-0.1-0.3-0.4-0.4-0.7l0,0c-0.2,0.3-0.4,0.1-0.6,0.1
						c0.1-0.2,0.2-0.2,0.3-0.3l-0.2-0.1c-0.1,0.1-0.2,0.1-0.3,0.1L90,7.4c-0.2-0.1-0.6,0.1-0.8-0.2c-0.1,0.2-0.1,0.7-0.4,0.8
						c0-0.1,0.1-0.4,0.2-0.4c0,0-0.1,0.1-0.2,0L89,7.4c-0.1-0.1-0.1,0.2-0.2,0.1c0.1-0.2,0-0.2,0-0.3c0,0,0.1,0.1,0.1,0
						c-0.1-0.1-0.2-0.2-0.2-0.4c0,0.1-0.1,0.3-0.2,0.3c-0.2,0,0-0.2-0.2-0.4c-0.1,0.1-0.2,0-0.3,0.3c-0.1,0-0.1-0.1-0.1-0.2
						c-0.1,0.1-0.6,0-0.5,0.3l0,0l0,0l0,0l0,0C87,7.4,86.6,7,86.2,7.3V7.2c-0.2,0.2-0.5,0.2-0.5,0.5c-0.1,0-0.2-0.1-0.2-0.2
						c-0.1,0.1-0.1,0.2-0.4,0.2c0.1-0.2-0.1-0.1,0.1-0.2c-0.2,0-0.4-0.1-0.5,0.3c0-0.3-0.3-0.2-0.4-0.1l0.2,0.1
						c-0.1,0.1-0.2,0.1-0.3,0.2l-0.1-0.3c-0.6-0.1-0.4,1-1,0.6c0,0.3,0.3,0,0.4,0.3c-0.2,0.1-0.7-0.2-0.7-0.2c-0.4,0,0,0.6-0.3,0.7
						C82.9,9,83.1,9.2,83,9.4c-0.2,0.1-0.5-0.2-0.5-0.4h0.1c0-0.1,0.1-0.2-0.1-0.2L82.6,9c-0.2,0-0.4,0.2-0.5,0
						c-0.1,0.2,0.1,0.2,0.2,0.1C82,9.3,82,9.5,81.7,9.7c0.1,0,0.2,0,0.2,0.1c-0.4,0.3,0.1,0.3,0,0.6c-0.2,0.1-0.4-0.3-0.4,0.1
						c-0.2,0.1-0.3-0.1-0.4-0.2c0.1,0.4-0.4,0.5-0.5,0.6v-0.2c0,0.1,0,0.2,0,0.3h0.3c-0.1,0.1-0.1,0.2-0.2,0.1
						c0.1,0.1,0.4,0,0.6,0.3c-0.1,0.1,0,0.4-0.3,0.3c0.2-0.3-0.3,0-0.3-0.4c0,0.1,0,0.1-0.1,0.2c0,0-0.1,0-0.1-0.1
						c-0.3,0.3,0.3,0.2,0.2,0.6c-0.2-0.1-0.3,0-0.3,0.1c0-0.1,0.3,0,0.4,0.1c-0.2,0.2,0.1,0.3,0.1,0.4l0.1-0.1
						c0.2,0.1,0.1,0.2,0.2,0.3c-0.1,0-0.1-0.1-0.2-0.1c0.3,0.2-0.3,0.4-0.1,0.6c-0.1,0.1-0.3,0-0.4,0.1c0.2,0.3-0.2,0.3,0,0.6
						c0.2-0.1,0.2-0.1,0.4,0.1c-0.1-0.1-0.1-0.3-0.2-0.4l0.4,0.3c0-0.1-0.2-0.3-0.1-0.4c0.2,0.1,0.1,0.1,0.3,0
						c-0.4,0.2,0.2,0.3,0,0.6h-0.6c-0.2,0.3,0.3,0.5,0.2,1l0.1-0.1c0.2,0,0.1,0.2,0.2,0.4c-0.2,0-0.3,0.1-0.4,0.2
						c0.1,0,0,0.3,0.4,0.3L81,16.1c-0.1,0.3,0.6,0.3,0.6,0.6c-0.2-0.1-0.3,0.1-0.5-0.1c0,0.1,0,0.2,0.1,0.2
						c-0.1,0.1,0.3,0.2,0.1,0.4c0.1,0,0.3,0,0.3,0.1h-0.1c0.1,0,0.2,0.2,0.4,0c-0.5,0.5,0.3,0.9-0.1,1.3c0.1,0.2,0.3,0.5,0.5,0.6
						c-0.1,0-0.1,0-0.1,0c0,0.4,0.6-0.1,0.6,0.3c-0.2,0.3-0.2-0.1-0.3,0.1c-0.5,0.4,0.3,0.3,0.2,0.7h-0.1c0,0.3,0.5,0.2,0.7,0.4
						c0,0,0,0-0.1,0.1c0.4-0.1,0.7,0,1,0C84,21,84,20.9,83.9,21.1c0.1,0,0.2-0.4,0.4-0.3c0,0.2,0.1,0.3,0,0.6l-0.2-0.1
						c-0.1,0.4,0.2,0.1,0.3,0.2l-0.1,0.1c0.3,0.1,0.5-0.2,0.8,0v-0.1c0.4-0.2,0,0.3,0.3,0.1L85.2,22c0.2,0,0.6-0.1,0.8-0.1
						c-0.3,0.2-0.6,0.2-0.8,0.2c0.1,0.1,0.4,0.2,0.5,0.1c-0.1,0-0.2,0.1-0.2,0c0.3-0.2,0.5-0.2,0.8-0.1c-0.4,0.6,0.5,0.5,0.3,1.1
						c0.5,0,0.7,0.6,1.3,0.8c0.1-0.6,0.2,0.1,0.4-0.5c0.1,0,0.2,0,0.2,0.1c0.1,0.2,0.2,0.3,0.3,0.5c0,0.2-0.2,0.1-0.2,0.2
						c0.3,0.1,0,0.3,0.2,0.5c0-0.2,0.2-0.3,0.4-0.1c-0.1-0.1-0.1-0.2-0.2-0.3c0.5-0.2,0.2,0.6,0.8,0.4l0,0.2
						c0.3-0.1,0.9,0.1,1.1-0.4c0,0.1,0.1,0.2,0,0.3c0.6,0.1,1.2-0.5,1.6-0.3v0.2c0.1-0.1,0.1-0.3,0.3-0.2c0,0.1,0,0.2,0,0.2
						c0-0.1,0.2-0.3,0.3-0.2L93,24.7c0.5,0.1,0.7-0.5,1-0.7c0.1,0.4,0.5,0.5,0.7,0.5v0.1c0.3,0,0.5-0.2,0.7-0.4l0.3-0.3l0.1-0.1
						l0.2-0.2c0.2,0.1,0.6,0.1,0.9,0s0.6-0.4,0.8-0.7c0.1-0.2,0.2-0.4,0.3-0.5c-0.1,0.1-0.3-0.1-0.4-0.3c0.1-0.2-0.3-0.5,0.1-0.5
						v0.1c0.2,0,0.3-0.2,0.3-0.3c0-0.1,0-0.2,0-0.3h-0.5c0.8-0.5-0.3-1.3,0.4-1.6c-0.1-0.1-0.1-0.3-0.3-0.4h0.3c0-0.3,0.1-0.5-0.1-1
						l0.2,0.1c0-0.3-0.9-0.2-0.9-0.4l0.4-0.1c-0.1-0.4,0.2-1-0.4-1.3c0.1,0,0.2,0,0.2,0c0-0.2,0-0.9-0.5-0.6
						c0.3-0.2-0.2-0.4-0.4-0.6l0.3-0.1c-0.4,0-0.5,0-0.7-0.1c0-0.1,0.2-0.2,0.1-0.1c0-0.2-0.3,0-0.3-0.3H96
						c-0.1-0.2-0.2-0.1-0.4-0.1c-0.2,0-0.1-0.4,0.1-0.5c-0.1,0.1-0.4,0.1-0.4-0.1c0.1-0.1,0.1-0.1,0.2-0.1c0-0.4-0.5-0.2-0.4-0.6
						c0.1,0,0.1-0.1,0.1-0.1c0.1,0.2,0.2,0.4,0.2,0.4c0.2-0.1,0.2-0.3,0.5-0.4c-0.2,0-0.7-0.1-0.7-0.3c0,0,0,0,0.1-0.1l0,0
						c0,0,0-0.1-0.1-0.1c0-0.1,0-0.1,0-0.2c0.2-0.1,0-0.2,0-0.3c-0.3,0.1-0.3,0-0.4,0.2c0,0,0,0,0.1,0.1l0,0l0,0
						c0,0.1,0.1,0.1,0.1,0.2c-0.2,0-0.3,0-0.2-0.2c-0.2,0-0.4,0-0.5,0c0.3-0.3,0.4-0.6,0.6-0.7C94.7,11.5,94.5,11,94,11
						c-0.1-0.1,0.1-0.2,0.2-0.2s0.1,0.1,0.2,0.1c-0.2-0.1-0.3-0.6-0.7-0.4c0-0.3,0.4,0,0.1-0.3h0.1c0.1-0.5-0.3-0.6-0.7-0.7
						c-0.4-0.1-0.7-0.1-0.8-0.7c0,0.1,0,0.1,0,0.2c-0.2-0.4-0.7-0.6-1.1-0.7c-0.4-0.2-0.8-0.3-1.1-0.7c-0.2-0.2-0.3,0-0.5,0.2V7.5
						L89.4,8C89,8.1,89,7.1,88.5,7.5v0.2c-0.1-0.1-0.5,0-0.4-0.2c0,0-0.1,0.2-0.1,0.1V7.4l-0.4,0.2c-0.3-0.2,0.2-0.6-0.3-0.7
						c-0.2,0-0.5,0.4-0.5,0.5c0.1,0,0.1,0.1,0.1,0.3l-0.2,0.1c-0.1,0.5-0.3,0.9,0,1.3L87,8.9v0.2h-0.2C87,9.2,87.1,9,87.2,8.9
						c0,0.1,0,0.2,0.1,0.3l0.3-0.4c0,0.2-0.2,0.3,0,0.5c0.1-0.2,0-0.4,0.2-0.5C87.9,9,87.8,9.2,88,9c0,0.1,0,0.2-0.1,0.2
						c0.1-0.1,0.3,0,0.4-0.2c0.1,0.3,0.4,0,0.3,0.4c0.1-0.1,0.3-0.3,0.4-0.3c-0.3,0.5,0.4,0.1,0.2,0.7c0.3-0.4,0.5-0.1,0.8-0.2
						l-0.1,0.1C90,9.8,90,9.9,90,10c0.2-0.4,0.4-0.4,0.6-0.5c0,0.4-0.3,0.4-0.4,0.7c0.1-0.3,0.4-0.2,0.4-0.4c0,0.3,0,0.2-0.1,0.5
						c0.2-0.4,0.1,0,0.4-0.2c0,0.3-0.2,0.4,0,0.4L90.7,10.6z M93.6,13.9L93.6,13.9C93.6,13.8,93.6,13.8,93.6,13.9
						C93.6,13.8,93.6,13.8,93.6,13.9z M93.9,14.3c0-0.1-0.1-0.1-0.1-0.2c0.1-0.1,0.2-0.1,0.2,0C93.9,14.1,93.9,14.2,93.9,14.3z
						 M95.2,12.6c0.1,0,0,0.1,0,0.1S95.2,12.7,95.2,12.6L95.2,12.6L95.2,12.6z"/>
					<path class="st1" d="M94.8,12.7L94.8,12.7C94.8,12.7,94.7,12.7,94.8,12.7L94.8,12.7L94.8,12.7z"/>
					<path class="st1" d="M87.8,7.1L87.8,7.1L87.8,7.1L87.8,7.1z"/>
					<path class="st1" d="M95.3,19.7L95.3,19.7L95.3,19.7z"/>
					<path class="st1" d="M89.8,8.7L89.8,8.7C89.8,8.8,89.8,8.7,89.8,8.7z"/>
					<path class="st1" d="M90.6,9.3l0.1,0.2C90.6,9.4,90.6,9.4,90.6,9.3z"/>
					<path class="st1" d="M91.1,9.9C91.2,9.9,91.2,9.9,91.1,9.9L91.1,9.9L91.1,9.9z"/>
					<path class="st1" d="M82.8,12.8L82.8,12.8C82.9,12.9,82.9,12.8,82.8,12.8z"/>
					<path class="st1" d="M83.7,9.7c0,0.1,0,0.1,0,0.2C83.7,9.9,83.8,9.8,83.7,9.7z"/>
					<path class="st1" d="M83.5,16.7L83.5,16.7L83.5,16.7z"/>
					<path class="st1" d="M83.6,10c0.1,0,0.1,0,0.1-0.1C83.6,9.9,83.6,9.9,83.6,10z"/>
					<path class="st1" d="M93.5,12.3L93.5,12.3C93.6,12.3,93.6,12.3,93.5,12.3L93.5,12.3z"/>
					<path class="st1" d="M93.6,12.3L93.6,12.3L93.6,12.3z"/>
					<path class="st1" d="M93.8,12.3L93.8,12.3C93.7,12.3,93.7,12.4,93.8,12.3z"/>
					<path class="st1" d="M92.9,11.5L92.9,11.5L92.9,11.5z"/>
					<path class="st1" d="M92.7,11.3c0,0.1,0,0.3,0.1,0.3l0.1-0.1C92.7,11.6,92.9,11.2,92.7,11.3z"/>
					<path class="st1" d="M92.5,9.4l0.2,0.2c0-0.1,0.1-0.3,0.2-0.2C92.8,9,92.7,9.7,92.5,9.4z"/>
					<path class="st1" d="M91.9,8.8C92,8.8,92,8.7,92,8.6C91.9,8.6,91.9,8.6,91.9,8.8z"/>
					<path class="st1" d="M85.7,7.4l-0.1-0.2C85.5,7.2,85.6,7.2,85.7,7.4z"/>
					<polygon class="st1" points="85.2,9.1 85.4,9.2 85.3,8.9 					"/>
					<polygon class="st1" points="83.7,7.9 83.7,7.8 83.6,8 					"/>
					<path class="st1" d="M81.4,18.5l0.3-0.1C81.6,18.3,81.3,18.4,81.4,18.5z"/>
					<path class="st1" d="M85.1,21.8c0,0.2,0,0.3,0.2,0.2C85.2,22,85.2,21.8,85.1,21.8z"/>
					<polygon class="st1" points="97.8,20.8 97.9,20.9 97.8,20.7 					"/>
				</g>
			</g>
		</g>
	</g>
</g>
<path class="st1" d="M83,19c-1.7-4.2-1-8.3,1.4-10c0.5-0.4,1.4-0.9,3-0.9c1.4,0,3.5,0.4,5.4,1.9c0,0,0.2,0.2,0.4,0.4
	c2.3,2.3,3.2,10.3,3.4,12.2c-1,0.4-4,1.4-7.6,0.4C85.6,22,83.6,19.8,83,19z"/>
</svg>
