<?xml version="1.0" encoding="utf-8"?>
<!-- Generator: Adobe Illustrator 21.1.0, SVG Export Plug-In . SVG Version: 6.00 Build 0)  -->
<svg version="1.1" id="Layer_1" xmlns="http://www.w3.org/2000/svg" xmlns:xlink="http://www.w3.org/1999/xlink" x="0px" y="0px"
	 viewBox="0 0 50 50" style="enable-background:new 0 0 50 50;" xml:space="preserve">
<style type="text/css">
	.st0{fill:none;stroke:#000000;stroke-width:3;stroke-miterlimit:10;}
	.st1{fill:#C1C605;}
</style>
<line class="st0" x1="24.5" y1="27" x2="24.5" y2="47"/>
<g>
	<path class="st1" d="M24.8,37c-1.4,0-3.7-0.8-6.4-4.8c-6-8.7,3.1-24.7,6.6-30.3c3.6,6.3,11.1,21.5,5.7,30.3
		c-0.8,1.3-2.8,4.6-5.7,4.8L24.8,37z"/>
	<path d="M24.9,3.9c1.9,3.6,3.6,7.2,4.7,10.6c1.7,5.2,3.2,12.4,0.2,17.3c-0.7,1.1-2.6,4.2-4.9,4.3c0,0-0.1,0-0.1,0
		c-1,0-3-0.6-5.6-4.4c-3.2-4.8-1.5-12.1,0.6-17.4C21.3,10.2,23.3,6.5,24.9,3.9 M25,0c-1.9,2.9-14.6,22.3-7.5,32.8
		c0.7,1.1,3.6,5.2,7.3,5.2c0.1,0,0.2,0,0.2,0c3.4-0.2,5.7-3.8,6.5-5.2C38,22.2,27.2,3.6,25,0L25,0z"/>
</g>
</svg>
