<?xml version="1.0" encoding="utf-8"?>
<!-- Generator: Adobe Illustrator 21.1.0, SVG Export Plug-In . SVG Version: 6.00 Build 0)  -->
<svg version="1.1" id="Layer_1" xmlns="http://www.w3.org/2000/svg" xmlns:xlink="http://www.w3.org/1999/xlink" x="0px" y="0px"
	 viewBox="0 0 100 100" style="enable-background:new 0 0 100 100;" xml:space="preserve">
<style type="text/css">
	.st0{fill:#F1C27D;stroke:#000000;stroke-width:2;stroke-miterlimit:10;}
</style>
<g>
	<path class="st0" d="M11.1,50.4c-2.6-0.1-4.4-2.6-5.6-4.3C0.8,39.2,1,31.6,1.8,22.3C2.7,12,5,10.3,5.7,9.7C7.2,8.6,9.2,7.9,11,7.9
		c1.2,0,2.3,0.3,3.1,0.9c2.6,1.9,2.1,6.5,1.7,10.6c-0.4,4.5-1.6,7.8-2.5,10.4c-1.1,3.2-2,5.5-0.6,7.9c0.9,1.6,2.3,2.3,3.6,2.8
		c1.2,0.5,2.1,0.9,2.3,2.1c0.3,1.3-0.3,2.9-1.5,4.5C15.5,49.1,13.2,50.4,11.1,50.4L11.1,50.4z"/>
	<path class="st0" d="M11.1,8.4c1.1,0,2.1,0.3,2.8,0.8c2.3,1.7,1.9,6.2,1.5,10.1c-0.4,4.4-1.6,7.7-2.5,10.2c-1.1,3.2-2,5.7-0.5,8.3
		c1,1.8,2.6,2.5,3.8,3.1s1.8,0.9,2,1.7c0.3,1.1-0.3,2.7-1.4,4.1c-1.5,1.9-3.7,3.1-5.5,3.1h-0.1c-2.4-0.1-4.1-2.5-5.2-4.1
		C1.4,39,1.6,31.5,2.4,22.3C3,15.6,4.2,11.5,6.1,10.1C7.4,9.1,9.4,8.4,11.1,8.4 M11.1,7.4c-2,0-4.1,0.7-5.6,1.9
		c-1,0.7-3.2,2.8-4.1,13c-0.7,8.4-1.3,16.8,3.8,24c1.2,1.7,3.1,4.5,6,4.6c0.1,0,0.1,0,0.2,0c4.3,0,8.7-5.1,7.9-8.4
		c-0.6-2.7-4.2-2-6-5.1c-2.3-4,2.2-7.9,3.2-18c0.4-4.2,0.9-9-1.9-11C13.5,7.7,12.3,7.4,11.1,7.4L11.1,7.4z"/>
</g>
</svg>
