<?xml version="1.0" encoding="utf-8"?>
<!-- Generator: Adobe Illustrator 21.1.0, SVG Export Plug-In . SVG Version: 6.00 Build 0)  -->
<svg version="1.1" id="Layer_1" xmlns="http://www.w3.org/2000/svg" xmlns:xlink="http://www.w3.org/1999/xlink" x="0px" y="0px"
	 viewBox="0 0 100 100" style="enable-background:new 0 0 100 100;" xml:space="preserve">
<style type="text/css">
	.st0{fill:#353535;}
	.st1{fill:#3E2477;}
	.st2{fill:#FFFFFF;}
</style>
<g>
	<path class="st0" d="M31.5,18.5c6.6,0,12.2,5.5,12.2,12s-5.5,12-12.2,12s-12.1-5.5-12.1-12c2.2-1,5.8-2.9,8.9-6.7
		C29.8,21.9,30.8,20,31.5,18.5z"/>
</g>
<g>
	<path class="st1" d="M31.5,19.5c6.1,0,11.1,5.1,11.1,11.2s-5.1,11.2-11.1,11.2s-11.1-5.1-11.1-11.2c2-0.9,5.4-2.7,8.1-6.2
		C30,22.7,30.9,20.9,31.5,19.5z"/>
</g>
<g>
	<path d="M31.5,21c5.2,0,9.5,4.3,9.5,9.5S36.7,40,31.5,40S22,35.7,22,30.5c1.7-0.7,4.5-2.3,7-5.3C30.2,23.7,31,22.2,31.5,21z"/>
</g>
<g>
	<path d="M66.5,21c5.1,0,9.6,4.3,9.5,9.5c-0.1,2.4-1,5.4-3.4,6.8c-1.2,0.7-2.9,0.6-6.4,0.5c-3.2-0.1-4.9-0.1-6-0.8
		C58,35.7,57,32.7,57,30.5C57,26.1,60.9,21,66.5,21z"/>
</g>
<circle class="st2" cx="66.5" cy="26" r="5"/>
<circle class="st2" cx="34.3" cy="27.2" r="5"/>
</svg>
