<?xml version="1.0" encoding="utf-8"?>
<!-- Generator: Adobe Illustrator 21.1.0, SVG Export Plug-In . SVG Version: 6.00 Build 0)  -->
<svg version="1.1" id="Layer_1" xmlns="http://www.w3.org/2000/svg" xmlns:xlink="http://www.w3.org/1999/xlink" x="0px" y="0px"
	 viewBox="0 0 100 100" style="enable-background:new 0 0 100 100;" xml:space="preserve">
<style type="text/css">
	.st0{fill:#8EE2FF;}
</style>
<g>
	<path class="st0" d="M88.4,50.6c-2,0-4.3-1.3-5.9-3.3c-1.2-1.6-1.8-3.3-1.5-4.5c0.3-1.1,1.2-1.5,2.3-2.1c1.2-0.6,2.6-1.2,3.6-2.8
		c1.4-2.4,0.6-4.7-0.5-7.9c-0.9-2.6-2-5.9-2.4-10.4c-0.4-4.1-0.8-8.7,1.8-10.5c0.8-0.6,1.8-0.9,3-0.9c1.8,0,3.9,0.7,5.4,1.9
		c0.7,0.6,3,2.3,3.8,12.6c0.7,9.3,0.9,16.9-3.9,23.7c-1.2,1.7-3,4.2-5.6,4.3L88.4,50.6z"/>
	<path class="st0" d="M88.8,8.6L88.8,8.6c1.7,0,3.7,0.7,5.1,1.8c1.9,1.4,3.1,5.6,3.6,12.3c0.7,9.2,0.9,16.7-3.8,23.3
		c-1.1,1.6-2.9,4-5.2,4.1h-0.1c-1.8,0-4-1.2-5.5-3.1c-1.1-1.4-1.7-3-1.4-4.1c0.2-0.8,0.9-1.2,2.1-1.7c1.2-0.6,2.8-1.2,3.8-3
		c1.5-2.6,0.6-5.1-0.5-8.3c-0.9-2.6-2-5.8-2.4-10.3c-0.4-3.9-0.8-8.4,1.6-10.1C86.8,8.9,87.7,8.6,88.8,8.6 M88.8,7.6
		c-1.2,0-2.4,0.3-3.3,1c-2.8,2-2.4,6.8-2,11c0.9,10.1,5.3,14,3,18c-1.8,3-5.3,2.3-6,5c-0.8,3.3,3.6,8.5,7.9,8.5h0.1
		c2.9-0.1,4.8-2.8,6-4.5c5.1-7.2,4.6-15.6,4-24c-0.8-10.2-3-12.3-4-13C92.9,8.4,90.8,7.6,88.8,7.6L88.8,7.6z"/>
</g>
</svg>
